<svg width="6.9927em" height="5.8606em" style="vertical-align:-0.000000em" version="1.1" viewBox="200.78 -72.924 83.287 69.803" xmlns="http://www.w3.org/2000/svg" xmlns:xlink="http://www.w3.org/1999/xlink"><defs><path id="dWT_c" d="m2.146-3.7958c0-0.17933-0.023911-0.17933-0.20324-0.17933-0.39452 0.38256-1.0042 0.38256-1.2194 0.38256v0.23313c0.15542 0 0.54994 0 0.90859-0.16737v3.0187c0 0.19726 0 0.27497-0.61569 0.27497h-0.25704v0.23313c0.32877-0.02391 0.79502-0.02391 1.1298-0.02391s0.801 0 1.1298 0.02391v-0.23313h-0.25704c-0.61569 0-0.61569-0.077708-0.61569-0.27497v-3.2877z"/><path id="dWT_b" d="m3.2159-1.1178h-0.22117c-0.011956 0.083686-0.071731 0.47821-0.1614 0.54396-0.041843 0.035865-0.52603 0.035865-0.60971 0.035865h-1.1178l0.76513-0.62167c0.20324-0.1614 0.73524-0.54396 0.92055-0.72329 0.17933-0.17933 0.42441-0.48418 0.42441-0.90859 0-0.7472-0.67547-1.1836-1.4765-1.1836-0.77111 0-1.3091 0.50809-1.3091 1.07 0 0.30486 0.25704 0.34072 0.32279 0.34072 0.14944 0 0.32279-0.1076 0.32279-0.32279 0-0.13151-0.077708-0.32279-0.34072-0.32279 0.13748-0.30486 0.50212-0.532 0.91457-0.532 0.62765 0 0.96239 0.46625 0.96239 0.95044 0 0.42441-0.28095 0.86077-0.69938 1.2433l-1.4167 1.2971c-0.059775 0.059776-0.065753 0.065754-0.065753 0.25106h2.6002l0.1853-1.1178z"/><path id="dWT_j" d="m5.2961-3.9691c0-0.20324 0-0.40648-0.2391-0.40648s-0.2391 0.25106-0.2391 0.4543v3.7061h-3.73c-0.21519 0-0.41843 0-0.41843 0.2391s0.21519 0.2391 0.41843 0.2391h3.7898c0.38256 0 0.41843-0.035866 0.41843-0.40648v-3.8257z"/><path id="dWT_i" d="m3.0526-3.1721h0.74122c0.1594 0 0.25504 0 0.25504-0.15143 0-0.11158-0.10361-0.11158-0.2391-0.11158h-0.70934c0.12752-0.71731 0.20722-1.1716 0.28692-1.5303 0.03188-0.13549 0.05579-0.22316 0.17534-0.3188 0.10361-0.087672 0.16737-0.10361 0.25504-0.10361 0.11955 0 0.24707 0.023911 0.35068 0.087671-0.039851 0.015941-0.087672 0.039851-0.12752 0.063761-0.13549 0.071731-0.23113 0.21519-0.23113 0.3746 0 0.18331 0.14346 0.29489 0.3188 0.29489 0.23113 0 0.44633-0.19925 0.44633-0.47821 0-0.3746-0.38256-0.56588-0.76513-0.56588-0.27098 0-0.7731 0.12752-1.0281 0.86077-0.071731 0.18331-0.071731 0.19925-0.28692 1.3151h-0.59776c-0.1594 0-0.25504 0-0.25504 0.15143 0 0.11158 0.10361 0.11158 0.2391 0.11158h0.56588l-0.57385 3.0924c-0.15143 0.80498-0.27098 1.4824-0.6934 1.4824-0.023911 0-0.19128 0-0.34272-0.095642 0.36662-0.087671 0.36662-0.42242 0.36662-0.43039 0-0.18331-0.14346-0.29489-0.3188-0.29489-0.21519 0-0.44633 0.18331-0.44633 0.48618 0 0.33474 0.34272 0.55791 0.74122 0.55791 0.48618 0 0.82092-0.51009 0.92453-0.70934 0.28692-0.52603 0.47024-1.5223 0.48618-1.602l0.46227-2.4867z"/><path id="dWT_h" d="m3.9532-2.941c0.03188-0.11955 0.03188-0.16737 0.03188-0.17534 0-0.18331-0.15143-0.24707-0.25504-0.24707-0.18331 0-0.32677 0.14346-0.35866 0.31083-0.06376-0.11955-0.30286-0.46227-0.78107-0.46227-0.94844 0-1.9846 1.06-1.9846 2.2237 0 0.86077 0.56588 1.2912 1.1557 1.2912 0.36662 0 0.6934-0.19925 0.95641-0.43039l-0.17534 0.71731c-0.087671 0.33474-0.14346 0.56588-0.4543 0.82889-0.33474 0.28692-0.63761 0.28692-0.83686 0.28692s-0.39054-0.00797-0.58182-0.047821c0.17534-0.095641 0.25504-0.26301 0.25504-0.39851 0-0.19128-0.14346-0.29489-0.31083-0.29489-0.19925 0-0.44633 0.1594-0.44633 0.47821 0 0.4543 0.62167 0.48618 1.0999 0.48618 1.1318 0 1.6976-0.60573 1.8172-1.0919l0.86874-3.475zm-1.076 1.8889c-0.05579 0.22316-0.23113 0.38257-0.3985 0.534-0.071731 0.05579-0.3746 0.29489-0.70137 0.29489-0.3188 0-0.54994-0.26301-0.54994-0.74122 0-0.33474 0.19925-1.2035 0.41445-1.61 0.25504-0.4543 0.62964-0.71731 0.94844-0.71731 0.534 0 0.67746 0.58979 0.67746 0.66152l-0.02391 0.11158-0.36663 1.4665z"/><path id="dWT_a" d="m0.41445 0.96438c-0.063761 0.25504-0.079701 0.3188-0.39851 0.3188-0.11158 0-0.20722 0-0.20722 0.15143 0 0.071731 0.071731 0.11158 0.11158 0.11158 0.079701 0 0.11158-0.023911 0.70137-0.023911 0.57385 0 0.74122 0.023911 0.79701 0.023911 0.03188 0 0.15143 0 0.15143-0.15143 0-0.11158-0.11158-0.11158-0.20722-0.11158-0.38256 0-0.38256-0.047821-0.38256-0.11955 0-0.05579 0.14346-0.62167 0.38256-1.5542 0.10361 0.18331 0.35068 0.47024 0.78107 0.47024 0.98032 0 2.0005-1.1318 2.0005-2.2874 0-0.78904-0.51009-1.3071-1.1477-1.3071-0.47821 0-0.86077 0.32677-1.0919 0.56588-0.16737-0.56588-0.70137-0.56588-0.78107-0.56588-0.28692 0-0.48618 0.18331-0.6137 0.43039-0.18331 0.35866-0.27098 0.76513-0.27098 0.78904 0 0.071731 0.055791 0.10361 0.11955 0.10361 0.10361 0 0.11158-0.03188 0.16737-0.2391 0.10361-0.40648 0.24707-0.86077 0.57385-0.86077 0.19925 0 0.25504 0.18331 0.25504 0.3746 0 0.079701-0.03188 0.27098-0.047821 0.33474l-0.89265 3.5467zm1.4665-3.4192c0.039851-0.13549 0.039851-0.15143 0.1594-0.29489 0.30286-0.35866 0.64558-0.54197 0.9325-0.54197 0.3985 0 0.54994 0.39054 0.54994 0.74919 0 0.29489-0.17534 1.1477-0.41445 1.6179-0.20722 0.43039-0.58979 0.78107-0.96438 0.78107-0.54197 0-0.66949-0.62167-0.66949-0.67746 0-0.01594 0.01594-0.10361 0.02391-0.12752l0.38256-1.5064z"/><path id="dWT_g" d="m3.5387-3.8017h2.0085c1.6498 0 3.2996-1.2194 3.2996-2.5823 0-0.9325-0.78904-1.7813-2.2954-1.7813h-3.6941c-0.22715 0-0.33474 0-0.33474 0.22715 0 0.11955 0.1076 0.11955 0.28692 0.11955 0.72926 0 0.72926 0.095641 0.72926 0.22715 0 0.023911 0 0.095642-0.047821 0.27497l-1.6139 6.4319c-0.1076 0.41843-0.13151 0.53798-0.96837 0.53798-0.22715 0-0.3467 0-0.3467 0.21519 0 0.13151 0.1076 0.13151 0.17933 0.13151 0.22715 0 0.46625-0.02391 0.6934-0.02391h1.3988c0.22715 0 0.47821 0.02391 0.70536 0.02391 0.095641 0 0.22715 0 0.22715-0.22715 0-0.11955-0.1076-0.11955-0.28692-0.11955-0.71731 0-0.72926-0.083686-0.72926-0.20324 0-0.059776 0.011955-0.14346 0.02391-0.20324l0.76513-3.0486zm0.86077-3.5507c0.1076-0.44234 0.15542-0.46625 0.62167-0.46625h1.1836c0.89664 0 1.6379 0.28692 1.6379 1.1836 0 0.31083-0.15542 1.327-0.70536 1.877-0.20324 0.21519-0.77709 0.66949-1.865 0.66949h-1.6857l0.81295-3.2638z"/><path id="dWT_f" d="m5.6787-4.8538-1.1238-2.6182c0.15542-0.28692 0.51407-0.33474 0.65753-0.3467 0.071731 0 0.20324-0.011955 0.20324-0.21519 0-0.13151-0.1076-0.13151-0.17933-0.13151-0.20324 0-0.44234 0.023911-0.64558 0.023911h-0.6934c-0.72926 0-1.2553-0.023911-1.2672-0.023911-0.095641 0-0.21519 0-0.21519 0.22715 0 0.11955 0.1076 0.11955 0.26301 0.11955 0.6934 0 0.74122 0.11955 0.86077 0.40648l1.4227 3.3235-2.5943 2.7736c-0.43039 0.46625-0.94446 0.92055-1.8291 0.96837-0.14346 0.011955-0.2391 0.011955-0.2391 0.22715 0 0.035866 0.011955 0.11955 0.14346 0.11955 0.16737 0 0.3467-0.02391 0.51407-0.02391h0.56189c0.38257 0 0.801 0.02391 1.1716 0.02391 0.083686 0 0.22715 0 0.22715-0.21519 0-0.11955-0.083686-0.13151-0.15542-0.13151-0.2391-0.02391-0.39452-0.15542-0.39452-0.3467 0-0.20324 0.14346-0.3467 0.49016-0.70536l1.064-1.1597c0.26301-0.27497 0.89664-0.96837 1.1597-1.2314l1.2553 2.941c0.011955 0.02391 0.059776 0.14346 0.059776 0.15542 0 0.1076-0.26301 0.32279-0.64558 0.3467-0.071731 0-0.20324 0.011955-0.20324 0.22715 0 0.11955 0.11955 0.11955 0.17933 0.11955 0.20324 0 0.44234-0.02391 0.64558-0.02391h1.3151c0.21519 0 0.44234 0.02391 0.64558 0.02391 0.083686 0 0.21519 0 0.21519-0.22715 0-0.11955-0.11955-0.11955-0.22715-0.11955-0.71731-0.011955-0.74122-0.071731-0.94446-0.51407l-1.5781-3.7061 1.5183-1.6259c0.11955-0.11955 0.39452-0.41843 0.50212-0.53798 0.51407-0.53798 0.99228-1.0281 1.9606-1.0879 0.11955-0.011955 0.2391-0.011955 0.2391-0.21519 0-0.13151-0.1076-0.13151-0.15542-0.13151-0.16737 0-0.3467 0.023911-0.51407 0.023911h-0.54994c-0.38257 0-0.801-0.023911-1.1716-0.023911-0.083686 0-0.22715 0-0.22715 0.21519 0 0.11955 0.083686 0.13151 0.15542 0.13151 0.19128 0.02391 0.39452 0.11955 0.39452 0.3467l-0.011955 0.02391c-0.011956 0.083686-0.035866 0.20324-0.16737 0.3467l-2.0922 2.2476z"/><path id="dWT_e" d="m7.0296-6.8384 0.27497-0.27497c0.52603-0.53798 0.96837-0.66949 1.3868-0.70536 0.13151-0.011955 0.2391-0.02391 0.2391-0.22715 0-0.11955-0.11955-0.11955-0.14346-0.11955-0.14346 0-0.29888 0.023911-0.44234 0.023911h-0.49016c-0.3467 0-0.71731-0.023911-1.0521-0.023911-0.083687 0-0.21519 0-0.21519 0.22715 0 0.1076 0.11955 0.11955 0.15542 0.11955 0.35866 0.02391 0.35866 0.20324 0.35866 0.27497 0 0.13151-0.095641 0.31083-0.33474 0.5858l-2.8453 3.2638-1.3509-3.6344c-0.071731-0.16737-0.071731-0.19128-0.071731-0.21519 0-0.25106 0.49016-0.27497 0.63362-0.27497s0.27497 0 0.27497-0.21519c0-0.13151-0.1076-0.13151-0.17933-0.13151-0.20324 0-0.44234 0.023911-0.64558 0.023911h-1.327c-0.21519 0-0.44234-0.023911-0.64558-0.023911-0.083687 0-0.21519 0-0.21519 0.22715 0 0.11955 0.1076 0.11955 0.28692 0.11955 0.5858 0 0.6934 0.1076 0.801 0.38256l1.4824 3.9811c0.011955 0.035866 0.04782 0.16737 0.04782 0.20324s-0.5858 2.391-0.62167 2.5106c-0.095642 0.32279-0.21519 0.38256-0.98032 0.39452-0.20324 0-0.29888 0-0.29888 0.22715 0 0.11955 0.13151 0.11955 0.16737 0.11955 0.21519 0 0.46625-0.02391 0.6934-0.02391h1.4107c0.21519 0 0.46625 0.02391 0.68144 0.02391 0.083686 0 0.22715 0 0.22715-0.21519 0-0.13151-0.083686-0.13151-0.28692-0.13151-0.74122 0-0.74122-0.083686-0.74122-0.21519 0-0.083686 0.095641-0.46625 0.15542-0.70536l0.43039-1.7215c0.071731-0.25106 0.071731-0.27497 0.17933-0.39452l3.0007-3.455z"/><path id="dWT_d" d="m8.3686-7.7948c0.071731-0.083686 0.13151-0.15542 0.13151-0.27497 0-0.083687-0.011956-0.095642-0.28692-0.095642h-4.9375c-0.27497 0-0.28692 0.011955-0.35866 0.22715l-0.65753 2.1519c-0.035866 0.11955-0.035866 0.14346-0.035866 0.16737 0 0.047821 0.035866 0.11955 0.11955 0.11955 0.095641 0 0.11955-0.047821 0.16737-0.20324 0.44234-1.2912 1.0281-2.1161 2.9171-2.1161h1.9606l-6.5514 7.4122c-0.1076 0.13151-0.15542 0.17933-0.15542 0.31084 0 0.095641 0.059775 0.095641 0.28692 0.095641h5.1049c0.27497 0 0.28692-0.011955 0.35866-0.22715l0.83686-2.6421c0.011955-0.035866 0.035866-0.11955 0.035866-0.16737 0-0.059776-0.047821-0.11955-0.11955-0.11955-0.095641 0-0.1076 0.011955-0.20324 0.31083-0.50212 1.5422-1.0281 2.4747-3.1083 2.4747h-2.0682l6.5634-7.4242z"/></defs><g id="dWT_k" transform="scale(1.25)"><g transform="translate(-38.952 23.08)"><use x="206.409071" y="-70.552947" xlink:href="#dWT_g"/></g><g transform="translate(-39.063 23.08)"><use x="254.822203" y="-70.552947" xlink:href="#dWT_e"/></g><g transform="translate(-39.694 23.08)"><use x="206.409071" y="-32.562233" xlink:href="#dWT_f"/></g><g transform="translate(-38.802 23.08)"><use x="254.822203" y="-32.562233" xlink:href="#dWT_d"/></g><path d="m181.98-50.461h27.957" fill="none" stroke="#000" stroke-miterlimit="10" stroke-width=".47818"/><path d="m207.69-53.332c0.45312 1.7226 1.4648 2.5352 2.4883 2.8711-1.0234 0.33203-2.0352 1.1484-2.4883 2.8672" fill="none" stroke="#000" stroke-linecap="round" stroke-linejoin="round" stroke-miterlimit="10" stroke-width=".47818"/><g transform="translate(-3.947 -22.262)"><use x="195.934162" y="-32.562233" xlink:href="#dWT_a"/><use x="200.196939" y="-31.455285" xlink:href="#dWT_b"/></g><path d="m172.04-42.898v20.195" fill="none" stroke="#000" stroke-miterlimit="10" stroke-width=".47818"/><path d="m174.91-24.953c-1.7188 0.45704-2.5312 1.4688-2.8672 2.4883-0.33594-1.0195-1.1484-2.0312-2.8711-2.4883" fill="none" stroke="#000" stroke-linecap="round" stroke-linejoin="round" stroke-miterlimit="10" stroke-width=".47818"/><g transform="translate(-35.118 .9409)"><use x="195.934162" y="-32.562233" xlink:href="#dWT_a"/><use x="200.196939" y="-31.455285" xlink:href="#dWT_c"/></g><g transform="translate(-13.621 -5.233)"><use x="195.934162" y="-32.562233" xlink:href="#dWT_j"/></g><path d="m220.46-42.898v20.195" fill="none" stroke="#000" stroke-miterlimit="10" stroke-width=".47818"/><path d="m223.32-24.953c-1.7188 0.45704-2.5312 1.4688-2.8672 2.4883-0.33594-1.0195-1.1484-2.0312-2.8711-2.4883" fill="none" stroke="#000" stroke-linecap="round" stroke-linejoin="round" stroke-miterlimit="10" stroke-width=".47818"/><g transform="translate(27.335 .9409)"><use x="195.934162" y="-32.562233" xlink:href="#dWT_h"/></g><path d="m182.72-12.473h27.477" fill="none" stroke="#000" stroke-miterlimit="10" stroke-width=".47818"/><path d="m207.95-15.34c0.45312 1.7226 1.4648 2.5352 2.4844 2.8672-1.0195 0.33594-2.0313 1.1484-2.4844 2.8711" fill="none" stroke="#000" stroke-linecap="round" stroke-linejoin="round" stroke-miterlimit="10" stroke-width=".47818"/><g transform="translate(-1.712 28.439)"><use x="195.934162" y="-32.562233" xlink:href="#dWT_i"/></g></g></svg>
