<svg width="6.5515em" height="5.9183em" style="vertical-align:-0.000000em" version="1.1" viewBox="203.81 -73.607 78.032 70.49" xmlns="http://www.w3.org/2000/svg" xmlns:xlink="http://www.w3.org/1999/xlink"><defs><path id="STe_h" d="m3.0526-3.1721h0.74122c0.1594 0 0.25504 0 0.25504-0.15143 0-0.11158-0.10361-0.11158-0.2391-0.11158h-0.70934c0.12752-0.71731 0.20722-1.1716 0.28692-1.5303 0.03188-0.13549 0.05579-0.22316 0.17534-0.3188 0.10361-0.087672 0.16737-0.10361 0.25504-0.10361 0.11955 0 0.24707 0.023911 0.35068 0.087671-0.039851 0.015941-0.087672 0.039851-0.12752 0.063761-0.13549 0.071731-0.23113 0.21519-0.23113 0.3746 0 0.18331 0.14346 0.29489 0.3188 0.29489 0.23113 0 0.44633-0.19925 0.44633-0.47821 0-0.3746-0.38256-0.56588-0.76513-0.56588-0.27098 0-0.7731 0.12752-1.0281 0.86077-0.071731 0.18331-0.071731 0.19925-0.28692 1.3151h-0.59776c-0.1594 0-0.25504 0-0.25504 0.15143 0 0.11158 0.10361 0.11158 0.2391 0.11158h0.56588l-0.57385 3.0924c-0.15143 0.80498-0.27098 1.4824-0.6934 1.4824-0.023911 0-0.19128 0-0.34272-0.095642 0.36662-0.087671 0.36662-0.42242 0.36662-0.43039 0-0.18331-0.14346-0.29489-0.3188-0.29489-0.21519 0-0.44633 0.18331-0.44633 0.48618 0 0.33474 0.34272 0.55791 0.74122 0.55791 0.48618 0 0.82092-0.51009 0.92453-0.70934 0.28692-0.52603 0.47024-1.5223 0.48618-1.602l0.46227-2.4867z"/><path id="STe_g" d="m3.9532-2.941c0.03188-0.11955 0.03188-0.16737 0.03188-0.17534 0-0.18331-0.15143-0.24707-0.25504-0.24707-0.18331 0-0.32677 0.14346-0.35866 0.31083-0.06376-0.11955-0.30286-0.46227-0.78107-0.46227-0.94844 0-1.9846 1.06-1.9846 2.2237 0 0.86077 0.56588 1.2912 1.1557 1.2912 0.36662 0 0.6934-0.19925 0.95641-0.43039l-0.17534 0.71731c-0.087671 0.33474-0.14346 0.56588-0.4543 0.82889-0.33474 0.28692-0.63761 0.28692-0.83686 0.28692s-0.39054-0.00797-0.58182-0.047821c0.17534-0.095641 0.25504-0.26301 0.25504-0.39851 0-0.19128-0.14346-0.29489-0.31083-0.29489-0.19925 0-0.44633 0.1594-0.44633 0.47821 0 0.4543 0.62167 0.48618 1.0999 0.48618 1.1318 0 1.6976-0.60573 1.8172-1.0919l0.86874-3.475zm-1.076 1.8889c-0.05579 0.22316-0.23113 0.38257-0.3985 0.534-0.071731 0.05579-0.3746 0.29489-0.70137 0.29489-0.3188 0-0.54994-0.26301-0.54994-0.74122 0-0.33474 0.19925-1.2035 0.41445-1.61 0.25504-0.4543 0.62964-0.71731 0.94844-0.71731 0.534 0 0.67746 0.58979 0.67746 0.66152l-0.02391 0.11158-0.36663 1.4665z"/><path id="STe_f" d="m2.3273-5.2922c0.00797-0.015941 0.03188-0.11955 0.03188-0.12752 0-0.039851-0.03188-0.11158-0.12752-0.11158-0.03188 0-0.27895 0.023911-0.46227 0.039851l-0.44633 0.03188c-0.17534 0.01594-0.25504 0.023911-0.25504 0.16737 0 0.11158 0.11158 0.11158 0.20722 0.11158 0.38256 0 0.38256 0.047821 0.38256 0.11955 0 0.02391 0 0.03985-0.03985 0.18331l-1.1318 4.535c-0.031881 0.11955-0.031881 0.16737-0.031881 0.17534 0 0.13549 0.11158 0.24707 0.26301 0.24707 0.12752 0 0.2391-0.079701 0.30286-0.18331 0.023911-0.047821 0.087672-0.30286 0.12752-0.46227l0.18331-0.70934c0.02391-0.11955 0.10361-0.42242 0.12752-0.54197 0.11955-0.46227 0.11955-0.47821 0.29489-0.73325 0.27098-0.39054 0.64558-0.74122 1.1796-0.74122 0.28692 0 0.4543 0.16737 0.4543 0.54197 0 0.43836-0.33474 1.3469-0.48618 1.7375-0.10361 0.26301-0.10361 0.31083-0.10361 0.41445 0 0.4543 0.3746 0.67746 0.71731 0.67746 0.78107 0 1.1078-1.1158 1.1078-1.2194 0-0.079701-0.063761-0.10361-0.11955-0.10361-0.095641 0-0.11158 0.05579-0.13549 0.13549-0.19128 0.65355-0.52603 0.96438-0.82889 0.96438-0.12752 0-0.19128-0.079701-0.19128-0.26301s0.063761-0.35866 0.14346-0.55791c0.11955-0.30286 0.47024-1.2194 0.47024-1.6658 0-0.59776-0.41445-0.88468-0.98829-0.88468-0.44633 0-0.86874 0.19128-1.2354 0.6137l0.58979-2.391z"/><path id="STe_e" d="m2.3273-5.2922c0.00797-0.015941 0.03188-0.11955 0.03188-0.12752 0-0.039851-0.03188-0.11158-0.12752-0.11158-0.03188 0-0.27895 0.023911-0.46227 0.039851l-0.44633 0.03188c-0.17534 0.01594-0.25504 0.023911-0.25504 0.16737 0 0.11158 0.11158 0.11158 0.20722 0.11158 0.38256 0 0.38256 0.047821 0.38256 0.11955 0 0.02391 0 0.03985-0.03985 0.18331l-1.1318 4.535c-0.031881 0.11955-0.031881 0.16737-0.031881 0.17534 0 0.13549 0.11158 0.24707 0.26301 0.24707 0.27098 0 0.33474-0.25504 0.36662-0.36662 0.079701-0.33474 0.28692-1.1796 0.3746-1.5143 0.43836 0.04782 0.97235 0.19925 0.97235 0.65355 0 0.03985 0 0.079701-0.01594 0.1594-0.02391 0.10361-0.039851 0.21519-0.039851 0.25504 0 0.47024 0.35068 0.81295 0.81295 0.81295 0.33474 0 0.54197-0.24707 0.64558-0.3985 0.19128-0.2949 0.3188-0.7731 0.3188-0.82092 0-0.079701-0.063761-0.10361-0.11955-0.10361-0.095642 0-0.11158 0.04782-0.14346 0.19128-0.10361 0.3746-0.31084 0.90859-0.68543 0.90859-0.20722 0-0.25504-0.17534-0.25504-0.39054 0-0.10361 0.007971-0.19925 0.047821-0.38256 0.00797-0.03188 0.039851-0.1594 0.039851-0.24707 0-0.65355-0.82092-0.79701-1.2274-0.8528 0.2949-0.17534 0.56588-0.44633 0.66152-0.54994 0.43836-0.43039 0.79701-0.72528 1.1796-0.72528 0.10361 0 0.19925 0.02391 0.26301 0.10361-0.43039 0.055791-0.43039 0.43039-0.43039 0.43836 0 0.17534 0.13549 0.29489 0.31083 0.29489 0.21519 0 0.4543-0.17534 0.4543-0.50212 0-0.27098-0.19128-0.55791-0.58979-0.55791-0.46227 0-0.87671 0.35068-1.331 0.80498-0.46227 0.4543-0.66152 0.54197-0.78904 0.59776l0.78904-3.1801z"/><path id="STe_d" d="m2.0324-1.327c-0.41843 0.70536-0.82491 0.94446-1.3988 0.98032-0.13151 0.011955-0.22715 0.011955-0.22715 0.22715 0 0.071731 0.059776 0.11955 0.14346 0.11955 0.21519 0 0.75318-0.02391 0.96837-0.02391 0.3467 0 0.72927 0.02391 1.064 0.02391 0.071731 0 0.21519 0 0.21519-0.22715 0-0.1076-0.095641-0.11955-0.16737-0.11955-0.27497-0.02391-0.50212-0.11955-0.50212-0.40648 0-0.16737 0.071731-0.29888 0.22715-0.56189l0.90859-1.5064h3.0486c0.011955 0.1076 0.011955 0.20324 0.02391 0.31084 0.035866 0.31083 0.17933 1.5542 0.17933 1.7813 0 0.35866-0.60971 0.38256-0.801 0.38256-0.13151 0-0.26301 0-0.26301 0.21519 0 0.13151 0.1076 0.13151 0.17933 0.13151 0.20324 0 0.44234-0.02391 0.64558-0.02391h0.68144c0.72926 0 1.2553 0.02391 1.2672 0.02391 0.083686 0 0.21519 0 0.21519-0.22715 0-0.11955-0.1076-0.11955-0.28692-0.11955-0.65754 0-0.66949-0.1076-0.70536-0.46625l-0.72927-7.46c-0.02391-0.2391-0.071731-0.26301-0.20324-0.26301-0.11955 0-0.19128 0.02391-0.29888 0.20324l-4.1843 7.0057zm1.4346-1.8411 2.403-4.0169 0.40648 4.0169h-2.8095z"/><path id="STe_c" d="m4.3756-7.3524c0.1076-0.44234 0.15542-0.46625 0.62167-0.46625h1.5542c1.3509 0 1.3509 1.1477 1.3509 1.2553 0 0.96837-0.96837 2.1998-2.5465 2.1998h-1.7215l0.74122-2.9888zm2.0204 3.0844c1.3031-0.2391 2.4867-1.1477 2.4867-2.2476 0-0.9325-0.82491-1.6498-2.1758-1.6498h-3.8376c-0.22715 0-0.33474 0-0.33474 0.22715 0 0.11955 0.1076 0.11955 0.28692 0.11955 0.72926 0 0.72926 0.095641 0.72926 0.22715 0 0.023911 0 0.095642-0.047821 0.27497l-1.6139 6.4319c-0.1076 0.41843-0.13151 0.53798-0.96837 0.53798-0.22715 0-0.3467 0-0.3467 0.21519 0 0.13151 0.071731 0.13151 0.31083 0.13151h4.1006c1.8291 0 3.2399-1.3868 3.2399-2.5943 0-0.98032-0.86077-1.5781-1.8291-1.6737zm-1.6976 3.9213h-1.6139c-0.16737 0-0.19128 0-0.26301-0.011955-0.13151-0.011955-0.14346-0.035866-0.14346-0.13151 0-0.083686 0.02391-0.15542 0.04782-0.26301l0.83686-3.3714h2.2476c1.4107 0 1.4107 1.3151 1.4107 1.4107 0 1.1477-1.0401 2.3671-2.5225 2.3671z"/><path id="STe_b" d="m8.9305-8.3088c0-0.1076-0.083687-0.1076-0.1076-0.1076s-0.071731 0-0.16737 0.11955l-0.82491 1.0042c-0.41843-0.71731-1.076-1.1238-1.9726-1.1238-2.5823 0-5.2603 2.6182-5.2603 5.4276 0 1.9965 1.3988 3.2399 3.1442 3.2399 0.95641 0 1.7933-0.40648 2.4867-0.99228 1.0401-0.87273 1.3509-2.0324 1.3509-2.128 0-0.1076-0.095642-0.1076-0.13151-0.1076-0.1076 0-0.11955 0.071731-0.14346 0.11955-0.54994 1.865-2.1639 2.7616-3.3594 2.7616-1.2672 0-2.3671-0.81295-2.3671-2.5106 0-0.38256 0.11955-2.4628 1.4705-4.0289 0.65753-0.76513 1.7813-1.4346 2.9171-1.4346 1.3151 0 1.9009 1.0879 1.9009 2.3073 0 0.31083-0.035866 0.57385-0.035866 0.62167 0 0.1076 0.11955 0.1076 0.15542 0.1076 0.13151 0 0.14346-0.011955 0.19128-0.22715l0.75318-3.0486z"/><path id="STe_a" d="m1.877-0.88468c-0.1076 0.41843-0.13151 0.53798-0.96837 0.53798-0.22715 0-0.3467 0-0.3467 0.21519 0 0.13151 0.071731 0.13151 0.31083 0.13151h3.7898c2.4149 0 4.7701-2.4986 4.7701-5.1646 0-1.7215-1.0281-3.0007-2.7377-3.0007h-3.8376c-0.22715 0-0.33474 0-0.33474 0.22715 0 0.11955 0.1076 0.11955 0.28692 0.11955 0.72926 0 0.72926 0.095641 0.72926 0.22715 0 0.023911 0 0.095642-0.047821 0.27497l-1.6139 6.4319zm2.5225-6.4677c0.1076-0.44234 0.15542-0.46625 0.62167-0.46625h1.3151c1.1238 0 2.1519 0.60971 2.1519 2.2595 0 0.59776-0.2391 2.678-1.3988 3.993-0.33474 0.39452-1.2433 1.2194-2.6182 1.2194h-1.3629c-0.16737 0-0.19128 0-0.26301-0.011955-0.13151-0.011955-0.14346-0.035866-0.14346-0.13151 0-0.083686 0.02391-0.15542 0.047821-0.26301l1.6498-6.5993z"/></defs><g id="STe_i" transform="scale(1.25)"><g transform="translate(-38.369 23.08)"><use x="203.987276" y="-69.003186" xlink:href="#STe_d"/></g><g transform="translate(-38.73 23.08)"><use x="252.015315" y="-69.003186" xlink:href="#STe_c"/></g><g transform="translate(-38.598 23.08)"><use x="203.987276" y="-31.012472" xlink:href="#STe_b"/></g><g transform="translate(-39.004 23.08)"><use x="252.015315" y="-31.012472" xlink:href="#STe_a"/></g><path d="m179.74-48.914h27.719" fill="none" stroke="#000" stroke-miterlimit="10" stroke-width=".47818"/><path d="m205.22-51.781c0.45313 1.7227 1.4648 2.5352 2.4844 2.8672-1.0195 0.33594-2.0312 1.1484-2.4844 2.8711" fill="none" stroke="#000" stroke-linecap="round" stroke-linejoin="round" stroke-miterlimit="10" stroke-width=".47818"/><g transform="translate(-2.856 -22.262)"><use x="194.22311" y="-31.012472" xlink:href="#STe_h"/></g><path d="m170.01-41.348v20.191" fill="none" stroke="#000" stroke-miterlimit="10" stroke-width=".47818"/><path d="m172.88-23.402c-1.7227 0.45312-2.5352 1.4688-2.8672 2.4883-0.33594-1.0195-1.1484-2.0352-2.8711-2.4883" fill="none" stroke="#000" stroke-linecap="round" stroke-linejoin="round" stroke-miterlimit="10" stroke-width=".47818"/><g transform="translate(-31.346 .9409)"><use x="194.22311" y="-31.012472" xlink:href="#STe_g"/></g><path d="m218.04-41.348v20.191" fill="none" stroke="#000" stroke-miterlimit="10" stroke-width=".47818"/><path d="m220.9-23.402c-1.7188 0.45312-2.5312 1.4688-2.8672 2.4883-0.33594-1.0195-1.1484-2.0352-2.8711-2.4883" fill="none" stroke="#000" stroke-linecap="round" stroke-linejoin="round" stroke-miterlimit="10" stroke-width=".47818"/><g transform="translate(26.624 2.7674)"><use x="194.22311" y="-31.012472" xlink:href="#STe_f"/></g><path d="m179.97-10.922h27.219" fill="none" stroke="#000" stroke-miterlimit="10" stroke-width=".47818"/><path d="m204.94-13.789c0.45313 1.7188 1.4648 2.5352 2.4844 2.8672-1.0195 0.33594-2.0312 1.1484-2.4844 2.8711" fill="none" stroke="#000" stroke-linecap="round" stroke-linejoin="round" stroke-miterlimit="10" stroke-width=".47818"/><g transform="translate(-2.716 28.439)"><use x="194.22311" y="-31.012472" xlink:href="#STe_e"/></g></g></svg>
