<svg width="7.244em" height="1.0048em" style="vertical-align:-0.251941em" version="1.1" viewBox=".41843 -8.9664 86.28 11.967" xmlns="http://www.w3.org/2000/svg" xmlns:xlink="http://www.w3.org/1999/xlink"><defs><path id="ZrM_l" d="m7.8785-2.7497c0.20324 0 0.41843 0 0.41843-0.2391s-0.21519-0.2391-0.41843-0.2391h-6.4677c-0.20324 0-0.41843 0-0.41843 0.2391s0.21519 0.2391 0.41843 0.2391h6.4677z"/><path id="ZrM_j" d="m2.0324-1.327c-0.41843 0.70536-0.82491 0.94446-1.3988 0.98032-0.13151 0.011955-0.22715 0.011955-0.22715 0.22715 0 0.071731 0.059776 0.11955 0.14346 0.11955 0.21519 0 0.75318-0.02391 0.96837-0.02391 0.3467 0 0.72927 0.02391 1.064 0.02391 0.071731 0 0.21519 0 0.21519-0.22715 0-0.1076-0.095641-0.11955-0.16737-0.11955-0.27497-0.02391-0.50212-0.11955-0.50212-0.40648 0-0.16737 0.071731-0.29888 0.22715-0.56189l0.90859-1.5064h3.0486c0.011955 0.1076 0.011955 0.20324 0.02391 0.31084 0.035866 0.31083 0.17933 1.5542 0.17933 1.7813 0 0.35866-0.60971 0.38256-0.801 0.38256-0.13151 0-0.26301 0-0.26301 0.21519 0 0.13151 0.1076 0.13151 0.17933 0.13151 0.20324 0 0.44234-0.02391 0.64558-0.02391h0.68144c0.72926 0 1.2553 0.02391 1.2672 0.02391 0.083686 0 0.21519 0 0.21519-0.22715 0-0.11955-0.1076-0.11955-0.28692-0.11955-0.65754 0-0.66949-0.1076-0.70536-0.46625l-0.72927-7.46c-0.02391-0.2391-0.071731-0.26301-0.20324-0.26301-0.11955 0-0.19128 0.02391-0.29888 0.20324l-4.1843 7.0057zm1.4346-1.8411 2.403-4.0169 0.40648 4.0169h-2.8095z"/><path id="ZrM_i" d="m3.5985-1.4227c-0.059776 0.20324-0.059776 0.22715-0.22715 0.4543-0.26301 0.33474-0.78904 0.84882-1.3509 0.84882-0.49016 0-0.76513-0.44234-0.76513-1.1477 0-0.65753 0.37061-1.9965 0.59776-2.4986 0.40648-0.83686 0.96837-1.2672 1.4346-1.2672 0.78904 0 0.94446 0.98032 0.94446 1.076 0 0.011956-0.035866 0.16737-0.047821 0.19128l-0.5858 2.3432zm0.76513-3.0605c-0.13151-0.31083-0.4543-0.78904-1.076-0.78904-1.3509 0-2.8095 1.7455-2.8095 3.5148 0 1.1836 0.6934 1.877 1.5064 1.877 0.65753 0 1.2194-0.51407 1.5542-0.90859 0.11955 0.70536 0.68144 0.90859 1.0401 0.90859s0.64558-0.21519 0.86077-0.64558c0.19128-0.40648 0.35866-1.1357 0.35866-1.1836 0-0.059776-0.047821-0.1076-0.11955-0.1076-0.1076 0-0.11955 0.059776-0.16737 0.2391-0.17933 0.70536-0.40648 1.4585-0.89664 1.4585-0.3467 0-0.37061-0.31083-0.37061-0.54994 0-0.27497 0.035865-0.40648 0.14346-0.87273 0.083686-0.29888 0.14346-0.56189 0.2391-0.90859 0.44234-1.7933 0.54994-2.2237 0.54994-2.2954 0-0.16737-0.13151-0.29888-0.31084-0.29888-0.38256 0-0.47821 0.41843-0.50212 0.56189z"/><path id="ZrM_h" d="m2.7616-7.998c0.011955-0.047821 0.035865-0.11955 0.035865-0.17933 0-0.11955-0.11955-0.11955-0.14346-0.11955-0.011955 0-0.44234 0.035866-0.65753 0.059776-0.20324 0.011955-0.38256 0.035866-0.59776 0.047821-0.28692 0.02391-0.37061 0.035865-0.37061 0.25106 0 0.11955 0.11955 0.11955 0.2391 0.11955 0.60971 0 0.60971 0.1076 0.60971 0.22715 0 0.083686-0.095641 0.43039-0.14346 0.64558l-0.28692 1.1477c-0.11955 0.47821-0.801 3.192-0.84882 3.4072-0.059775 0.29888-0.059775 0.50212-0.059775 0.65754 0 1.2194 0.68144 1.8531 1.4585 1.8531 1.3868 0 2.8214-1.7813 2.8214-3.5148 0-1.0999-0.62167-1.877-1.5183-1.877-0.62167 0-1.1836 0.51407-1.4107 0.75318l0.87273-3.479zm-0.75318 7.8785c-0.38256 0-0.801-0.28692-0.801-1.2194 0-0.39452 0.035865-0.62167 0.25106-1.4585 0.035865-0.15542 0.22715-0.92055 0.27497-1.076 0.023911-0.095642 0.72927-1.1597 1.5422-1.1597 0.52603 0 0.76513 0.52603 0.76513 1.1477 0 0.57385-0.33474 1.9248-0.63362 2.5465-0.29888 0.64558-0.84882 1.2194-1.3988 1.2194z"/><path id="ZrM_g" d="m4.6745-4.4951c-0.22715 0-0.33474 0-0.50212 0.14346-0.071731 0.059776-0.20324 0.2391-0.20324 0.43039 0 0.2391 0.17933 0.38256 0.40648 0.38256 0.28692 0 0.60971-0.2391 0.60971-0.71731 0-0.57385-0.54994-1.0162-1.3748-1.0162-1.5661 0-3.1323 1.7096-3.1323 3.4072 0 1.0401 0.64558 1.9846 1.865 1.9846 1.6259 0 2.654-1.2672 2.654-1.4227 0-0.071731-0.071731-0.13151-0.11955-0.13151-0.035866 0-0.047821 0.011955-0.15542 0.11955-0.76513 1.0162-1.9009 1.1955-2.3552 1.1955-0.82491 0-1.0879-0.71731-1.0879-1.3151 0-0.41843 0.20324-1.5781 0.63362-2.391 0.31083-0.56189 0.95641-1.2075 1.7096-1.2075 0.15542 0 0.81295 0.023911 1.0521 0.53798z"/><path id="ZrM_k" d="m6.0134-7.998c0.011955-0.047821 0.035865-0.11955 0.035865-0.17933 0-0.11955-0.11955-0.11955-0.14346-0.11955-0.011955 0-0.59776 0.047821-0.65753 0.059776-0.20324 0.011955-0.38257 0.035866-0.59776 0.047821-0.29888 0.02391-0.38256 0.035865-0.38256 0.25106 0 0.11955 0.095641 0.11955 0.26301 0.11955 0.5858 0 0.59776 0.1076 0.59776 0.22715 0 0.071731-0.02391 0.16737-0.035865 0.20324l-0.72927 2.9051c-0.13151-0.31083-0.4543-0.78904-1.076-0.78904-1.3509 0-2.8095 1.7455-2.8095 3.5148 0 1.1836 0.6934 1.877 1.5064 1.877 0.65753 0 1.2194-0.51407 1.5542-0.90859 0.11955 0.70536 0.68144 0.90859 1.0401 0.90859s0.64558-0.21519 0.86077-0.64558c0.19128-0.40648 0.35866-1.1357 0.35866-1.1836 0-0.059776-0.047821-0.1076-0.11955-0.1076-0.1076 0-0.11955 0.059776-0.16737 0.2391-0.17933 0.70536-0.40648 1.4585-0.89664 1.4585-0.3467 0-0.37061-0.31083-0.37061-0.54994 0-0.047821 0-0.29888 0.083686-0.63362l1.6857-6.6949zm-2.4149 6.5753c-0.059776 0.20324-0.059776 0.22715-0.22715 0.4543-0.26301 0.33474-0.78904 0.84882-1.3509 0.84882-0.49016 0-0.76513-0.44234-0.76513-1.1477 0-0.65753 0.37061-1.9965 0.59776-2.4986 0.40648-0.83686 0.96837-1.2672 1.4346-1.2672 0.78904 0 0.94446 0.98032 0.94446 1.076 0 0.011956-0.035866 0.16737-0.047821 0.19128l-0.5858 2.3432z"/><path id="ZrM_c" d="m3.8854 2.9051c0-0.035866 0-0.059776-0.20324-0.26301-1.1955-1.2075-1.865-3.1801-1.865-5.6189 0-2.3193 0.56189-4.3158 1.9487-5.7265 0.11955-0.1076 0.11955-0.13151 0.11955-0.16737 0-0.071731-0.059776-0.095641-0.1076-0.095641-0.15542 0-1.1357 0.86077-1.7215 2.0324-0.60971 1.2075-0.88468 2.4867-0.88468 3.9572 0 1.064 0.16737 2.4867 0.78904 3.7659 0.70535 1.4346 1.6857 2.2117 1.8172 2.2117 0.047821 0 0.1076-0.02391 0.1076-0.095641z"/><path id="ZrM_b" d="m3.3714-2.9768c0-0.90859-0.11955-2.391-0.78904-3.7778-0.70536-1.4346-1.6857-2.2117-1.8172-2.2117-0.047821 0-0.1076 0.02391-0.1076 0.095641 0 0.035866 0 0.059776 0.20324 0.26301 1.1955 1.2075 1.865 3.1801 1.865 5.6189 0 2.3193-0.56189 4.3158-1.9487 5.7265-0.11955 0.1076-0.11955 0.13151-0.11955 0.16737 0 0.071731 0.059776 0.095641 0.1076 0.095641 0.15542 0 1.1357-0.86077 1.7215-2.0324 0.60971-1.2194 0.88468-2.5106 0.88468-3.9452z"/><path id="ZrM_a" d="m8.0697-3.8735c0.16737 0 0.38257 0 0.38257-0.21519 0-0.22715-0.20324-0.22715-0.38257-0.22715h-7.0416c-0.16737 0-0.38256 0-0.38256 0.21519 0 0.22715 0.20324 0.22715 0.38256 0.22715h7.0416zm0 2.2237c0.16737 0 0.38257 0 0.38257-0.21519 0-0.22715-0.20324-0.22715-0.38257-0.22715h-7.0416c-0.16737 0-0.38256 0-0.38256 0.21519 0 0.22715 0.20324 0.22715 0.38256 0.22715h7.0416z"/><path id="ZrM_f" d="m3.5866-8.1654v0.3467c0.81295 0 0.90859 0.083686 0.90859 0.66949v2.6421c-0.25106-0.3467-0.76513-0.76513-1.4944-0.76513-1.3868 0-2.5823 1.1716-2.5823 2.7019 0 1.5183 1.1357 2.6899 2.4508 2.6899 0.90859 0 1.4346-0.59776 1.602-0.82491v0.82491l1.6857-0.11955v-0.3467c-0.81295 0-0.90859-0.083686-0.90859-0.66949v-7.2807l-1.6618 0.13151zm0.88468 6.7666c0 0.21519 0 0.25106-0.16737 0.51407-0.28692 0.41843-0.77709 0.76513-1.3748 0.76513-0.31083 0-1.602-0.11955-1.602-2.4389 0-0.86077 0.14346-1.339 0.40648-1.7335 0.2391-0.37061 0.71731-0.74122 1.3151-0.74122 0.74122 0 1.1597 0.53798 1.2792 0.72926 0.14346 0.20324 0.14346 0.22715 0.14346 0.44234v2.4628z"/><path id="ZrM_e" d="m4.5788-2.7736c0.26301 0 0.28692 0 0.28692-0.22715 0-1.2075-0.64558-2.3313-2.0922-2.3313-1.3629 0-2.4149 1.2314-2.4149 2.7138 0 1.5781 1.2194 2.7377 2.5465 2.7377 1.4227 0 1.9606-1.2912 1.9606-1.5422 0-0.071731-0.059775-0.11955-0.13151-0.11955-0.095642 0-0.11955 0.059776-0.14346 0.11955-0.31084 1.0042-1.1118 1.2792-1.6139 1.2792s-1.7096-0.33474-1.7096-2.403v-0.22715h3.3116zm-3.2996-0.22715c0.095641-1.877 1.1477-2.0922 1.4824-2.0922 1.2792 0 1.3509 1.6857 1.3629 2.0922h-2.8453z"/><path id="ZrM_d" d="m2.0085-4.806h1.6857v-0.3467h-1.6857v-2.1998h-0.26301c-0.011956 1.1238-0.44234 2.2715-1.5303 2.3073v0.2391h1.0162v3.3235c0 1.327 0.88468 1.602 1.5183 1.602 0.75318 0 1.1477-0.74122 1.1477-1.602v-0.68144h-0.26301v0.65753c0 0.86077-0.3467 1.3629-0.81295 1.3629-0.81295 0-0.81295-1.1118-0.81295-1.3151v-3.3474z"/></defs><g id="ZrM_m"><use xlink:href="#ZrM_f"/><use x="6.503323" xlink:href="#ZrM_e"/><use x="11.705981" xlink:href="#ZrM_d"/><use x="16.258306" xlink:href="#ZrM_c"/><use x="20.810632" xlink:href="#ZrM_j"/><use x="29.585979" xlink:href="#ZrM_b"/><use x="37.459134" xlink:href="#ZrM_a"/><use x="49.884615" xlink:href="#ZrM_i"/><use x="56.029559" xlink:href="#ZrM_k"/><use x="64.768915" xlink:href="#ZrM_l"/><use x="76.724076" xlink:href="#ZrM_h"/><use x="81.701181" xlink:href="#ZrM_g"/></g></svg>
