<svg width="21.007em" height="6.2061em" style="vertical-align:-0.000000em" version="1.1" viewBox="117.73 -77.039 250.21 73.918" xmlns="http://www.w3.org/2000/svg" xmlns:xlink="http://www.w3.org/1999/xlink"><defs><path id="JBp_h" d="m1.877-2.8095c0.041843-0.089663 0.053799-0.15542 0.053799-0.19128 0-0.1853-0.16737-0.34072-0.36463-0.34072-0.2391 0-0.31083 0.20922-0.33474 0.2929l-0.83686 2.5584c-0.011956 0.035866-0.029888 0.083686-0.029888 0.1076 0 0.10162 0.2391 0.14944 0.24508 0.14944 0.053798 0 0.077708-0.053798 0.10162-0.10162l1.1656-2.4747z"/><path id="JBp_k" d="m4.0648-1.1158c0.74122-0.81295 1.0042-1.8491 1.0042-1.9128 0-0.071731-0.04782-0.10361-0.11955-0.10361-0.10361 0-0.11158 0.03188-0.1594 0.19925-0.22316 0.81295-0.70137 1.4346-0.72528 1.4346-0.01594 0-0.01594-0.19925-0.01594-0.32678-0.01594-1.4027-0.92453-1.6897-1.4665-1.6897-1.1238 0-2.2316 1.0919-2.2316 2.2157 0 0.78904 0.54994 1.3788 1.3948 1.3788 0.55791 0 1.1477-0.19925 1.7773-0.66949 0.17534 0.62964 0.63761 0.66949 0.78107 0.66949 0.4543 0 0.71731-0.40648 0.71731-0.55791 0-0.095641-0.095642-0.095641-0.11955-0.095641-0.087671 0-0.10361 0.02391-0.12752 0.079701-0.12752 0.33474-0.3985 0.35068-0.43836 0.35068-0.11158 0-0.2391 0-0.27098-0.97235zm-0.59776 0.26301c-0.56588 0.51009-1.2354 0.70934-1.6976 0.70934-0.41445 0-0.7731-0.2391-0.7731-0.87671 0-0.27895 0.12752-1.0999 0.50212-1.6339 0.3188-0.44633 0.74919-0.63761 1.076-0.63761 0.43836 0 0.68543 0.31083 0.78904 0.79701 0.11955 0.54197 0.055791 1.1796 0.10361 1.6418z"/><path id="JBp_j" d="m4.7821-4.535c0-0.72528-0.58979-1.0839-1.2513-1.0839-1.0281 0-1.7933 1.1636-2.0164 2.0403l-1.2593 5.0291c-0.015941 0.055791 0.04782 0.095642 0.095641 0.095642 0.063761 0 0.12752 0 0.14346-0.055791l0.54197-2.136c0.18331 0.43039 0.55791 0.71731 1.1318 0.71731 1.0999 0 2.3034-0.78107 2.3034-2.0483 0-0.52603-0.19925-0.87671-0.59776-1.2035 0.047821-0.00797 0.19128-0.11158 0.23113-0.14346 0.3985-0.27098 0.67746-0.72528 0.67746-1.2115zm-1.5701 1.3549c-0.14346 0.023911-0.28692 0.039851-0.43836 0.039851-0.087671 0-0.17534 0-0.26301-0.031881 0.15143-0.03985 0.31084-0.03985 0.46227-0.03985 0.079701 0 0.1594 0.00797 0.2391 0.03188zm1.068-1.5064c0 0.39851-0.17534 0.86874-0.4543 1.1477-0.039851 0.039851-0.20722 0.19128-0.25504 0.19925-0.22316-0.039851-0.3985-0.095641-0.62964-0.095641-0.20722 0-0.70934-0.015941-0.70934 0.29489 0 0.2391 0.4543 0.22316 0.6137 0.22316 0.24707 0 0.47821-0.02391 0.70934-0.11158 0.2391 0.19128 0.35866 0.44633 0.35866 0.84483 0 0.47024-0.1594 0.99626-0.39054 1.3151-0.2949 0.42242-0.78904 0.71731-1.3868 0.71731-0.52603 0-0.94047-0.40648-0.94047-0.96438 0-0.10361 0.00797-0.20722 0.03188-0.28692l0.52603-2.12c0.17534-0.70137 0.8528-1.873 1.7455-1.873 0.40648 0 0.78107 0.19925 0.78107 0.70934z"/><path id="JBp_i" d="m3.2677-1.2832c-0.095641-0.98032-0.49415-1.6259-0.50212-1.6339-0.17534-0.27098-0.47024-0.59776-0.99626-0.59776-1.0361 0-1.6259 1.1557-1.6259 1.4346 0 0.071731 0.063761 0.095641 0.11955 0.095641 0.079701 0 0.10361-0.02391 0.12752-0.087671 0.2391-0.71731 1.0281-0.82092 1.2672-0.82092 1.2832 0 1.3788 1.3868 1.3788 2.0563 0 0.43836-0.023911 0.51009-0.079701 0.6934-0.17534 0.56588-0.41445 1.4506-0.41445 1.6817 0 0.01594 0.00797 0.17534 0.13549 0.17534 0.087671 0 0.1594-0.11955 0.22316-0.3188 0.23113-0.74122 0.30286-1.2672 0.35068-1.6259 0.02391-0.16737 0.47024-1.4984 1.2115-2.8932 0.095641-0.17534 0.095641-0.19128 0.095641-0.21519 0-0.00797 0-0.095641-0.11955-0.095641-0.03188 0-0.06376 0.00797-0.087671 0.03188-0.03188 0.02391-0.66152 1.1955-1.06 2.2954l-0.02391-0.17534z"/><path id="JBp_g" d="m3.0526-3.1721h0.74122c0.1594 0 0.25504 0 0.25504-0.15143 0-0.11158-0.10361-0.11158-0.2391-0.11158h-0.70934c0.12752-0.71731 0.20722-1.1716 0.28692-1.5303 0.03188-0.13549 0.05579-0.22316 0.17534-0.3188 0.10361-0.087672 0.16737-0.10361 0.25504-0.10361 0.11955 0 0.24707 0.023911 0.35068 0.087671-0.039851 0.015941-0.087672 0.039851-0.12752 0.063761-0.13549 0.071731-0.23113 0.21519-0.23113 0.3746 0 0.18331 0.14346 0.29489 0.3188 0.29489 0.23113 0 0.44633-0.19925 0.44633-0.47821 0-0.3746-0.38256-0.56588-0.76513-0.56588-0.27098 0-0.7731 0.12752-1.0281 0.86077-0.071731 0.18331-0.071731 0.19925-0.28692 1.3151h-0.59776c-0.1594 0-0.25504 0-0.25504 0.15143 0 0.11158 0.10361 0.11158 0.2391 0.11158h0.56588l-0.57385 3.0924c-0.15143 0.80498-0.27098 1.4824-0.6934 1.4824-0.023911 0-0.19128 0-0.34272-0.095642 0.36662-0.087671 0.36662-0.42242 0.36662-0.43039 0-0.18331-0.14346-0.29489-0.3188-0.29489-0.21519 0-0.44633 0.18331-0.44633 0.48618 0 0.33474 0.34272 0.55791 0.74122 0.55791 0.48618 0 0.82092-0.51009 0.92453-0.70934 0.28692-0.52603 0.47024-1.5223 0.48618-1.602l0.46227-2.4867z"/><path id="JBp_f" d="m3.9532-2.941c0.03188-0.11955 0.03188-0.16737 0.03188-0.17534 0-0.18331-0.15143-0.24707-0.25504-0.24707-0.18331 0-0.32677 0.14346-0.35866 0.31083-0.06376-0.11955-0.30286-0.46227-0.78107-0.46227-0.94844 0-1.9846 1.06-1.9846 2.2237 0 0.86077 0.56588 1.2912 1.1557 1.2912 0.36662 0 0.6934-0.19925 0.95641-0.43039l-0.17534 0.71731c-0.087671 0.33474-0.14346 0.56588-0.4543 0.82889-0.33474 0.28692-0.63761 0.28692-0.83686 0.28692s-0.39054-0.00797-0.58182-0.047821c0.17534-0.095641 0.25504-0.26301 0.25504-0.39851 0-0.19128-0.14346-0.29489-0.31083-0.29489-0.19925 0-0.44633 0.1594-0.44633 0.47821 0 0.4543 0.62167 0.48618 1.0999 0.48618 1.1318 0 1.6976-0.60573 1.8172-1.0919l0.86874-3.475zm-1.076 1.8889c-0.05579 0.22316-0.23113 0.38257-0.3985 0.534-0.071731 0.05579-0.3746 0.29489-0.70137 0.29489-0.3188 0-0.54994-0.26301-0.54994-0.74122 0-0.33474 0.19925-1.2035 0.41445-1.61 0.25504-0.4543 0.62964-0.71731 0.94844-0.71731 0.534 0 0.67746 0.58979 0.67746 0.66152l-0.02391 0.11158-0.36663 1.4665z"/><path id="JBp_a" d="m2.1121-3.7778c0.03985-0.10361 0.071731-0.1594 0.071731-0.2391 0-0.26301-0.2391-0.43836-0.46227-0.43836-0.3188 0-0.40648 0.27895-0.43836 0.39054l-1.0122 3.4351c-0.031881 0.095641-0.031881 0.11955-0.031881 0.12752 0 0.071731 0.047821 0.087671 0.12752 0.11158 0.14346 0.06376 0.1594 0.06376 0.17534 0.06376 0.02391 0 0.071731 0 0.12752-0.13549l1.4426-3.3156z"/><path id="JBp_b" d="m5.3559-3.8257c0-0.99228-0.059776-1.9606-0.49016-2.8692-0.49016-0.99228-1.3509-1.2553-1.9367-1.2553-0.6934 0-1.5422 0.3467-1.9846 1.339-0.33474 0.75318-0.4543 1.4944-0.4543 2.7856 0 1.1597 0.083686 2.0324 0.51407 2.8812 0.46625 0.90859 1.2912 1.1955 1.9128 1.1955 1.0401 0 1.6379-0.62167 1.9846-1.3151 0.43039-0.89664 0.4543-2.0682 0.4543-2.7616zm-2.4389 3.8376c-0.38256 0-1.1597-0.21519-1.3868-1.5183-0.13151-0.71731-0.13151-1.6259-0.13151-2.4628 0-0.98032 0-1.865 0.19128-2.5704 0.20324-0.801 0.81295-1.1716 1.327-1.1716 0.4543 0 1.1477 0.27497 1.3748 1.3031 0.15542 0.68144 0.15542 1.6259 0.15542 2.4389 0 0.801 0 1.7096-0.13151 2.4389-0.22715 1.3151-0.98032 1.5422-1.3988 1.5422z"/><path id="JBp_e" d="m2.0324-1.327c-0.41843 0.70536-0.82491 0.94446-1.3988 0.98032-0.13151 0.011955-0.22715 0.011955-0.22715 0.22715 0 0.071731 0.059776 0.11955 0.14346 0.11955 0.21519 0 0.75318-0.02391 0.96837-0.02391 0.3467 0 0.72927 0.02391 1.064 0.02391 0.071731 0 0.21519 0 0.21519-0.22715 0-0.1076-0.095641-0.11955-0.16737-0.11955-0.27497-0.02391-0.50212-0.11955-0.50212-0.40648 0-0.16737 0.071731-0.29888 0.22715-0.56189l0.90859-1.5064h3.0486c0.011955 0.1076 0.011955 0.20324 0.02391 0.31084 0.035866 0.31083 0.17933 1.5542 0.17933 1.7813 0 0.35866-0.60971 0.38256-0.801 0.38256-0.13151 0-0.26301 0-0.26301 0.21519 0 0.13151 0.1076 0.13151 0.17933 0.13151 0.20324 0 0.44234-0.02391 0.64558-0.02391h0.68144c0.72926 0 1.2553 0.02391 1.2672 0.02391 0.083686 0 0.21519 0 0.21519-0.22715 0-0.11955-0.1076-0.11955-0.28692-0.11955-0.65754 0-0.66949-0.1076-0.70536-0.46625l-0.72927-7.46c-0.02391-0.2391-0.071731-0.26301-0.20324-0.26301-0.11955 0-0.19128 0.02391-0.29888 0.20324l-4.1843 7.0057zm1.4346-1.8411 2.403-4.0169 0.40648 4.0169h-2.8095z"/><path id="JBp_d" d="m4.3756-7.3524c0.1076-0.44234 0.15542-0.46625 0.62167-0.46625h1.5542c1.3509 0 1.3509 1.1477 1.3509 1.2553 0 0.96837-0.96837 2.1998-2.5465 2.1998h-1.7215l0.74122-2.9888zm2.0204 3.0844c1.3031-0.2391 2.4867-1.1477 2.4867-2.2476 0-0.9325-0.82491-1.6498-2.1758-1.6498h-3.8376c-0.22715 0-0.33474 0-0.33474 0.22715 0 0.11955 0.1076 0.11955 0.28692 0.11955 0.72926 0 0.72926 0.095641 0.72926 0.22715 0 0.023911 0 0.095642-0.047821 0.27497l-1.6139 6.4319c-0.1076 0.41843-0.13151 0.53798-0.96837 0.53798-0.22715 0-0.3467 0-0.3467 0.21519 0 0.13151 0.071731 0.13151 0.31083 0.13151h4.1006c1.8291 0 3.2399-1.3868 3.2399-2.5943 0-0.98032-0.86077-1.5781-1.8291-1.6737zm-1.6976 3.9213h-1.6139c-0.16737 0-0.19128 0-0.26301-0.011955-0.13151-0.011955-0.14346-0.035866-0.14346-0.13151 0-0.083686 0.02391-0.15542 0.04782-0.26301l0.83686-3.3714h2.2476c1.4107 0 1.4107 1.3151 1.4107 1.4107 0 1.1477-1.0401 2.3671-2.5225 2.3671z"/><path id="JBp_c" d="m8.9305-8.3088c0-0.1076-0.083687-0.1076-0.1076-0.1076s-0.071731 0-0.16737 0.11955l-0.82491 1.0042c-0.41843-0.71731-1.076-1.1238-1.9726-1.1238-2.5823 0-5.2603 2.6182-5.2603 5.4276 0 1.9965 1.3988 3.2399 3.1442 3.2399 0.95641 0 1.7933-0.40648 2.4867-0.99228 1.0401-0.87273 1.3509-2.0324 1.3509-2.128 0-0.1076-0.095642-0.1076-0.13151-0.1076-0.1076 0-0.11955 0.071731-0.14346 0.11955-0.54994 1.865-2.1639 2.7616-3.3594 2.7616-1.2672 0-2.3671-0.81295-2.3671-2.5106 0-0.38256 0.11955-2.4628 1.4705-4.0289 0.65753-0.76513 1.7813-1.4346 2.9171-1.4346 1.3151 0 1.9009 1.0879 1.9009 2.3073 0 0.31083-0.035866 0.57385-0.035866 0.62167 0 0.1076 0.11955 0.1076 0.15542 0.1076 0.13151 0 0.14346-0.011955 0.19128-0.22715l0.75318-3.0486z"/></defs><g id="JBp_l" transform="scale(1.25)"><g transform="translate(-110.11 23.379)"><use x="249.446062" y="-72.047221" xlink:href="#JBp_e"/></g><g transform="translate(-110.47 23.379)"><use x="299.765938" y="-72.047221" xlink:href="#JBp_d"/></g><g transform="translate(-110.34 23.379)"><use x="350.314951" y="-72.047221" xlink:href="#JBp_c"/></g><g transform="translate(-108.65 23.379)"><use x="397.644803" y="-72.047221" xlink:href="#JBp_b"/></g><g transform="translate(-108.65 23.379)"><use x="202.345346" y="-33.459564" xlink:href="#JBp_b"/></g><g transform="translate(-111.51 23.379)"><use x="249.446062" y="-33.459564" xlink:href="#JBp_e"/><use x="258.221409" y="-37.798001" xlink:href="#JBp_a"/></g><g transform="translate(-111.87 23.379)"><use x="299.765938" y="-33.459564" xlink:href="#JBp_d"/><use x="309.262199" y="-37.798001" xlink:href="#JBp_a"/></g><g transform="translate(-111.74 23.379)"><use x="350.314951" y="-33.459564" xlink:href="#JBp_c"/><use x="359.548563" y="-37.798001" xlink:href="#JBp_a"/></g><path d="m153.46-51.656h30.012" fill="none" stroke="#000" stroke-miterlimit="10" stroke-width=".47818"/><path d="m181.22-54.527c0.45312 1.7227 1.4648 2.5352 2.4844 2.8711-1.0195 0.33203-2.0312 1.1445-2.4844 2.8672" fill="none" stroke="#000" stroke-linecap="round" stroke-linejoin="round" stroke-miterlimit="10" stroke-width=".47818"/><g transform="translate(-28.043 -22.561)"><use x="194.271482" y="-33.459564" xlink:href="#JBp_g"/></g><path d="m143.72-44.094v20.195" fill="none" stroke="#000" stroke-miterlimit="10" stroke-width=".47818"/><path d="m146.59-26.148c-1.7227 0.45703-2.5352 1.4688-2.8672 2.4883-0.33594-1.0195-1.1484-2.0313-2.8711-2.4883" fill="none" stroke="#000" stroke-linecap="round" stroke-linejoin="round" stroke-miterlimit="10" stroke-width=".47818"/><g transform="translate(-47.737 1.4173)"><use x="194.271482" y="-33.459564" xlink:href="#JBp_k"/></g><path d="m204.14-51.656h30.012" fill="none" stroke="#000" stroke-miterlimit="10" stroke-width=".47818"/><path d="m231.9-54.527c0.45313 1.7227 1.4648 2.5352 2.4883 2.8711-1.0234 0.33203-2.0352 1.1445-2.4883 2.8672" fill="none" stroke="#000" stroke-linecap="round" stroke-linejoin="round" stroke-miterlimit="10" stroke-width=".47818"/><g transform="translate(22.953 -22.561)"><use x="194.271482" y="-33.459564" xlink:href="#JBp_f"/></g><path d="m194.04-44.094v20.195" fill="none" stroke="#000" stroke-miterlimit="10" stroke-width=".47818"/><path d="m196.91-26.148c-1.7188 0.45703-2.5352 1.4688-2.8672 2.4883-0.33594-1.0195-1.1484-2.0313-2.8711-2.4883" fill="none" stroke="#000" stroke-linecap="round" stroke-linejoin="round" stroke-miterlimit="10" stroke-width=".47818"/><g transform="translate(2.584 1.6941)"><use x="194.271482" y="-33.459564" xlink:href="#JBp_j"/></g><path d="m254.55-51.656h28.617" fill="none" stroke="#000" stroke-miterlimit="10" stroke-width=".47818"/><path d="m280.92-54.527c0.45703 1.7227 1.4688 2.5352 2.4883 2.8711-1.0195 0.33203-2.0312 1.1445-2.4883 2.8672" fill="none" stroke="#000" stroke-linecap="round" stroke-linejoin="round" stroke-miterlimit="10" stroke-width=".47818"/><path d="m244.59-44.094v20.195" fill="none" stroke="#000" stroke-miterlimit="10" stroke-width=".47818"/><path d="m247.46-26.148c-1.7227 0.45703-2.5352 1.4688-2.8711 2.4883-0.33203-1.0195-1.1445-2.0313-2.8672-2.4883" fill="none" stroke="#000" stroke-linecap="round" stroke-linejoin="round" stroke-miterlimit="10" stroke-width=".47818"/><g transform="translate(53.133 .6424)"><use x="194.271482" y="-33.459564" xlink:href="#JBp_i"/></g><path d="m104.89-13.07h27.215" fill="none" stroke="#000" stroke-miterlimit="10" stroke-width=".47818"/><path d="m129.86-15.937c0.45313 1.7188 1.4688 2.5312 2.4883 2.8672-1.0195 0.33594-2.0352 1.1484-2.4883 2.8711" fill="none" stroke="#000" stroke-linecap="round" stroke-linejoin="round" stroke-miterlimit="10" stroke-width=".47818"/><path d="m154.85-13.07h27.219" fill="none" stroke="#000" stroke-miterlimit="10" stroke-width=".47818"/><path d="m179.82-15.937c0.45313 1.7188 1.4648 2.5312 2.4844 2.8672-1.0195 0.33594-2.0312 1.1484-2.4844 2.8711" fill="none" stroke="#000" stroke-linecap="round" stroke-linejoin="round" stroke-miterlimit="10" stroke-width=".47818"/><g transform="translate(-29.385 29.337)"><use x="194.271482" y="-33.459564" xlink:href="#JBp_g"/><use x="199.218248" y="-36.27235" xlink:href="#JBp_h"/></g><path d="m205.54-13.07h27.219" fill="none" stroke="#000" stroke-miterlimit="10" stroke-width=".47818"/><path d="m230.5-15.937c0.45704 1.7188 1.4688 2.5312 2.4883 2.8672-1.0195 0.33594-2.0312 1.1484-2.4883 2.8711" fill="none" stroke="#000" stroke-linecap="round" stroke-linejoin="round" stroke-miterlimit="10" stroke-width=".47818"/><g transform="translate(21.611 29.337)"><use x="194.271482" y="-33.459564" xlink:href="#JBp_f"/><use x="198.587298" y="-36.27235" xlink:href="#JBp_h"/></g></g></svg>
