<svg width="5.3338em" height=".9114em" style="vertical-align:-0.204765em" version="1.1" viewBox=".65753 -8.4164 63.528 10.855" xmlns="http://www.w3.org/2000/svg" xmlns:xlink="http://www.w3.org/1999/xlink"><defs><path id="lzI_b" d="m8.0697-3.8735c0.16737 0 0.38257 0 0.38257-0.21519 0-0.22715-0.20324-0.22715-0.38257-0.22715h-7.0416c-0.16737 0-0.38256 0-0.38256 0.21519 0 0.22715 0.20324 0.22715 0.38256 0.22715h7.0416zm0 2.2237c0.16737 0 0.38257 0 0.38257-0.21519 0-0.22715-0.20324-0.22715-0.38257-0.22715h-7.0416c-0.16737 0-0.38256 0-0.38256 0.21519 0 0.22715 0.20324 0.22715 0.38256 0.22715h7.0416z"/><path id="lzI_a" d="m5.3081-2.9888c0-1.2792-1.064-2.3193-2.3193-2.3193-1.2912 0-2.3313 1.064-2.3313 2.3193 0 1.2672 1.0401 2.3193 2.3313 2.3193 1.2553 0 2.3193-1.0401 2.3193-2.3193zm-2.3193 1.8411c-1.0401 0-1.8531-0.83686-1.8531-1.8411s0.82491-1.8411 1.8531-1.8411c0.99228 0 1.8411 0.81295 1.8411 1.8411s-0.84882 1.8411-1.8411 1.8411z"/><path id="lzI_f" d="m5.332-4.806c0.2391 0 0.33474 0 0.33474-0.22715 0-0.11955-0.095642-0.11955-0.31084-0.11955h-0.96837c0.22715-1.2314 0.39452-2.0802 0.49016-2.4628 0.071731-0.28692 0.32279-0.56189 0.63362-0.56189 0.25106 0 0.50212 0.1076 0.62167 0.21519-0.46625 0.047821-0.60971 0.39452-0.60971 0.59776 0 0.2391 0.17933 0.38257 0.40648 0.38257 0.2391 0 0.59776-0.20324 0.59776-0.65753 0-0.50212-0.50212-0.77709-1.0281-0.77709-0.51407 0-1.0162 0.38256-1.2553 0.84882-0.21519 0.41843-0.33474 0.84882-0.60971 2.4149h-0.801c-0.22715 0-0.3467 0-0.3467 0.21519 0 0.13151 0.071731 0.13151 0.31083 0.13151h0.76513c-0.21519 1.1118-0.70536 3.8137-0.98032 5.0929-0.20324 1.0401-0.38256 1.9128-0.98032 1.9128-0.035866 0-0.38257 0-0.59776-0.22715 0.60971-0.047821 0.60971-0.57385 0.60971-0.5858 0-0.2391-0.17933-0.38257-0.40648-0.38257-0.2391 0-0.59776 0.20324-0.59776 0.65753 0 0.51407 0.52603 0.77709 0.99228 0.77709 1.2194 0 1.7215-2.1878 1.8531-2.7856 0.21519-0.92055 0.801-4.1006 0.86077-4.4593h1.0162z"/><path id="lzI_e" d="m4.0408-1.5183c-0.047821 0.19128-0.071731 0.2391-0.22715 0.41843-0.49016 0.63362-0.99228 0.86077-1.3629 0.86077-0.39452 0-0.76513-0.31084-0.76513-1.1357 0-0.63362 0.35866-1.9726 0.62167-2.5106 0.3467-0.66949 0.88468-1.1477 1.3868-1.1477 0.78904 0 0.94446 0.98032 0.94446 1.0521l-0.035865 0.16737-0.56189 2.2954zm0.74122-2.9649c-0.15542-0.3467-0.49016-0.78904-1.0879-0.78904-1.3031 0-2.7856 1.6379-2.7856 3.4192 0 1.2433 0.75318 1.8531 1.5183 1.8531 0.63362 0 1.1955-0.50212 1.4107-0.74122l-0.26301 1.076c-0.16737 0.65753-0.2391 0.95641-0.66949 1.3748-0.49016 0.49016-0.94446 0.49016-1.2075 0.49016-0.35866 0-0.65753-0.02391-0.95641-0.11955 0.38257-0.1076 0.47821-0.44234 0.47821-0.57385 0-0.19128-0.14346-0.38256-0.40648-0.38256-0.28692 0-0.59776 0.2391-0.59776 0.63362 0 0.49016 0.49016 0.68144 1.5064 0.68144 1.5422 0 2.3432-0.99228 2.4986-1.6379l1.327-5.3559c0.035866-0.14346 0.035866-0.16737 0.035866-0.19128 0-0.16737-0.13151-0.29888-0.31084-0.29888-0.28692 0-0.4543 0.2391-0.49016 0.56189z"/><path id="lzI_d" d="m3.3594-7.998c0.011955-0.047821 0.035866-0.11955 0.035866-0.17933 0-0.11955-0.11955-0.11955-0.14346-0.11955-0.011955 0-0.59776 0.047821-0.65754 0.059776-0.20324 0.011955-0.38256 0.035866-0.59776 0.047821-0.29888 0.02391-0.38256 0.035865-0.38256 0.25106 0 0.11955 0.095641 0.11955 0.26301 0.11955 0.5858 0 0.59776 0.1076 0.59776 0.22715 0 0.071731-0.023911 0.16737-0.035866 0.20324l-1.7335 6.922c-0.047821 0.17933-0.047821 0.20324-0.047821 0.27497 0 0.26301 0.20324 0.31084 0.32279 0.31084 0.20324 0 0.35866-0.15542 0.41843-0.28692l0.53798-2.1639c0.059776-0.26301 0.13151-0.51407 0.19128-0.77709 0.13151-0.50212 0.13151-0.51407 0.35866-0.86077s0.76513-1.064 1.6857-1.064c0.47821 0 0.64558 0.35866 0.64558 0.83686 0 0.66949-0.46625 1.9726-0.72927 2.6899-0.1076 0.28692-0.16737 0.44234-0.16737 0.65753 0 0.53798 0.37061 0.96837 0.94446 0.96837 1.1118 0 1.5303-1.7574 1.5303-1.8291 0-0.059776-0.047821-0.1076-0.11955-0.1076-0.1076 0-0.11955 0.035866-0.17933 0.2391-0.27497 0.95641-0.71731 1.4585-1.1955 1.4585-0.11955 0-0.31083-0.011955-0.31083-0.39452 0-0.31084 0.14346-0.6934 0.19128-0.82491 0.21519-0.57385 0.75318-1.9846 0.75318-2.678 0-0.71731-0.41843-1.2553-1.327-1.2553-0.68144 0-1.2792 0.32279-1.7694 0.94446l0.92055-3.6702z"/><path id="lzI_c" d="m3.3594-7.998c0.011955-0.047821 0.035866-0.11955 0.035866-0.17933 0-0.11955-0.11955-0.11955-0.14346-0.11955-0.011955 0-0.44234 0.035866-0.65754 0.059776-0.20324 0.011955-0.38256 0.035866-0.59776 0.047821-0.28692 0.02391-0.37061 0.035865-0.37061 0.25106 0 0.11955 0.11955 0.11955 0.2391 0.11955 0.60971 0 0.60971 0.1076 0.60971 0.22715 0 0.047821 0 0.071731-0.059776 0.28692l-1.7096 6.8384c-0.047821 0.17933-0.047821 0.20324-0.047821 0.27497 0 0.26301 0.20324 0.31084 0.32279 0.31084 0.33474 0 0.40648-0.26301 0.50212-0.63362l0.56189-2.2356c0.86077 0.095642 1.3748 0.4543 1.3748 1.0281 0 0.071731 0 0.11955-0.035865 0.29888-0.047821 0.17933-0.047821 0.32279-0.047821 0.38256 0 0.6934 0.4543 1.1597 1.064 1.1597 0.54994 0 0.83686-0.50212 0.9325-0.66949 0.25106-0.44234 0.40648-1.1118 0.40648-1.1597 0-0.059776-0.047821-0.1076-0.11955-0.1076-0.1076 0-0.11955 0.047821-0.16737 0.2391-0.16737 0.62167-0.41843 1.4585-1.0281 1.4585-0.2391 0-0.39452-0.11955-0.39452-0.57385 0-0.22715 0.04782-0.49016 0.095641-0.66949 0.047821-0.21519 0.047821-0.22715 0.047821-0.37061 0-0.70536-0.63362-1.0999-1.7335-1.2433 0.43039-0.26301 0.86077-0.72926 1.0281-0.90859 0.68144-0.76513 1.1477-1.1477 1.6976-1.1477 0.27497 0 0.3467 0.071731 0.43039 0.14346-0.44234 0.047821-0.60971 0.35866-0.60971 0.59776 0 0.28692 0.22715 0.38256 0.39452 0.38256 0.32279 0 0.60971-0.27497 0.60971-0.65753 0-0.3467-0.27497-0.70536-0.81295-0.70536-0.65753 0-1.1955 0.46625-2.0443 1.4227-0.11955 0.14346-0.56189 0.59776-1.0042 0.76513l1.2314-4.9136z"/></defs><g id="lzI_g"><use xlink:href="#lzI_d"/><use x="9.395218" xlink:href="#lzI_a"/><use x="18.029489" xlink:href="#lzI_f"/><use x="28.396755" xlink:href="#lzI_b"/><use x="40.822236" xlink:href="#lzI_c"/><use x="49.968403" xlink:href="#lzI_a"/><use x="58.602673" xlink:href="#lzI_e"/></g></svg>
