<svg width="5.1933em" height="1.014em" style="vertical-align:-0.204765em" version="1.1" viewBox=".33474 -9.6386 61.855 12.077" xmlns="http://www.w3.org/2000/svg" xmlns:xlink="http://www.w3.org/1999/xlink"><defs><path id="TLj_c" d="m4.7701-2.7616h3.2996c0.16737 0 0.38257 0 0.38257-0.21519 0-0.22715-0.20324-0.22715-0.38257-0.22715h-3.2996v-3.2996c0-0.16737 0-0.38257-0.21519-0.38257-0.22715 0-0.22715 0.20324-0.22715 0.38257v3.2996h-3.2996c-0.16737 0-0.38256 0-0.38256 0.21519 0 0.22715 0.20324 0.22715 0.38256 0.22715h3.2996v3.2996c0 0.16737 0 0.38256 0.21519 0.38256 0.22715 0 0.22715-0.20324 0.22715-0.38256v-3.2996z"/><path id="TLj_b" d="m8.0697-3.8735c0.16737 0 0.38257 0 0.38257-0.21519 0-0.22715-0.20324-0.22715-0.38257-0.22715h-7.0416c-0.16737 0-0.38256 0-0.38256 0.21519 0 0.22715 0.20324 0.22715 0.38256 0.22715h7.0416zm0 2.2237c0.16737 0 0.38257 0 0.38257-0.21519 0-0.22715-0.20324-0.22715-0.38257-0.22715h-7.0416c-0.16737 0-0.38256 0-0.38256 0.21519 0 0.22715 0.20324 0.22715 0.38256 0.22715h7.0416z"/><path id="TLj_a" d="m2.2476-1.6259c0.12752-0.11955 0.46227-0.38256 0.58979-0.49415 0.49415-0.4543 0.96438-0.89265 0.96438-1.6179 0-0.94844-0.79701-1.5621-1.7933-1.5621-0.95641 0-1.5861 0.72528-1.5861 1.4346 0 0.39054 0.31083 0.44633 0.42242 0.44633 0.16737 0 0.41445-0.11955 0.41445-0.42242 0-0.41445-0.39851-0.41445-0.49415-0.41445 0.23113-0.58182 0.76513-0.78107 1.1557-0.78107 0.74122 0 1.1238 0.62964 1.1238 1.2991 0 0.82889-0.58182 1.4346-1.5223 2.399l-1.0042 1.0361c-0.095641 0.087671-0.095641 0.10361-0.095641 0.30286h3.1482l0.23113-1.4266h-0.24707c-0.02391 0.1594-0.087671 0.55791-0.18331 0.70934-0.04782 0.063761-0.65355 0.063761-0.78107 0.063761h-1.4187l1.076-0.97235z"/><path id="TLj_f" d="m5.6668-4.8777c-0.38257 0.071731-0.52603 0.35866-0.52603 0.5858 0 0.28692 0.22715 0.38256 0.39452 0.38256 0.35866 0 0.60971-0.31083 0.60971-0.63362 0-0.50212-0.57385-0.72926-1.076-0.72926-0.72926 0-1.1357 0.71731-1.2433 0.94446-0.27497-0.89664-1.0162-0.94446-1.2314-0.94446-1.2194 0-1.865 1.5661-1.865 1.8291 0 0.04782 0.047821 0.1076 0.13151 0.1076 0.095641 0 0.11955-0.071731 0.14346-0.11955 0.40648-1.327 1.2075-1.5781 1.5542-1.5781 0.53798 0 0.64558 0.50212 0.64558 0.78904 0 0.26301-0.071731 0.53798-0.21519 1.1118l-0.40648 1.6379c-0.17933 0.71731-0.52603 1.3748-1.1597 1.3748-0.059776 0-0.35866 0-0.60971-0.15542 0.43039-0.083686 0.52603-0.44234 0.52603-0.5858 0-0.2391-0.17933-0.38256-0.40648-0.38256-0.28692 0-0.59776 0.25106-0.59776 0.63362 0 0.50212 0.56189 0.72927 1.076 0.72927 0.57385 0 0.98032-0.4543 1.2314-0.94446 0.19128 0.70536 0.78904 0.94446 1.2314 0.94446 1.2194 0 1.865-1.5661 1.865-1.8291 0-0.059776-0.047821-0.1076-0.11955-0.1076-0.1076 0-0.11955 0.059776-0.15542 0.15542-0.32279 1.0521-1.0162 1.5422-1.5542 1.5422-0.41843 0-0.64558-0.31083-0.64558-0.801 0-0.26301 0.047821-0.4543 0.2391-1.2433l0.41843-1.6259c0.17933-0.71731 0.5858-1.2433 1.1357-1.2433 0.02391 0 0.35866 0 0.60971 0.15542z"/><path id="TLj_e" d="m3.1442 1.339c-0.32279 0.4543-0.78904 0.86077-1.3748 0.86077-0.14346 0-0.71731-0.02391-0.89664-0.57385 0.035866 0.011955 0.095642 0.011955 0.11955 0.011955 0.35866 0 0.59776-0.31083 0.59776-0.5858s-0.22715-0.37061-0.40648-0.37061c-0.19128 0-0.60971 0.14346-0.60971 0.72926 0 0.60971 0.51407 1.0281 1.1955 1.0281 1.1955 0 2.403-1.0999 2.7377-2.4269l1.1716-4.6625c0.011955-0.059776 0.035865-0.13151 0.035865-0.20324 0-0.17933-0.14346-0.29888-0.32279-0.29888-0.1076 0-0.35866 0.04782-0.4543 0.40648l-0.88468 3.5148c-0.059776 0.21519-0.059776 0.2391-0.15542 0.37061-0.2391 0.33474-0.63362 0.74122-1.2075 0.74122-0.66949 0-0.72926-0.65753-0.72926-0.98032 0-0.68144 0.32279-1.602 0.64558-2.4628 0.13151-0.3467 0.20324-0.51407 0.20324-0.75318 0-0.50212-0.35866-0.95641-0.94446-0.95641-1.0999 0-1.5422 1.7335-1.5422 1.8291 0 0.04782 0.04782 0.1076 0.13151 0.1076 0.1076 0 0.11955-0.047821 0.16737-0.21519 0.28692-1.0042 0.74122-1.4824 1.2075-1.4824 0.1076 0 0.31083 0 0.31083 0.39452 0 0.31083-0.13151 0.65753-0.31083 1.1118-0.5858 1.5661-0.5858 1.9606-0.5858 2.2476 0 1.1357 0.81295 1.3988 1.4107 1.3988 0.3467 0 0.77709-0.1076 1.1955-0.54994l0.011955 0.011955c-0.17933 0.70536-0.29888 1.1716-0.71731 1.7574z"/><path id="TLj_d" d="m1.5183-0.96837c0.51407-0.5858 0.9325-0.95641 1.5303-1.4944 0.71731-0.62167 1.0281-0.92055 1.1955-1.0999 0.83686-0.82491 1.2553-1.5183 1.2553-1.6139s-0.095641-0.095641-0.11955-0.095641c-0.083687 0-0.1076 0.047821-0.16737 0.13151-0.29888 0.51407-0.5858 0.76513-0.89664 0.76513-0.25106 0-0.38257-0.1076-0.60971-0.39452-0.25106-0.29888-0.4543-0.50212-0.801-0.50212-0.87273 0-1.3988 1.0879-1.3988 1.339 0 0.035865 0.011955 0.1076 0.11955 0.1076 0.095641 0 0.1076-0.04782 0.14346-0.13151 0.20324-0.47821 0.77709-0.56189 1.0042-0.56189 0.25106 0 0.49016 0.083687 0.74122 0.19128 0.4543 0.19128 0.64558 0.19128 0.76513 0.19128 0.083686 0 0.13151 0 0.19128-0.011955-0.39452 0.46625-1.0401 1.0401-1.5781 1.5303l-1.2075 1.1118c-0.72927 0.74122-1.1716 1.4466-1.1716 1.5303 0 0.071731 0.059776 0.095642 0.13151 0.095642s0.083686-0.011955 0.16737-0.15542c0.19128-0.29888 0.57385-0.74122 1.0162-0.74122 0.25106 0 0.37061 0.083686 0.60971 0.38256 0.22715 0.26301 0.43039 0.51407 0.81295 0.51407 1.1716 0 1.8411-1.5183 1.8411-1.7933 0-0.04782-0.011956-0.11955-0.13151-0.11955-0.095642 0-0.1076 0.04782-0.14346 0.16737-0.26301 0.70536-0.96837 0.99228-1.4346 0.99228-0.25106 0-0.49016-0.083686-0.74122-0.19128-0.47821-0.19128-0.60971-0.19128-0.76513-0.19128-0.11955 0-0.25106 0-0.35866 0.04782z"/></defs><g id="TLj_g"><use xlink:href="#TLj_f"/><use x="6.652087" y="-4.338437" xlink:href="#TLj_a"/><use x="14.041065" xlink:href="#TLj_c"/><use x="25.80238" xlink:href="#TLj_e"/><use x="31.939032" y="-4.338437" xlink:href="#TLj_a"/><use x="39.992176" xlink:href="#TLj_b"/><use x="52.417657" xlink:href="#TLj_d"/><use x="58.388264" y="-4.338437" xlink:href="#TLj_a"/></g></svg>
