<svg width="7.0238em" height=".88654em" style="vertical-align:-0.077289em" version="1.1" viewBox=".47821 -9.6386 83.657 10.559" xmlns="http://www.w3.org/2000/svg" xmlns:xlink="http://www.w3.org/1999/xlink"><defs><path id="KfZ_a" d="m4.7701-2.7616h3.2996c0.16737 0 0.38257 0 0.38257-0.21519 0-0.22715-0.20324-0.22715-0.38257-0.22715h-3.2996v-3.2996c0-0.16737 0-0.38257-0.21519-0.38257-0.22715 0-0.22715 0.20324-0.22715 0.38257v3.2996h-3.2996c-0.16737 0-0.38256 0-0.38256 0.21519 0 0.22715 0.20324 0.22715 0.38256 0.22715h3.2996v3.2996c0 0.16737 0 0.38256 0.21519 0.38256 0.22715 0 0.22715-0.20324 0.22715-0.38256v-3.2996z"/><path id="KfZ_d" d="m5.3559-3.8257c0-0.99228-0.059776-1.9606-0.49016-2.8692-0.49016-0.99228-1.3509-1.2553-1.9367-1.2553-0.6934 0-1.5422 0.3467-1.9846 1.339-0.33474 0.75318-0.4543 1.4944-0.4543 2.7856 0 1.1597 0.083686 2.0324 0.51407 2.8812 0.46625 0.90859 1.2912 1.1955 1.9128 1.1955 1.0401 0 1.6379-0.62167 1.9846-1.3151 0.43039-0.89664 0.4543-2.0682 0.4543-2.7616zm-2.4389 3.8376c-0.38256 0-1.1597-0.21519-1.3868-1.5183-0.13151-0.71731-0.13151-1.6259-0.13151-2.4628 0-0.98032 0-1.865 0.19128-2.5704 0.20324-0.801 0.81295-1.1716 1.327-1.1716 0.4543 0 1.1477 0.27497 1.3748 1.3031 0.15542 0.68144 0.15542 1.6259 0.15542 2.4389 0 0.801 0 1.7096-0.13151 2.4389-0.22715 1.3151-0.98032 1.5422-1.3988 1.5422z"/><path id="KfZ_c" d="m8.0697-3.8735c0.16737 0 0.38257 0 0.38257-0.21519 0-0.22715-0.20324-0.22715-0.38257-0.22715h-7.0416c-0.16737 0-0.38256 0-0.38256 0.21519 0 0.22715 0.20324 0.22715 0.38256 0.22715h7.0416zm0 2.2237c0.16737 0 0.38257 0 0.38257-0.21519 0-0.22715-0.20324-0.22715-0.38257-0.22715h-7.0416c-0.16737 0-0.38256 0-0.38256 0.21519 0 0.22715 0.20324 0.22715 0.38256 0.22715h7.0416z"/><path id="KfZ_e" d="m2.2476-1.6259c0.12752-0.11955 0.46227-0.38256 0.58979-0.49415 0.49415-0.4543 0.96438-0.89265 0.96438-1.6179 0-0.94844-0.79701-1.5621-1.7933-1.5621-0.95641 0-1.5861 0.72528-1.5861 1.4346 0 0.39054 0.31083 0.44633 0.42242 0.44633 0.16737 0 0.41445-0.11955 0.41445-0.42242 0-0.41445-0.39851-0.41445-0.49415-0.41445 0.23113-0.58182 0.76513-0.78107 1.1557-0.78107 0.74122 0 1.1238 0.62964 1.1238 1.2991 0 0.82889-0.58182 1.4346-1.5223 2.399l-1.0042 1.0361c-0.095641 0.087671-0.095641 0.10361-0.095641 0.30286h3.1482l0.23113-1.4266h-0.24707c-0.02391 0.1594-0.087671 0.55791-0.18331 0.70934-0.04782 0.063761-0.65355 0.063761-0.78107 0.063761h-1.4187l1.076-0.97235z"/><path id="KfZ_h" d="m3.5985-1.4227c-0.059776 0.20324-0.059776 0.22715-0.22715 0.4543-0.26301 0.33474-0.78904 0.84882-1.3509 0.84882-0.49016 0-0.76513-0.44234-0.76513-1.1477 0-0.65753 0.37061-1.9965 0.59776-2.4986 0.40648-0.83686 0.96837-1.2672 1.4346-1.2672 0.78904 0 0.94446 0.98032 0.94446 1.076 0 0.011956-0.035866 0.16737-0.047821 0.19128l-0.5858 2.3432zm0.76513-3.0605c-0.13151-0.31083-0.4543-0.78904-1.076-0.78904-1.3509 0-2.8095 1.7455-2.8095 3.5148 0 1.1836 0.6934 1.877 1.5064 1.877 0.65753 0 1.2194-0.51407 1.5542-0.90859 0.11955 0.70536 0.68144 0.90859 1.0401 0.90859s0.64558-0.21519 0.86077-0.64558c0.19128-0.40648 0.35866-1.1357 0.35866-1.1836 0-0.059776-0.047821-0.1076-0.11955-0.1076-0.1076 0-0.11955 0.059776-0.16737 0.2391-0.17933 0.70536-0.40648 1.4585-0.89664 1.4585-0.3467 0-0.37061-0.31083-0.37061-0.54994 0-0.27497 0.035865-0.40648 0.14346-0.87273 0.083686-0.29888 0.14346-0.56189 0.2391-0.90859 0.44234-1.7933 0.54994-2.2237 0.54994-2.2954 0-0.16737-0.13151-0.29888-0.31084-0.29888-0.38256 0-0.47821 0.41843-0.50212 0.56189z"/><path id="KfZ_g" d="m2.7616-7.998c0.011955-0.047821 0.035865-0.11955 0.035865-0.17933 0-0.11955-0.11955-0.11955-0.14346-0.11955-0.011955 0-0.44234 0.035866-0.65753 0.059776-0.20324 0.011955-0.38256 0.035866-0.59776 0.047821-0.28692 0.02391-0.37061 0.035865-0.37061 0.25106 0 0.11955 0.11955 0.11955 0.2391 0.11955 0.60971 0 0.60971 0.1076 0.60971 0.22715 0 0.083686-0.095641 0.43039-0.14346 0.64558l-0.28692 1.1477c-0.11955 0.47821-0.801 3.192-0.84882 3.4072-0.059775 0.29888-0.059775 0.50212-0.059775 0.65754 0 1.2194 0.68144 1.8531 1.4585 1.8531 1.3868 0 2.8214-1.7813 2.8214-3.5148 0-1.0999-0.62167-1.877-1.5183-1.877-0.62167 0-1.1836 0.51407-1.4107 0.75318l0.87273-3.479zm-0.75318 7.8785c-0.38256 0-0.801-0.28692-0.801-1.2194 0-0.39452 0.035865-0.62167 0.25106-1.4585 0.035865-0.15542 0.22715-0.92055 0.27497-1.076 0.023911-0.095642 0.72927-1.1597 1.5422-1.1597 0.52603 0 0.76513 0.52603 0.76513 1.1477 0 0.57385-0.33474 1.9248-0.63362 2.5465-0.29888 0.64558-0.84882 1.2194-1.3988 1.2194z"/><path id="KfZ_f" d="m4.6745-4.4951c-0.22715 0-0.33474 0-0.50212 0.14346-0.071731 0.059776-0.20324 0.2391-0.20324 0.43039 0 0.2391 0.17933 0.38256 0.40648 0.38256 0.28692 0 0.60971-0.2391 0.60971-0.71731 0-0.57385-0.54994-1.0162-1.3748-1.0162-1.5661 0-3.1323 1.7096-3.1323 3.4072 0 1.0401 0.64558 1.9846 1.865 1.9846 1.6259 0 2.654-1.2672 2.654-1.4227 0-0.071731-0.071731-0.13151-0.11955-0.13151-0.035866 0-0.047821 0.011955-0.15542 0.11955-0.76513 1.0162-1.9009 1.1955-2.3552 1.1955-0.82491 0-1.0879-0.71731-1.0879-1.3151 0-0.41843 0.20324-1.5781 0.63362-2.391 0.31083-0.56189 0.95641-1.2075 1.7096-1.2075 0.15542 0 0.81295 0.023911 1.0521 0.53798z"/><path id="KfZ_b" d="m5.6668-4.8777c-0.38257 0.071731-0.52603 0.35866-0.52603 0.5858 0 0.28692 0.22715 0.38256 0.39452 0.38256 0.35866 0 0.60971-0.31083 0.60971-0.63362 0-0.50212-0.57385-0.72926-1.076-0.72926-0.72926 0-1.1357 0.71731-1.2433 0.94446-0.27497-0.89664-1.0162-0.94446-1.2314-0.94446-1.2194 0-1.865 1.5661-1.865 1.8291 0 0.04782 0.047821 0.1076 0.13151 0.1076 0.095641 0 0.11955-0.071731 0.14346-0.11955 0.40648-1.327 1.2075-1.5781 1.5542-1.5781 0.53798 0 0.64558 0.50212 0.64558 0.78904 0 0.26301-0.071731 0.53798-0.21519 1.1118l-0.40648 1.6379c-0.17933 0.71731-0.52603 1.3748-1.1597 1.3748-0.059776 0-0.35866 0-0.60971-0.15542 0.43039-0.083686 0.52603-0.44234 0.52603-0.5858 0-0.2391-0.17933-0.38256-0.40648-0.38256-0.28692 0-0.59776 0.25106-0.59776 0.63362 0 0.50212 0.56189 0.72927 1.076 0.72927 0.57385 0 0.98032-0.4543 1.2314-0.94446 0.19128 0.70536 0.78904 0.94446 1.2314 0.94446 1.2194 0 1.865-1.5661 1.865-1.8291 0-0.059776-0.047821-0.1076-0.11955-0.1076-0.1076 0-0.11955 0.059776-0.15542 0.15542-0.32279 1.0521-1.0162 1.5422-1.5542 1.5422-0.41843 0-0.64558-0.31083-0.64558-0.801 0-0.26301 0.047821-0.4543 0.2391-1.2433l0.41843-1.6259c0.17933-0.71731 0.5858-1.2433 1.1357-1.2433 0.02391 0 0.35866 0 0.60971 0.15542z"/></defs><g id="KfZ_i"><use xlink:href="#KfZ_h"/><use x="6.144944" xlink:href="#KfZ_b"/><use x="12.797031" y="-4.338437" xlink:href="#KfZ_e"/><use x="20.18601" xlink:href="#KfZ_a"/><use x="31.947325" xlink:href="#KfZ_g"/><use x="36.92443" xlink:href="#KfZ_b"/><use x="46.233181" xlink:href="#KfZ_a"/><use x="57.994496" xlink:href="#KfZ_f"/><use x="66.353314" xlink:href="#KfZ_c"/><use x="78.778794" xlink:href="#KfZ_d"/></g></svg>
