<svg width=".52998em" height=".45269em" style="vertical-align:-0.010037em" version="1.1" viewBox=".32279 -5.2722 6.3123 5.3918" xmlns="http://www.w3.org/2000/svg" xmlns:xlink="http://www.w3.org/1999/xlink"><defs><path id="Ndl_a" d="m2.4628-3.5029c0.02391-0.071731 0.32279-0.66949 0.76513-1.0521 0.31084-0.28692 0.71731-0.47821 1.1836-0.47821 0.47821 0 0.64558 0.35866 0.64558 0.83686 0 0.68144-0.49016 2.0443-0.72926 2.6899-0.1076 0.28692-0.16737 0.44234-0.16737 0.65753 0 0.53798 0.37061 0.96837 0.94446 0.96837 1.1118 0 1.5303-1.7574 1.5303-1.8291 0-0.059776-0.04782-0.1076-0.11955-0.1076-0.1076 0-0.11955 0.035866-0.17933 0.2391-0.27497 0.98032-0.72926 1.4585-1.1955 1.4585-0.11955 0-0.31083-0.011955-0.31083-0.39452 0-0.29888 0.13151-0.65753 0.20324-0.82491 0.2391-0.65753 0.74122-1.9965 0.74122-2.678 0-0.71731-0.41843-1.2553-1.327-1.2553-1.064 0-1.6259 0.75318-1.8411 1.0521-0.035866-0.68144-0.52603-1.0521-1.0521-1.0521-0.38257 0-0.64558 0.22715-0.84882 0.63362-0.21519 0.43039-0.38256 1.1477-0.38256 1.1955s0.04782 0.1076 0.13151 0.1076c0.095642 0 0.1076-0.011955 0.17933-0.28692 0.19128-0.72926 0.40648-1.4107 0.88468-1.4107 0.27497 0 0.37061 0.19128 0.37061 0.54994 0 0.26301-0.11955 0.72926-0.20324 1.0999l-0.33474 1.2912c-0.047821 0.22715-0.17933 0.76513-0.2391 0.98032-0.083687 0.31084-0.21519 0.87273-0.21519 0.9325 0 0.16737 0.13151 0.29888 0.31083 0.29888 0.14346 0 0.31083-0.071731 0.40648-0.25106 0.02391-0.059776 0.13151-0.47821 0.19128-0.71731l0.26301-1.076 0.39452-1.5781z"/></defs><g id="Ndl_b"><use xlink:href="#Ndl_a"/></g></svg>
