<svg width="4.4745em" height=".73173em" style="vertical-align:-0.024090em" version="1.1" viewBox=".54994 -8.4284 53.294 8.7153" xmlns="http://www.w3.org/2000/svg" xmlns:xlink="http://www.w3.org/1999/xlink"><defs><path id="Oia_a" d="m2.1998-4.5788c0-0.32279-0.27497-0.57385-0.57385-0.57385-0.3467 0-0.5858 0.27497-0.5858 0.57385 0 0.35866 0.29888 0.5858 0.57385 0.5858 0.32279 0 0.5858-0.25106 0.5858-0.5858zm0 3.993c0-0.32279-0.27497-0.57385-0.57385-0.57385-0.3467 0-0.5858 0.27497-0.5858 0.57385 0 0.35866 0.29888 0.5858 0.57385 0.5858 0.32279 0 0.5858-0.25106 0.5858-0.5858z"/><path id="Oia_e" d="m9.9706-2.7497c-0.65753 0.50212-0.98032 0.99228-1.076 1.1477-0.53798 0.82491-0.63362 1.5781-0.63362 1.59 0 0.14346 0.14346 0.14346 0.2391 0.14346 0.20324 0 0.21519-0.02391 0.26301-0.2391 0.27497-1.1716 0.98032-2.1758 2.3313-2.7258 0.14346-0.047821 0.17933-0.071731 0.17933-0.15542s-0.071731-0.11955-0.095642-0.13151c-0.52603-0.20324-1.9726-0.801-2.4269-2.8095-0.035865-0.14346-0.047821-0.17933-0.25106-0.17933-0.095642 0-0.2391 0-0.2391 0.14346 0 0.02391 0.1076 0.77709 0.60971 1.5781 0.2391 0.35866 0.5858 0.77709 1.0999 1.1597h-8.8827c-0.21519 0-0.43039 0-0.43039 0.2391s0.21519 0.2391 0.43039 0.2391h8.8827z"/><path id="Oia_d" d="m5.9298-1.877c0-0.071731-0.059775-0.083687-0.11955-0.083687-0.20324 0-0.49016 0.17933-0.50212 0.17933-0.2391 0.15542-0.28692 0.2391-0.43039 0.44234-0.37061 0.56189-0.89664 0.96837-1.6737 0.96837-1.076 0-2.0443-0.77709-2.0443-2.5704 0-1.076 0.43039-2.4986 1.064-3.4431 0.52603-0.76513 1.1716-1.3868 2.403-1.3868 0.4543 0 0.74122 0.16737 0.74122 0.60971 0 0.41843-0.44234 1.2672-0.5858 1.5064-0.071731 0.13151-0.071731 0.15542-0.071731 0.17933 0 0.083686 0.059776 0.083686 0.13151 0.083686 0.2391 0 0.68144-0.26301 0.82491-0.4543 0.02391-0.047821 0.71731-1.2194 0.71731-1.8291 0-0.65753-0.53798-0.75318-0.96837-0.75318-1.7335 0-3.1562 1.1357-3.7061 1.8052-1.4227 1.7215-1.5661 3.5746-1.5661 4.1963 0 1.7455 0.88468 2.7138 2.2715 2.7138 1.9248 0 3.5148-1.865 3.5148-2.1639z"/><path id="Oia_c" d="m2.4389 0c2.7856 0 6.7188-2.128 6.7188-5.3918 0-1.064-0.50212-1.7335-1.0879-2.1041-1.0281-0.66949-2.128-0.66949-3.2638-0.66949-1.0281 0-1.7335 0-2.7377 0.43039-1.59 0.70536-1.8172 1.6976-1.8172 1.7933 0 0.071731 0.04782 0.095642 0.11955 0.095642 0.19128 0 0.46625-0.16737 0.56189-0.22715 0.25106-0.16737 0.28692-0.2391 0.35866-0.46625 0.16737-0.47821 0.50212-0.89664 2.0085-0.96837-0.19128 2.4986-0.801 4.7821-1.6379 6.8742-0.44234 0.15542-0.72926 0.43039-0.72926 0.54994 0 0.071731 0.011955 0.083686 0.27497 0.083686h1.2314zm0.059776-0.65753c1.3629-3.3355 1.6139-5.4157 1.7813-6.8503 0.801 0 3.8615 0 3.8615 2.6301 0 2.3432-2.1041 4.2202-4.9973 4.2202h-0.64558z"/><path id="Oia_b" d="m3.5507-3.8974h1.1477c0.90859 0 0.98032 0.20324 0.98032 0.54994 0 0.15542-0.02391 0.32279-0.083686 0.5858-0.023911 0.047821-0.035866 0.1076-0.035866 0.13151 0 0.083686 0.047821 0.13151 0.13151 0.13151 0.095641 0 0.1076-0.047821 0.15542-0.2391l0.6934-2.7856c0-0.04782-0.035866-0.11955-0.11955-0.11955-0.1076 0-0.11955 0.04782-0.16737 0.25106-0.25106 0.89664-0.49016 1.1477-1.5303 1.1477h-1.0879l0.77709-3.0964c0.1076-0.41843 0.13151-0.4543 0.62167-0.4543h1.602c1.4944 0 1.7096 0.44234 1.7096 1.2912 0 0.071731 0 0.33474-0.035865 0.64558-0.011955 0.04782-0.035866 0.20324-0.035866 0.25106 0 0.095641 0.059776 0.13151 0.13151 0.13151 0.083686 0 0.13151-0.047821 0.15542-0.26301l0.25106-2.0922c0-0.035866 0.02391-0.15542 0.02391-0.17933 0-0.13151-0.1076-0.13151-0.32279-0.13151h-5.6668c-0.22715 0-0.3467 0-0.3467 0.21519 0 0.13151 0.083686 0.13151 0.28692 0.13151 0.74122 0 0.74122 0.083687 0.74122 0.21519 0 0.059776-0.011956 0.1076-0.047821 0.2391l-1.6139 6.4558c-0.1076 0.41843-0.13151 0.53798-0.96837 0.53798-0.22715 0-0.3467 0-0.3467 0.21519 0 0.13151 0.1076 0.13151 0.17933 0.13151 0.22715 0 0.46625-0.02391 0.6934-0.02391h1.5542c0.26301 0 0.54994 0.02391 0.81295 0.02391 0.1076 0 0.25106 0 0.25106-0.21519 0-0.13151-0.071731-0.13151-0.33474-0.13151-0.94446 0-0.96837-0.083686-0.96837-0.26301 0-0.059775 0.023911-0.15542 0.047821-0.2391l0.76513-3.0486z"/></defs><g id="Oia_f"><use xlink:href="#Oia_b"/><use x="12.524444" xlink:href="#Oia_a"/><use x="19.096935" xlink:href="#Oia_d"/><use x="29.409923" xlink:href="#Oia_e"/><use x="44.685955" xlink:href="#Oia_c"/></g></svg>
