<svg width="4.5407em" height=".9114em" style="vertical-align:-0.204765em" version="1.1" viewBox=".60971 -8.4164 54.082 10.855" xmlns="http://www.w3.org/2000/svg" xmlns:xlink="http://www.w3.org/1999/xlink"><defs><path id="mhY_a" d="m2.1998-4.5788c0-0.32279-0.27497-0.57385-0.57385-0.57385-0.3467 0-0.5858 0.27497-0.5858 0.57385 0 0.35866 0.29888 0.5858 0.57385 0.5858 0.32279 0 0.5858-0.25106 0.5858-0.5858zm0 3.993c0-0.32279-0.27497-0.57385-0.57385-0.57385-0.3467 0-0.5858 0.27497-0.5858 0.57385 0 0.35866 0.29888 0.5858 0.57385 0.5858 0.32279 0 0.5858-0.25106 0.5858-0.5858z"/><path id="mhY_e" d="m9.9706-2.7497c-0.65753 0.50212-0.98032 0.99228-1.076 1.1477-0.53798 0.82491-0.63362 1.5781-0.63362 1.59 0 0.14346 0.14346 0.14346 0.2391 0.14346 0.20324 0 0.21519-0.02391 0.26301-0.2391 0.27497-1.1716 0.98032-2.1758 2.3313-2.7258 0.14346-0.047821 0.17933-0.071731 0.17933-0.15542s-0.071731-0.11955-0.095642-0.13151c-0.52603-0.20324-1.9726-0.801-2.4269-2.8095-0.035865-0.14346-0.047821-0.17933-0.25106-0.17933-0.095642 0-0.2391 0-0.2391 0.14346 0 0.02391 0.1076 0.77709 0.60971 1.5781 0.2391 0.35866 0.5858 0.77709 1.0999 1.1597h-8.8827c-0.21519 0-0.43039 0-0.43039 0.2391s0.21519 0.2391 0.43039 0.2391h8.8827z"/><path id="mhY_c" d="m5.6787-4.8538-1.1238-2.6182c0.15542-0.28692 0.51407-0.33474 0.65753-0.3467 0.071731 0 0.20324-0.011955 0.20324-0.21519 0-0.13151-0.1076-0.13151-0.17933-0.13151-0.20324 0-0.44234 0.023911-0.64558 0.023911h-0.6934c-0.72926 0-1.2553-0.023911-1.2672-0.023911-0.095641 0-0.21519 0-0.21519 0.22715 0 0.11955 0.1076 0.11955 0.26301 0.11955 0.6934 0 0.74122 0.11955 0.86077 0.40648l1.4227 3.3235-2.5943 2.7736c-0.43039 0.46625-0.94446 0.92055-1.8291 0.96837-0.14346 0.011955-0.2391 0.011955-0.2391 0.22715 0 0.035866 0.011955 0.11955 0.14346 0.11955 0.16737 0 0.3467-0.02391 0.51407-0.02391h0.56189c0.38257 0 0.801 0.02391 1.1716 0.02391 0.083686 0 0.22715 0 0.22715-0.21519 0-0.11955-0.083686-0.13151-0.15542-0.13151-0.2391-0.02391-0.39452-0.15542-0.39452-0.3467 0-0.20324 0.14346-0.3467 0.49016-0.70536l1.064-1.1597c0.26301-0.27497 0.89664-0.96837 1.1597-1.2314l1.2553 2.941c0.011955 0.02391 0.059776 0.14346 0.059776 0.15542 0 0.1076-0.26301 0.32279-0.64558 0.3467-0.071731 0-0.20324 0.011955-0.20324 0.22715 0 0.11955 0.11955 0.11955 0.17933 0.11955 0.20324 0 0.44234-0.02391 0.64558-0.02391h1.3151c0.21519 0 0.44234 0.02391 0.64558 0.02391 0.083686 0 0.21519 0 0.21519-0.22715 0-0.11955-0.11955-0.11955-0.22715-0.11955-0.71731-0.011955-0.74122-0.071731-0.94446-0.51407l-1.5781-3.7061 1.5183-1.6259c0.11955-0.11955 0.39452-0.41843 0.50212-0.53798 0.51407-0.53798 0.99228-1.0281 1.9606-1.0879 0.11955-0.011955 0.2391-0.011955 0.2391-0.21519 0-0.13151-0.1076-0.13151-0.15542-0.13151-0.16737 0-0.3467 0.023911-0.51407 0.023911h-0.54994c-0.38257 0-0.801-0.023911-1.1716-0.023911-0.083686 0-0.22715 0-0.22715 0.21519 0 0.11955 0.083686 0.13151 0.15542 0.13151 0.19128 0.02391 0.39452 0.11955 0.39452 0.3467l-0.011955 0.02391c-0.011956 0.083686-0.035866 0.20324-0.16737 0.3467l-2.0922 2.2476z"/><path id="mhY_b" d="m8.3686-7.7948c0.071731-0.083686 0.13151-0.15542 0.13151-0.27497 0-0.083687-0.011956-0.095642-0.28692-0.095642h-4.9375c-0.27497 0-0.28692 0.011955-0.35866 0.22715l-0.65753 2.1519c-0.035866 0.11955-0.035866 0.14346-0.035866 0.16737 0 0.047821 0.035866 0.11955 0.11955 0.11955 0.095641 0 0.11955-0.047821 0.16737-0.20324 0.44234-1.2912 1.0281-2.1161 2.9171-2.1161h1.9606l-6.5514 7.4122c-0.1076 0.13151-0.15542 0.17933-0.15542 0.31084 0 0.095641 0.059775 0.095641 0.28692 0.095641h5.1049c0.27497 0 0.28692-0.011955 0.35866-0.22715l0.83686-2.6421c0.011955-0.035866 0.035866-0.11955 0.035866-0.16737 0-0.059776-0.047821-0.11955-0.11955-0.11955-0.095641 0-0.1076 0.011955-0.20324 0.31083-0.50212 1.5422-1.0281 2.4747-3.1083 2.4747h-2.0682l6.5634-7.4242z"/><path id="mhY_d" d="m5.332-4.806c0.2391 0 0.33474 0 0.33474-0.22715 0-0.11955-0.095642-0.11955-0.31084-0.11955h-0.96837c0.22715-1.2314 0.39452-2.0802 0.49016-2.4628 0.071731-0.28692 0.32279-0.56189 0.63362-0.56189 0.25106 0 0.50212 0.1076 0.62167 0.21519-0.46625 0.047821-0.60971 0.39452-0.60971 0.59776 0 0.2391 0.17933 0.38257 0.40648 0.38257 0.2391 0 0.59776-0.20324 0.59776-0.65753 0-0.50212-0.50212-0.77709-1.0281-0.77709-0.51407 0-1.0162 0.38256-1.2553 0.84882-0.21519 0.41843-0.33474 0.84882-0.60971 2.4149h-0.801c-0.22715 0-0.3467 0-0.3467 0.21519 0 0.13151 0.071731 0.13151 0.31083 0.13151h0.76513c-0.21519 1.1118-0.70536 3.8137-0.98032 5.0929-0.20324 1.0401-0.38256 1.9128-0.98032 1.9128-0.035866 0-0.38257 0-0.59776-0.22715 0.60971-0.047821 0.60971-0.57385 0.60971-0.5858 0-0.2391-0.17933-0.38257-0.40648-0.38257-0.2391 0-0.59776 0.20324-0.59776 0.65753 0 0.51407 0.52603 0.77709 0.99228 0.77709 1.2194 0 1.7215-2.1878 1.8531-2.7856 0.21519-0.92055 0.801-4.1006 0.86077-4.4593h1.0162z"/></defs><g id="mhY_f"><use xlink:href="#mhY_d"/><use x="10.367266" xlink:href="#mhY_a"/><use x="16.939757" xlink:href="#mhY_c"/><use x="30.915694" xlink:href="#mhY_e"/><use x="46.191725" xlink:href="#mhY_b"/></g></svg>
