<svg width="1.0341em" height=".80925em" style="vertical-align:-0.000000em" version="1.1" viewBox=".19128 -9.6386 12.317 9.6386" xmlns="http://www.w3.org/2000/svg" xmlns:xlink="http://www.w3.org/1999/xlink"><defs><path id="Ezq_a" d="m2.0164-2.662c0.62964 0 1.0281 0.46227 1.0281 1.2991 0 0.99626-0.56588 1.2912-0.98829 1.2912-0.43836 0-1.0361-0.1594-1.3151-0.58182 0.28692 0 0.48618-0.18331 0.48618-0.44633 0-0.25504-0.18331-0.43836-0.43836-0.43836-0.21519 0-0.43836 0.13549-0.43836 0.4543 0 0.75716 0.81295 1.2513 1.7215 1.2513 1.06 0 1.8012-0.73325 1.8012-1.5303 0-0.66152-0.52603-1.2672-1.339-1.4426 0.62964-0.22316 1.0999-0.76513 1.0999-1.4027s-0.71731-1.0919-1.5462-1.0919c-0.8528 0-1.4984 0.46227-1.4984 1.068 0 0.2949 0.19925 0.42242 0.40648 0.42242 0.24707 0 0.40648-0.17534 0.40648-0.40648 0-0.29489-0.25504-0.40648-0.43039-0.41445 0.33474-0.43836 0.94844-0.46227 1.0919-0.46227 0.20722 0 0.81295 0.063761 0.81295 0.88468 0 0.55791-0.23113 0.89265-0.34271 1.0202-0.2391 0.24707-0.42242 0.26301-0.90859 0.29489-0.15143 0.00797-0.21519 0.015941-0.21519 0.11955 0 0.11158 0.071731 0.11158 0.20722 0.11158h0.3985z"/><path id="Ezq_b" d="m3.204-3.7539h0.43039l1.7933 2.7736c0.11955 0.19128 0.40648 0.65753 0.53798 0.83686 0.083686 0.14346 0.11955 0.14346 0.39452 0.14346h1.6498c0.21519 0 0.39452 0 0.39452-0.21519 0-0.095641-0.071731-0.17933-0.17933-0.20324-0.44234-0.095641-1.0281-0.88468-1.3151-1.2672-0.083686-0.11955-0.68144-0.90859-1.4824-2.1998 1.064-0.19128 2.0922-0.64558 2.0922-2.0682 0-1.6618-1.7574-2.2356-3.1681-2.2356h-3.7539c-0.21519 0-0.40648 0-0.40648 0.21519 0 0.20324 0.22715 0.20324 0.32279 0.20324 0.68144 0 0.74122 0.083686 0.74122 0.68144v5.9895c0 0.59776-0.059776 0.68144-0.74122 0.68144-0.095641 0-0.32279 0-0.32279 0.20324 0 0.21519 0.19128 0.21519 0.40648 0.21519h3.2757c0.21519 0 0.39452 0 0.39452-0.21519 0-0.20324-0.20324-0.20324-0.33474-0.20324-0.68144 0-0.72926-0.095641-0.72926-0.68144v-2.654zm2.3073-0.5858c0.33474-0.44234 0.37061-1.076 0.37061-1.602 0-0.57385-0.071731-1.2075-0.4543-1.6976 0.49016 0.1076 1.6737 0.47821 1.6737 1.6857 0 0.77709-0.35866 1.3868-1.59 1.6139zm-2.3073-2.7856c0-0.25106 0-0.64558 0.74122-0.64558 1.0162 0 1.5183 0.41843 1.5183 1.8291 0 1.5422-0.37061 1.7694-2.2595 1.7694v-2.9529zm-1.6259 6.7068c0.095642-0.21519 0.095642-0.54994 0.095642-0.65753v-6.0374c0-0.11955 0-0.44234-0.095642-0.65753h1.3629c-0.15542 0.19128-0.15542 0.43039-0.15542 0.60971v6.0852c0 0.11955 0 0.44234 0.095642 0.65753h-1.3031zm2.5465-3.3355c0.083686-0.011955 0.13151-0.02391 0.22715-0.02391 0.17933 0 0.44234-0.02391 0.62167-0.047821 0.17933 0.28692 1.4705 2.4149 2.4628 3.4072h-1.1597l-2.1519-3.3355z"/></defs><g id="Ezq_c"><use xlink:href="#Ezq_b"/><use x="8.634312" y="-4.338437" xlink:href="#Ezq_a"/></g></svg>
