<svg width=".55119em" height=".72571em" style="vertical-align:-0.010037em" version="1.1" viewBox=".32279 -8.524 6.5649 8.6436" xmlns="http://www.w3.org/2000/svg" xmlns:xlink="http://www.w3.org/1999/xlink"><defs><path id="JaF_b" d="m5.4635-4.4712c0-0.75318-0.38257-0.801-0.47821-0.801-0.28692 0-0.54994 0.28692-0.54994 0.52603 0 0.14346 0.083687 0.22715 0.13151 0.27497 0.11955 0.1076 0.43039 0.43039 0.43039 1.0521 0 0.50212-0.71731 3.2996-2.1519 3.2996-0.72926 0-0.87273-0.60971-0.87273-1.0521 0-0.59776 0.27497-1.4346 0.59776-2.2954 0.19128-0.49016 0.2391-0.60971 0.2391-0.84882 0-0.50212-0.35866-0.95641-0.94446-0.95641-1.0999 0-1.5422 1.7335-1.5422 1.8291 0 0.04782 0.04782 0.1076 0.13151 0.1076 0.1076 0 0.11955-0.047821 0.16737-0.21519 0.28692-1.0281 0.75318-1.4824 1.2075-1.4824 0.1076 0 0.31083 0 0.31083 0.39452 0 0.31083-0.13151 0.65753-0.31083 1.1118-0.57385 1.5303-0.57385 1.9009-0.57385 2.1878 0 0.26301 0.035865 0.75318 0.40648 1.0879 0.43039 0.37061 1.0281 0.37061 1.1357 0.37061 1.9846 0 2.666-3.9093 2.666-4.5908z"/><path id="JaF_a" d="m6.396-7.1372c-0.14346 0.13151-0.5858 0.54994-0.5858 0.71731 0 0.11955 0.1076 0.22715 0.22715 0.22715 0.1076 0 0.15542-0.071731 0.2391-0.19128 0.28692-0.35866 0.60971-0.5858 0.88468-0.74122 0.11955-0.071731 0.20324-0.1076 0.20324-0.2391 0-0.1076-0.095642-0.16737-0.16737-0.22715-0.33474-0.22715-0.41843-0.54994-0.4543-0.6934-0.035866-0.095641-0.071731-0.2391-0.2391-0.2391-0.071731 0-0.21519 0.047821-0.21519 0.22715 0 0.1076 0.071731 0.39452 0.29888 0.71731h-4.0169c-0.20324 0-0.40648 0-0.40648 0.22715 0 0.21519 0.21519 0.21519 0.40648 0.21519h3.8257z"/></defs><g id="JaF_c"><use x="-.476682" xlink:href="#JaF_a"/><use xlink:href="#JaF_b"/></g></svg>
