<svg width="11.209em" height="4.5144em" style="vertical-align:-0.000000em" version="1.1" viewBox="174.16 -53.97 133.51 53.769" xmlns="http://www.w3.org/2000/svg" xmlns:xlink="http://www.w3.org/1999/xlink"><defs><path id="STI_d" d="m2.5026-5.077c0-0.21519-0.01594-0.22316-0.23113-0.22316-0.32678 0.3188-0.74919 0.51009-1.5064 0.51009v0.26301c0.21519 0 0.64558 0 1.1078-0.21519v4.0887c0 0.29489-0.02391 0.39054-0.78107 0.39054h-0.27895v0.26301c0.32678-0.02391 1.0122-0.02391 1.3709-0.02391s1.0521 0 1.3788 0.02391v-0.26301h-0.27895c-0.75716 0-0.78107-0.095641-0.78107-0.39054v-4.4234z"/><path id="STI_c" d="m2.2476-1.6259c0.12752-0.11955 0.46227-0.38256 0.58979-0.49415 0.49415-0.4543 0.96438-0.89265 0.96438-1.6179 0-0.94844-0.79701-1.5621-1.7933-1.5621-0.95641 0-1.5861 0.72528-1.5861 1.4346 0 0.39054 0.31083 0.44633 0.42242 0.44633 0.16737 0 0.41445-0.11955 0.41445-0.42242 0-0.41445-0.39851-0.41445-0.49415-0.41445 0.23113-0.58182 0.76513-0.78107 1.1557-0.78107 0.74122 0 1.1238 0.62964 1.1238 1.2991 0 0.82889-0.58182 1.4346-1.5223 2.399l-1.0042 1.0361c-0.095641 0.087671-0.095641 0.10361-0.095641 0.30286h3.1482l0.23113-1.4266h-0.24707c-0.02391 0.1594-0.087671 0.55791-0.18331 0.70934-0.04782 0.063761-0.65355 0.063761-0.78107 0.063761h-1.4187l1.076-0.97235z"/><path id="STI_b" d="m2.0164-2.662c0.62964 0 1.0281 0.46227 1.0281 1.2991 0 0.99626-0.56588 1.2912-0.98829 1.2912-0.43836 0-1.0361-0.1594-1.3151-0.58182 0.28692 0 0.48618-0.18331 0.48618-0.44633 0-0.25504-0.18331-0.43836-0.43836-0.43836-0.21519 0-0.43836 0.13549-0.43836 0.4543 0 0.75716 0.81295 1.2513 1.7215 1.2513 1.06 0 1.8012-0.73325 1.8012-1.5303 0-0.66152-0.52603-1.2672-1.339-1.4426 0.62964-0.22316 1.0999-0.76513 1.0999-1.4027s-0.71731-1.0919-1.5462-1.0919c-0.8528 0-1.4984 0.46227-1.4984 1.068 0 0.2949 0.19925 0.42242 0.40648 0.42242 0.24707 0 0.40648-0.17534 0.40648-0.40648 0-0.29489-0.25504-0.40648-0.43039-0.41445 0.33474-0.43836 0.94844-0.46227 1.0919-0.46227 0.20722 0 0.81295 0.063761 0.81295 0.88468 0 0.55791-0.23113 0.89265-0.34271 1.0202-0.2391 0.24707-0.42242 0.26301-0.90859 0.29489-0.15143 0.00797-0.21519 0.015941-0.21519 0.11955 0 0.11158 0.071731 0.11158 0.20722 0.11158h0.3985z"/><path id="STI_j" d="m4.4712 21.161c0.26301 0 0.33474 0 0.33474-0.16737 0.02391-8.3806 0.99228-15.338 5.1766-21.185 0.083687-0.1076 0.083687-0.13151 0.083687-0.15542 0-0.11955-0.083687-0.11955-0.27497-0.11955s-0.21519 0-0.2391 0.023911c-0.04782 0.035865-1.5661 1.7813-2.7736 4.1843-1.5781 3.1562-2.5704 6.7786-3.0127 11.13-0.035866 0.37061-0.28692 2.8573-0.28692 5.6907v0.46625c0.011955 0.13151 0.083686 0.13151 0.33474 0.13151h0.65753z"/><path id="STI_i" d="m6.9699 20.563c0-7.3046-1.3031-11.585-1.6737-12.792-0.81295-2.654-2.14-5.4516-4.1365-7.9143-0.17933-0.21519-0.22715-0.27497-0.27497-0.29888-0.02391-0.011955-0.035865-0.023911-0.22715-0.023911-0.17933 0-0.27497 0-0.27497 0.11955 0 0.02391 0 0.047821 0.15542 0.26301 4.1604 5.8102 5.0929 12.983 5.1049 21.077 0 0.16737 0.071731 0.16737 0.33474 0.16737h0.65753c0.25106 0 0.32279 0 0.33474-0.13151v-0.46625z"/><path id="STI_h" d="m3.8137-0.59776c-0.25106 0-0.32279 0-0.33474 0.13151v0.46625c0 7.3046 1.3031 11.585 1.6737 12.792 0.81295 2.654 2.14 5.4516 4.1365 7.9143 0.17933 0.21519 0.22715 0.27497 0.27497 0.29888 0.023911 0.011956 0.035866 0.023911 0.22715 0.023911s0.27497 0 0.27497-0.11955c0-0.02391 0-0.047821-0.071731-0.15542-3.9811-5.5233-5.1766-12.17-5.1885-21.185 0-0.16737-0.071731-0.16737-0.33474-0.16737h-0.65753z"/><path id="STI_g" d="m6.9699-0.46625c-0.011955-0.13151-0.083686-0.13151-0.33474-0.13151h-0.65753c-0.26301 0-0.33474 0-0.33474 0.16737 0 1.2314-0.011955 4.0767-0.32279 7.0535-0.64558 6.1808-2.2356 10.461-4.8538 14.131-0.083687 0.1076-0.083687 0.13151-0.083687 0.15542 0 0.11955 0.095642 0.11955 0.27497 0.11955 0.19128 0 0.21519 0 0.2391-0.023911 0.04782-0.035865 1.5661-1.7813 2.7736-4.1843 1.5781-3.1562 2.5704-6.7786 3.0127-11.13 0.035865-0.37061 0.28692-2.8573 0.28692-5.6907v-0.46625z"/><path id="STI_e" d="m8.0697-3.8735c0.16737 0 0.38257 0 0.38257-0.21519 0-0.22715-0.20324-0.22715-0.38257-0.22715h-7.0416c-0.16737 0-0.38256 0-0.38256 0.21519 0 0.22715 0.20324 0.22715 0.38256 0.22715h7.0416zm0 2.2237c0.16737 0 0.38257 0 0.38257-0.21519 0-0.22715-0.20324-0.22715-0.38257-0.22715h-7.0416c-0.16737 0-0.38256 0-0.38256 0.21519 0 0.22715 0.20324 0.22715 0.38256 0.22715h7.0416z"/><path id="STI_f" d="m2.0324-1.327c-0.41843 0.70536-0.82491 0.94446-1.3988 0.98032-0.13151 0.011955-0.22715 0.011955-0.22715 0.22715 0 0.071731 0.059776 0.11955 0.14346 0.11955 0.21519 0 0.75318-0.02391 0.96837-0.02391 0.3467 0 0.72927 0.02391 1.064 0.02391 0.071731 0 0.21519 0 0.21519-0.22715 0-0.1076-0.095641-0.11955-0.16737-0.11955-0.27497-0.02391-0.50212-0.11955-0.50212-0.40648 0-0.16737 0.071731-0.29888 0.22715-0.56189l0.90859-1.5064h3.0486c0.011955 0.1076 0.011955 0.20324 0.02391 0.31084 0.035866 0.31083 0.17933 1.5542 0.17933 1.7813 0 0.35866-0.60971 0.38256-0.801 0.38256-0.13151 0-0.26301 0-0.26301 0.21519 0 0.13151 0.1076 0.13151 0.17933 0.13151 0.20324 0 0.44234-0.02391 0.64558-0.02391h0.68144c0.72926 0 1.2553 0.02391 1.2672 0.02391 0.083686 0 0.21519 0 0.21519-0.22715 0-0.11955-0.1076-0.11955-0.28692-0.11955-0.65754 0-0.66949-0.1076-0.70536-0.46625l-0.72927-7.46c-0.02391-0.2391-0.071731-0.26301-0.20324-0.26301-0.11955 0-0.19128 0.02391-0.29888 0.20324l-4.1843 7.0057zm1.4346-1.8411 2.403-4.0169 0.40648 4.0169h-2.8095z"/><path id="STI_a" d="m3.5985-1.4227c-0.059776 0.20324-0.059776 0.22715-0.22715 0.4543-0.26301 0.33474-0.78904 0.84882-1.3509 0.84882-0.49016 0-0.76513-0.44234-0.76513-1.1477 0-0.65753 0.37061-1.9965 0.59776-2.4986 0.40648-0.83686 0.96837-1.2672 1.4346-1.2672 0.78904 0 0.94446 0.98032 0.94446 1.076 0 0.011956-0.035866 0.16737-0.047821 0.19128l-0.5858 2.3432zm0.76513-3.0605c-0.13151-0.31083-0.4543-0.78904-1.076-0.78904-1.3509 0-2.8095 1.7455-2.8095 3.5148 0 1.1836 0.6934 1.877 1.5064 1.877 0.65753 0 1.2194-0.51407 1.5542-0.90859 0.11955 0.70536 0.68144 0.90859 1.0401 0.90859s0.64558-0.21519 0.86077-0.64558c0.19128-0.40648 0.35866-1.1357 0.35866-1.1836 0-0.059776-0.047821-0.1076-0.11955-0.1076-0.1076 0-0.11955 0.059776-0.16737 0.2391-0.17933 0.70536-0.40648 1.4585-0.89664 1.4585-0.3467 0-0.37061-0.31083-0.37061-0.54994 0-0.27497 0.035865-0.40648 0.14346-0.87273 0.083686-0.29888 0.14346-0.56189 0.2391-0.90859 0.44234-1.7933 0.54994-2.2237 0.54994-2.2954 0-0.16737-0.13151-0.29888-0.31084-0.29888-0.38256 0-0.47821 0.41843-0.50212 0.56189z"/></defs><g id="STI_k" transform="scale(1.25)"><use x="138.920059" y="-18.67992" xlink:href="#STI_f"/><use x="151.016235" y="-18.67992" xlink:href="#STI_e"/><use x="163.441716" y="-42.710031" xlink:href="#STI_j"/><use x="163.441716" y="-21.190525" xlink:href="#STI_h"/><use x="173.902519" y="-33.225411" xlink:href="#STI_a"/><use x="180.047463" y="-31.432148" xlink:href="#STI_d"/><use x="184.281646" y="-31.432148" xlink:href="#STI_d"/><use x="198.976597" y="-33.225411" xlink:href="#STI_a"/><use x="205.121541" y="-31.432148" xlink:href="#STI_d"/><use x="209.355724" y="-31.432148" xlink:href="#STI_c"/><use x="224.050675" y="-33.225411" xlink:href="#STI_a"/><use x="230.19562" y="-31.432148" xlink:href="#STI_d"/><use x="234.429802" y="-31.432148" xlink:href="#STI_b"/><use x="173.902519" y="-18.779598" xlink:href="#STI_a"/><use x="180.047463" y="-16.986335" xlink:href="#STI_c"/><use x="184.281646" y="-16.986335" xlink:href="#STI_d"/><use x="198.976597" y="-18.779598" xlink:href="#STI_a"/><use x="205.121541" y="-16.986335" xlink:href="#STI_c"/><use x="209.355724" y="-16.986335" xlink:href="#STI_c"/><use x="224.050675" y="-18.779598" xlink:href="#STI_a"/><use x="230.19562" y="-16.986335" xlink:href="#STI_c"/><use x="234.429802" y="-16.986335" xlink:href="#STI_b"/><use x="173.902519" y="-4.333785" xlink:href="#STI_a"/><use x="180.047463" y="-2.540522" xlink:href="#STI_b"/><use x="184.281646" y="-2.540522" xlink:href="#STI_d"/><use x="198.976597" y="-4.333785" xlink:href="#STI_a"/><use x="205.121541" y="-2.540522" xlink:href="#STI_b"/><use x="209.355724" y="-2.540522" xlink:href="#STI_c"/><use x="224.050675" y="-4.333785" xlink:href="#STI_a"/><use x="230.19562" y="-2.540522" xlink:href="#STI_b"/><use x="234.429802" y="-2.540522" xlink:href="#STI_b"/><use x="239.162113" y="-42.710031" xlink:href="#STI_i"/><use x="239.162113" y="-21.190525" xlink:href="#STI_g"/></g></svg>
