<svg width="6.0805em" height="1.193em" style="vertical-align:-0.352826em" version="1.1" viewBox=".66949 -10.007 72.422 14.21" xmlns="http://www.w3.org/2000/svg" xmlns:xlink="http://www.w3.org/1999/xlink"><defs><path id="wiP_c" d="m8.0697-3.8735c0.16737 0 0.38257 0 0.38257-0.21519 0-0.22715-0.20324-0.22715-0.38257-0.22715h-7.0416c-0.16737 0-0.38256 0-0.38256 0.21519 0 0.22715 0.20324 0.22715 0.38256 0.22715h7.0416zm0 2.2237c0.16737 0 0.38257 0 0.38257-0.21519 0-0.22715-0.20324-0.22715-0.38257-0.22715h-7.0416c-0.16737 0-0.38256 0-0.38256 0.21519 0 0.22715 0.20324 0.22715 0.38256 0.22715h7.0416z"/><path id="wiP_f" d="m4.6506-4.8897c-0.37061 0.071731-0.56189 0.33474-0.56189 0.59776 0 0.28692 0.22715 0.38256 0.39452 0.38256 0.33474 0 0.60971-0.28692 0.60971-0.64558 0-0.38256-0.37061-0.71731-0.96837-0.71731-0.47821 0-1.0281 0.21519-1.5303 0.94446-0.083686-0.63362-0.56189-0.94446-1.0401-0.94446-0.46625 0-0.70536 0.35866-0.84882 0.62167-0.20324 0.43039-0.38256 1.1477-0.38256 1.2075 0 0.04782 0.04782 0.1076 0.13151 0.1076 0.095642 0 0.1076-0.011955 0.17933-0.28692 0.17933-0.71731 0.40648-1.4107 0.88468-1.4107 0.28692 0 0.37061 0.20324 0.37061 0.54994 0 0.26301-0.11955 0.72926-0.20324 1.0999l-0.33474 1.2912c-0.047821 0.22715-0.17933 0.76513-0.2391 0.98032-0.083687 0.31084-0.21519 0.87273-0.21519 0.9325 0 0.16737 0.13151 0.29888 0.31083 0.29888 0.13151 0 0.35866-0.083686 0.43039-0.32279 0.035866-0.095641 0.47821-1.9009 0.54994-2.1758 0.059776-0.26301 0.13151-0.51407 0.19128-0.77709 0.047821-0.16737 0.095642-0.35866 0.13151-0.51407 0.035866-0.1076 0.35866-0.6934 0.65754-0.95641 0.14346-0.13151 0.4543-0.40648 0.94446-0.40648 0.19128 0 0.38256 0.035866 0.53798 0.14346z"/><path id="wiP_b" d="m2.3273-5.2922c0.00797-0.015941 0.03188-0.11955 0.03188-0.12752 0-0.039851-0.03188-0.11158-0.12752-0.11158-0.03188 0-0.27895 0.023911-0.46227 0.039851l-0.44633 0.03188c-0.17534 0.01594-0.25504 0.023911-0.25504 0.16737 0 0.11158 0.11158 0.11158 0.20722 0.11158 0.38256 0 0.38256 0.047821 0.38256 0.11955 0 0.02391 0 0.03985-0.03985 0.18331l-1.1318 4.535c-0.031881 0.11955-0.031881 0.16737-0.031881 0.17534 0 0.13549 0.11158 0.24707 0.26301 0.24707 0.27098 0 0.33474-0.25504 0.36662-0.36662 0.079701-0.33474 0.28692-1.1796 0.3746-1.5143 0.43836 0.04782 0.97235 0.19925 0.97235 0.65355 0 0.03985 0 0.079701-0.01594 0.1594-0.02391 0.10361-0.039851 0.21519-0.039851 0.25504 0 0.47024 0.35068 0.81295 0.81295 0.81295 0.33474 0 0.54197-0.24707 0.64558-0.3985 0.19128-0.2949 0.3188-0.7731 0.3188-0.82092 0-0.079701-0.063761-0.10361-0.11955-0.10361-0.095642 0-0.11158 0.04782-0.14346 0.19128-0.10361 0.3746-0.31084 0.90859-0.68543 0.90859-0.20722 0-0.25504-0.17534-0.25504-0.39054 0-0.10361 0.007971-0.19925 0.047821-0.38256 0.00797-0.03188 0.039851-0.1594 0.039851-0.24707 0-0.65355-0.82092-0.79701-1.2274-0.8528 0.2949-0.17534 0.56588-0.44633 0.66152-0.54994 0.43836-0.43039 0.79701-0.72528 1.1796-0.72528 0.10361 0 0.19925 0.02391 0.26301 0.10361-0.43039 0.055791-0.43039 0.43039-0.43039 0.43836 0 0.17534 0.13549 0.29489 0.31083 0.29489 0.21519 0 0.4543-0.17534 0.4543-0.50212 0-0.27098-0.19128-0.55791-0.58979-0.55791-0.46227 0-0.87671 0.35068-1.331 0.80498-0.46227 0.4543-0.66152 0.54197-0.78904 0.59776l0.78904-3.1801z"/><path id="wiP_g" d="m1.5382-1.0999c0.087671-0.34272 0.17534-0.68543 0.25504-1.0361 0.00797-0.01594 0.063761-0.24707 0.071731-0.28692 0.023911-0.071731 0.22316-0.39851 0.43039-0.59776 0.25504-0.23113 0.52603-0.27098 0.66949-0.27098 0.087671 0 0.23113 0.00797 0.34272 0.10361-0.34272 0.071731-0.39054 0.36662-0.39054 0.43836 0 0.17534 0.13549 0.29489 0.31083 0.29489 0.21519 0 0.4543-0.17534 0.4543-0.49415 0-0.28692-0.24707-0.56588-0.70137-0.56588-0.54197 0-0.90859 0.35866-1.076 0.57385-0.1594-0.57385-0.70137-0.57385-0.78107-0.57385-0.28692 0-0.48618 0.18331-0.6137 0.43039-0.18331 0.35866-0.27098 0.76513-0.27098 0.78904 0 0.071731 0.055791 0.10361 0.11955 0.10361 0.10361 0 0.11158-0.03188 0.16737-0.2391 0.095642-0.39054 0.2391-0.86077 0.57385-0.86077 0.20722 0 0.25504 0.19925 0.25504 0.3746 0 0.14346-0.039851 0.29489-0.10361 0.55791-0.015941 0.063761-0.13549 0.534-0.16737 0.64558l-0.29489 1.1955c-0.03188 0.11955-0.079701 0.3188-0.079701 0.35068 0 0.18331 0.15143 0.24707 0.25504 0.24707 0.27895 0 0.33474-0.22316 0.3985-0.49415l0.17534-0.68543z"/><path id="wiP_i" d="m5.5711-1.8092c0.12752 0 0.30286 0 0.30286-0.18331s-0.17534-0.18331-0.30286-0.18331h-4.5669c-0.12752 0-0.30286 0-0.30286 0.18331s0.17534 0.18331 0.30286 0.18331h4.5669z"/><path id="wiP_h" d="m4.3039-2.1838c-0.47024-0.56588-0.534-0.62964-0.81295-0.83686-0.36662-0.27895-0.8528-0.49415-1.3788-0.49415-0.97235 0-1.6418 0.8528-1.6418 1.8012 0 0.9325 0.66152 1.7933 1.61 1.7933 0.65355 0 1.4187-0.34272 2.0802-1.331 0.47024 0.56588 0.534 0.62964 0.81295 0.83686 0.36662 0.27895 0.8528 0.49415 1.3788 0.49415 0.97235 0 1.6418-0.8528 1.6418-1.8012 0-0.9325-0.66152-1.7933-1.61-1.7933-0.65355 0-1.4187 0.34271-2.0802 1.331zm0.2391 0.29489c0.30286-0.50212 0.95641-1.323 1.8969-1.323 0.8528 0 1.331 0.7731 1.331 1.4904 0 0.7731-0.58979 1.3709-1.2912 1.3709s-1.1716-0.58182-1.9367-1.5382zm-0.62167 0.34272c-0.30286 0.50212-0.95641 1.323-1.8969 1.323-0.8528 0-1.331-0.7731-1.331-1.4904 0-0.7731 0.58979-1.3709 1.2912-1.3709s1.1716 0.58182 1.9367 1.5382z"/><path id="wiP_e" d="m3.8974-2.5425c0-0.8528-0.087671-1.3709-0.35068-1.8809-0.35068-0.70137-0.99626-0.87671-1.4346-0.87671-1.0042 0-1.3709 0.74919-1.4824 0.97235-0.28692 0.58182-0.30286 1.3709-0.30286 1.7853 0 0.52603 0.02391 1.331 0.40648 1.9686 0.36662 0.58979 0.95641 0.74122 1.3788 0.74122 0.38256 0 1.068-0.11955 1.4665-0.90859 0.29489-0.57385 0.3188-1.2832 0.3188-1.8012zm-1.7853 2.4867c-0.27098 0-0.82092-0.12752-0.98829-0.96438-0.087671-0.4543-0.087671-1.2035-0.087671-1.6179 0-0.54994 0-1.1078 0.087671-1.5462 0.16737-0.81295 0.78904-0.89265 0.98829-0.89265 0.27098 0 0.82092 0.13549 0.98032 0.86077 0.095642 0.43836 0.095642 1.0361 0.095642 1.5781 0 0.47024 0 1.1875-0.095642 1.6339-0.16737 0.83686-0.71731 0.94844-0.98032 0.94844z"/><path id="wiP_a" d="m2.5026-5.077c0-0.21519-0.01594-0.22316-0.23113-0.22316-0.32678 0.3188-0.74919 0.51009-1.5064 0.51009v0.26301c0.21519 0 0.64558 0 1.1078-0.21519v4.0887c0 0.29489-0.02391 0.39054-0.78107 0.39054h-0.27895v0.26301c0.32678-0.02391 1.0122-0.02391 1.3709-0.02391s1.0521 0 1.3788 0.02391v-0.26301h-0.27895c-0.75716 0-0.78107-0.095641-0.78107-0.39054v-4.4234z"/><path id="wiP_d" d="m5.8262-2.654c0.11955 0 0.27895 0 0.27895-0.18331s-0.19128-0.18331-0.31084-0.18331h-5.0132c-0.11955 0-0.31083 0-0.31083 0.18331s0.1594 0.18331 0.27895 0.18331h5.077zm-0.031881 1.6897c0.11955 0 0.31084 0 0.31084-0.18331s-0.1594-0.18331-0.27895-0.18331h-5.077c-0.11955 0-0.27895 0-0.27895 0.18331s0.19128 0.18331 0.31083 0.18331h5.0132z"/><path id="wiP_j" d="m5.0331 6.3841-4.2441 5.2483c-0.095641 0.11955-0.1076 0.14346-0.1076 0.19128 0 0.13151 0.1076 0.13151 0.32279 0.13151h9.9108l1.0281-2.9768h-0.29888c-0.29888 0.89664-1.0999 1.6259-2.1161 1.9726-0.19128 0.059776-1.0162 0.3467-2.7736 0.3467h-5.0809l4.1484-5.1288c0.083686-0.1076 0.1076-0.14346 0.1076-0.19128s-0.011955-0.059776-0.083686-0.16737l-3.8854-5.332h4.7342c1.3629 0 4.1126 0.083686 4.9494 2.3193h0.29888l-1.0281-2.7975h-9.9108c-0.32279 0-0.33474 0.011955-0.33474 0.38256l4.3636 6.0015z"/></defs><g id="wiP_k"><use y="-8.966452" xlink:href="#wiP_j"/><use x="12.61938" y="-5.811611" xlink:href="#wiP_h"/><use x="12.61938" y="3.487" xlink:href="#wiP_b"/><use x="17.240995" y="3.487" xlink:href="#wiP_d"/><use x="23.827502" y="3.487" xlink:href="#wiP_e"/><use x="30.552314" xlink:href="#wiP_f"/><use x="36.152788" y="-4.338437" xlink:href="#wiP_b"/><use x="44.593364" xlink:href="#wiP_c"/><use x="63.53591" y="-4.707126" xlink:href="#wiP_a"/><rect x="58.214" y="-3.2279" width="14.877" height=".47819"/><use x="58.214359" y="4.122632" xlink:href="#wiP_a"/><use x="62.448542" y="4.122632" xlink:href="#wiP_i"/><use x="69.035049" y="4.122632" xlink:href="#wiP_g"/></g></svg>
