<svg width="8.698em" height="3.3978em" style="vertical-align:-0.000000em" version="1.1" viewBox="190.71 -41.864 103.6 40.469" xmlns="http://www.w3.org/2000/svg" xmlns:xlink="http://www.w3.org/1999/xlink"><defs><path id="fvu_g" d="m3.8854 2.9051c0-0.035866 0-0.059776-0.20324-0.26301-1.1955-1.2075-1.865-3.1801-1.865-5.6189 0-2.3193 0.56189-4.3158 1.9487-5.7265 0.11955-0.1076 0.11955-0.13151 0.11955-0.16737 0-0.071731-0.059776-0.095641-0.1076-0.095641-0.15542 0-1.1357 0.86077-1.7215 2.0324-0.60971 1.2075-0.88468 2.4867-0.88468 3.9572 0 1.064 0.16737 2.4867 0.78904 3.7659 0.70535 1.4346 1.6857 2.2117 1.8172 2.2117 0.047821 0 0.1076-0.02391 0.1076-0.095641z"/><path id="fvu_f" d="m3.3714-2.9768c0-0.90859-0.11955-2.391-0.78904-3.7778-0.70536-1.4346-1.6857-2.2117-1.8172-2.2117-0.047821 0-0.1076 0.02391-0.1076 0.095641 0 0.035866 0 0.059776 0.20324 0.26301 1.1955 1.2075 1.865 3.1801 1.865 5.6189 0 2.3193-0.56189 4.3158-1.9487 5.7265-0.11955 0.1076-0.11955 0.13151-0.11955 0.16737 0 0.071731 0.059776 0.095641 0.1076 0.095641 0.15542 0 1.1357-0.86077 1.7215-2.0324 0.60971-1.2194 0.88468-2.5106 0.88468-3.9452z"/><path id="fvu_e" d="m4.7701-2.7616h3.2996c0.16737 0 0.38257 0 0.38257-0.21519 0-0.22715-0.20324-0.22715-0.38257-0.22715h-3.2996v-3.2996c0-0.16737 0-0.38257-0.21519-0.38257-0.22715 0-0.22715 0.20324-0.22715 0.38257v3.2996h-3.2996c-0.16737 0-0.38256 0-0.38256 0.21519 0 0.22715 0.20324 0.22715 0.38256 0.22715h3.2996v3.2996c0 0.16737 0 0.38256 0.21519 0.38256 0.22715 0 0.22715-0.20324 0.22715-0.38256v-3.2996z"/><path id="fvu_d" d="m3.4431-7.6633c0-0.27497 0-0.28692-0.2391-0.28692-0.28692 0.32279-0.88468 0.76513-2.1161 0.76513v0.3467c0.27497 0 0.87273 0 1.5303-0.31084v6.2286c0 0.43039-0.035866 0.57385-1.0879 0.57385h-0.37061v0.3467c0.32279-0.02391 1.4824-0.02391 1.877-0.02391s1.5422 0 1.865 0.02391v-0.3467h-0.37061c-1.0521 0-1.0879-0.14346-1.0879-0.57385v-6.7427z"/><path id="fvu_c" d="m5.2603-2.0085h-0.26301c-0.035865 0.20324-0.13151 0.86077-0.25106 1.0521-0.083686 0.1076-0.76513 0.1076-1.1238 0.1076h-2.2117c0.32279-0.27497 1.0521-1.0401 1.3629-1.327 1.8172-1.6737 2.4867-2.2954 2.4867-3.479 0-1.3748-1.0879-2.2954-2.4747-2.2954s-2.1998 1.1836-2.1998 2.2117c0 0.60971 0.52603 0.60971 0.56189 0.60971 0.25106 0 0.56189-0.17933 0.56189-0.56189 0-0.33474-0.22715-0.56189-0.56189-0.56189-0.1076 0-0.13151 0-0.16737 0.011955 0.22715-0.81295 0.87273-1.3629 1.6498-1.3629 1.0162 0 1.6379 0.84882 1.6379 1.9487 0 1.0162-0.5858 1.9009-1.2672 2.666l-2.4149 2.7019v0.28692h4.3636l0.31083-2.0085z"/><path id="fvu_b" d="m8.0697-3.8735c0.16737 0 0.38257 0 0.38257-0.21519 0-0.22715-0.20324-0.22715-0.38257-0.22715h-7.0416c-0.16737 0-0.38256 0-0.38256 0.21519 0 0.22715 0.20324 0.22715 0.38256 0.22715h7.0416zm0 2.2237c0.16737 0 0.38257 0 0.38257-0.21519 0-0.22715-0.20324-0.22715-0.38257-0.22715h-7.0416c-0.16737 0-0.38256 0-0.38256 0.21519 0 0.22715 0.20324 0.22715 0.38256 0.22715h7.0416z"/><path id="fvu_j" d="m3.3833-1.7096c0-0.059776-0.047821-0.1076-0.11955-0.1076-0.1076 0-0.11955 0.035866-0.17933 0.2391-0.31083 1.0879-0.801 1.4585-1.1955 1.4585-0.14346 0-0.31084-0.035865-0.31084-0.39452 0-0.32279 0.14346-0.68144 0.27497-1.0401l0.83686-2.2237c0.035865-0.095641 0.11955-0.31083 0.11955-0.53798 0-0.50212-0.35866-0.95641-0.94446-0.95641-1.0999 0-1.5422 1.7335-1.5422 1.8291 0 0.04782 0.04782 0.1076 0.13151 0.1076 0.1076 0 0.11955-0.047821 0.16737-0.21519 0.28692-1.0042 0.74122-1.4824 1.2075-1.4824 0.1076 0 0.31083 0.011955 0.31083 0.39452 0 0.31083-0.15542 0.70536-0.25106 0.96837l-0.83686 2.2237c-0.071731 0.19128-0.14346 0.38256-0.14346 0.59776 0 0.53798 0.37061 0.96837 0.94446 0.96837 1.0999 0 1.5303-1.7455 1.5303-1.8291zm-0.095642-5.7504c0-0.17933-0.14346-0.39452-0.40648-0.39452-0.27497 0-0.5858 0.26301-0.5858 0.57385 0 0.29888 0.25106 0.39452 0.39452 0.39452 0.32279 0 0.59776-0.31083 0.59776-0.57385z"/><path id="fvu_a" d="m2.4628-3.5029c0.02391-0.071731 0.32279-0.66949 0.76513-1.0521 0.31084-0.28692 0.71731-0.47821 1.1836-0.47821 0.47821 0 0.64558 0.35866 0.64558 0.83686 0 0.68144-0.49016 2.0443-0.72926 2.6899-0.1076 0.28692-0.16737 0.44234-0.16737 0.65753 0 0.53798 0.37061 0.96837 0.94446 0.96837 1.1118 0 1.5303-1.7574 1.5303-1.8291 0-0.059776-0.04782-0.1076-0.11955-0.1076-0.1076 0-0.11955 0.035866-0.17933 0.2391-0.27497 0.98032-0.72926 1.4585-1.1955 1.4585-0.11955 0-0.31083-0.011955-0.31083-0.39452 0-0.29888 0.13151-0.65753 0.20324-0.82491 0.2391-0.65753 0.74122-1.9965 0.74122-2.678 0-0.71731-0.41843-1.2553-1.327-1.2553-1.064 0-1.6259 0.75318-1.8411 1.0521-0.035866-0.68144-0.52603-1.0521-1.0521-1.0521-0.38257 0-0.64558 0.22715-0.84882 0.63362-0.21519 0.43039-0.38256 1.1477-0.38256 1.1955s0.04782 0.1076 0.13151 0.1076c0.095642 0 0.1076-0.011955 0.17933-0.28692 0.19128-0.72926 0.40648-1.4107 0.88468-1.4107 0.27497 0 0.37061 0.19128 0.37061 0.54994 0 0.26301-0.11955 0.72926-0.20324 1.0999l-0.33474 1.2912c-0.047821 0.22715-0.17933 0.76513-0.2391 0.98032-0.083687 0.31084-0.21519 0.87273-0.21519 0.9325 0 0.16737 0.13151 0.29888 0.31083 0.29888 0.14346 0 0.31083-0.071731 0.40648-0.25106 0.02391-0.059776 0.13151-0.47821 0.19128-0.71731l0.26301-1.076 0.39452-1.5781z"/><path id="fvu_i" d="m2.5026-5.077c0-0.21519-0.01594-0.22316-0.23113-0.22316-0.32678 0.3188-0.74919 0.51009-1.5064 0.51009v0.26301c0.21519 0 0.64558 0 1.1078-0.21519v4.0887c0 0.29489-0.02391 0.39054-0.78107 0.39054h-0.27895v0.26301c0.32678-0.02391 1.0122-0.02391 1.3709-0.02391s1.0521 0 1.3788 0.02391v-0.26301h-0.27895c-0.75716 0-0.78107-0.095641-0.78107-0.39054v-4.4234z"/><path id="fvu_h" d="m5.8262-2.654c0.11955 0 0.27895 0 0.27895-0.18331s-0.19128-0.18331-0.31084-0.18331h-5.0132c-0.11955 0-0.31083 0-0.31083 0.18331s0.1594 0.18331 0.27895 0.18331h5.077zm-0.031881 1.6897c0.11955 0 0.31084 0 0.31084-0.18331s-0.1594-0.18331-0.27895-0.18331h-5.077c-0.11955 0-0.27895 0-0.27895 0.18331s0.19128 0.18331 0.31083 0.18331h5.0132z"/><path id="fvu_m" d="m15.135 16.737 1.4466-3.8257h-0.29888c-0.46625 1.2433-1.7335 2.0563-3.1083 2.4149-0.25106 0.059775-1.4227 0.37061-3.7181 0.37061h-7.209l6.0852-7.1372c0.083686-0.095641 0.1076-0.13151 0.1076-0.19128 0-0.023911 0-0.059776-0.083686-0.17933l-5.5711-7.6154h6.5514c1.602 0 2.6899 0.16737 2.7975 0.19128 0.64558 0.095641 1.6857 0.29888 2.6301 0.89664 0.29888 0.19128 1.1118 0.72927 1.5183 1.6976h0.29888l-1.4466-3.3594h-14.131c-0.27497 0-0.28692 0.011955-0.32279 0.083686-0.011956 0.035866-0.011956 0.26301-0.011956 0.39452l6.3243 8.6555-6.1928 7.2568c-0.11955 0.14346-0.11955 0.20324-0.11955 0.21519 0 0.13151 0.1076 0.13151 0.32279 0.13151h14.131z"/><path id="fvu_l" d="m2.3751-4.9734c0-0.17534-0.12752-0.30286-0.31083-0.30286-0.20722 0-0.43836 0.19128-0.43836 0.43039 0 0.17534 0.12752 0.30286 0.31083 0.30286 0.20722 0 0.43836-0.19128 0.43836-0.43039zm-1.1636 2.925-0.43039 1.0999c-0.039851 0.11955-0.079701 0.21519-0.079701 0.35068 0 0.39054 0.30286 0.67746 0.72528 0.67746 0.7731 0 1.0999-1.1158 1.0999-1.2194 0-0.079701-0.063761-0.10361-0.11955-0.10361-0.095641 0-0.11158 0.05579-0.13549 0.13549-0.18331 0.63761-0.51009 0.96438-0.82889 0.96438-0.095641 0-0.19128-0.039851-0.19128-0.25504 0-0.19128 0.05579-0.33474 0.1594-0.58182 0.079701-0.21519 0.1594-0.43039 0.24707-0.64558l0.24707-0.64558c0.071731-0.18331 0.16737-0.43039 0.16737-0.56588 0-0.39851-0.3188-0.67746-0.72528-0.67746-0.7731 0-1.1078 1.1158-1.1078 1.2194 0 0.071731 0.055791 0.10361 0.11955 0.10361 0.10361 0 0.11158-0.04782 0.13549-0.12752 0.22316-0.75716 0.58979-0.97235 0.82889-0.97235 0.11158 0 0.19128 0.03985 0.19128 0.26301 0 0.079702-0.00797 0.19128-0.087671 0.43039l-0.21519 0.54994z"/><path id="fvu_k" d="m1.594-1.3071c0.023911-0.11955 0.10361-0.42242 0.12752-0.54197 0.11158-0.43039 0.11158-0.43836 0.29489-0.70137 0.26301-0.39054 0.63761-0.74122 1.1716-0.74122 0.28692 0 0.4543 0.16737 0.4543 0.54197 0 0.43836-0.33474 1.3469-0.48618 1.7375-0.10361 0.26301-0.10361 0.31083-0.10361 0.41445 0 0.4543 0.3746 0.67746 0.71731 0.67746 0.78107 0 1.1078-1.1158 1.1078-1.2194 0-0.079701-0.063761-0.10361-0.11955-0.10361-0.095641 0-0.11158 0.05579-0.13549 0.13549-0.19128 0.65355-0.52603 0.96438-0.82889 0.96438-0.12752 0-0.19128-0.079701-0.19128-0.26301s0.063761-0.35866 0.14346-0.55791c0.11955-0.30286 0.47024-1.2194 0.47024-1.6658 0-0.59776-0.41445-0.88468-0.98829-0.88468-0.64558 0-1.06 0.39054-1.2912 0.6934-0.055791-0.43836-0.40648-0.6934-0.81295-0.6934-0.28692 0-0.48618 0.18331-0.6137 0.43039-0.19128 0.3746-0.27098 0.7731-0.27098 0.78904 0 0.071731 0.055791 0.10361 0.11955 0.10361 0.10361 0 0.11158-0.03188 0.16737-0.2391 0.095642-0.39054 0.2391-0.86077 0.57385-0.86077 0.20722 0 0.25504 0.19925 0.25504 0.3746 0 0.14346-0.039851 0.29489-0.10361 0.55791-0.015941 0.063761-0.13549 0.534-0.16737 0.64558l-0.29489 1.1955c-0.03188 0.11955-0.079701 0.3188-0.079701 0.35068 0 0.18331 0.15143 0.24707 0.25504 0.24707 0.14346 0 0.26301-0.095641 0.3188-0.19128 0.02391-0.04782 0.087671-0.3188 0.12752-0.48618l0.18331-0.70934z"/></defs><g id="fvu_n" transform="scale(1.25)"><use x="157.965339" y="-29.976425" xlink:href="#fvu_k"/><use x="151.900132" y="-26.389869" xlink:href="#fvu_m"/><use x="153.682525" y="-1.195514" xlink:href="#fvu_l"/><use x="156.565665" y="-1.195514" xlink:href="#fvu_h"/><use x="163.152172" y="-1.195514" xlink:href="#fvu_i"/><use x="171.161246" y="-15.032404" xlink:href="#fvu_j"/><use x="178.475507" y="-15.032404" xlink:href="#fvu_b"/><use x="192.096502" y="-23.120163" xlink:href="#fvu_a"/><use x="199.084108" y="-23.120163" xlink:href="#fvu_g"/><use x="203.636434" y="-23.120163" xlink:href="#fvu_a"/><use x="213.280703" y="-23.120163" xlink:href="#fvu_e"/><use x="225.042018" y="-23.120163" xlink:href="#fvu_d"/><use x="230.895008" y="-23.120163" xlink:href="#fvu_f"/><rect x="192.1" y="-18.26" width="43.351" height=".47819"/><use x="210.845423" y="-6.831742" xlink:href="#fvu_c"/></g></svg>
