<svg width="2.1107em" height=".66749em" style="vertical-align:-0.000000em" version="1.1" viewBox=".5858 -7.9502 25.139 7.9502" xmlns="http://www.w3.org/2000/svg" xmlns:xlink="http://www.w3.org/1999/xlink"><defs><path id="QUT_b" d="m4.6506-3.3235-2.391-2.3791c-0.14346-0.14346-0.16737-0.16737-0.26301-0.16737-0.11955 0-0.2391 0.1076-0.2391 0.2391 0 0.083686 0.02391 0.1076 0.15542 0.2391l2.391 2.403-2.391 2.403c-0.13151 0.13151-0.15542 0.15542-0.15542 0.2391 0 0.13151 0.11955 0.2391 0.2391 0.2391 0.095641 0 0.11955-0.02391 0.26301-0.16737l2.3791-2.3791 2.4747 2.4747c0.02391 0.011956 0.1076 0.071731 0.17933 0.071731 0.14346 0 0.2391-0.1076 0.2391-0.2391 0-0.02391 0-0.071731-0.035866-0.13151-0.011955-0.02391-1.9128-1.9009-2.5106-2.5106l2.1878-2.1878c0.059776-0.071731 0.2391-0.22715 0.29888-0.29888 0.011955-0.02391 0.059776-0.071731 0.059776-0.15542 0-0.13151-0.095641-0.2391-0.2391-0.2391-0.095642 0-0.14346 0.047821-0.27497 0.17933l-2.3671 2.3671z"/><path id="QUT_a" d="m5.2603-2.0085h-0.26301c-0.035865 0.20324-0.13151 0.86077-0.25106 1.0521-0.083686 0.1076-0.76513 0.1076-1.1238 0.1076h-2.2117c0.32279-0.27497 1.0521-1.0401 1.3629-1.327 1.8172-1.6737 2.4867-2.2954 2.4867-3.479 0-1.3748-1.0879-2.2954-2.4747-2.2954s-2.1998 1.1836-2.1998 2.2117c0 0.60971 0.52603 0.60971 0.56189 0.60971 0.25106 0 0.56189-0.17933 0.56189-0.56189 0-0.33474-0.22715-0.56189-0.56189-0.56189-0.1076 0-0.13151 0-0.16737 0.011955 0.22715-0.81295 0.87273-1.3629 1.6498-1.3629 1.0162 0 1.6379 0.84882 1.6379 1.9487 0 1.0162-0.5858 1.9009-1.2672 2.666l-2.4149 2.7019v0.28692h4.3636l0.31083-2.0085z"/></defs><g id="QUT_c"><use xlink:href="#QUT_a"/><use x="8.509654" xlink:href="#QUT_b"/><use x="20.464814" xlink:href="#QUT_a"/></g></svg>
