<svg width="10.859em" height="2.8043em" style="vertical-align:-0.012547em" version="1.1" viewBox="177.63 -33.251 129.33 33.401" xmlns="http://www.w3.org/2000/svg" xmlns:xlink="http://www.w3.org/1999/xlink"><defs><path id="kIk_g" d="m2.2476-1.6259c0.12752-0.11955 0.46227-0.38256 0.58979-0.49415 0.49415-0.4543 0.96438-0.89265 0.96438-1.6179 0-0.94844-0.79701-1.5621-1.7933-1.5621-0.95641 0-1.5861 0.72528-1.5861 1.4346 0 0.39054 0.31083 0.44633 0.42242 0.44633 0.16737 0 0.41445-0.11955 0.41445-0.42242 0-0.41445-0.39851-0.41445-0.49415-0.41445 0.23113-0.58182 0.76513-0.78107 1.1557-0.78107 0.74122 0 1.1238 0.62964 1.1238 1.2991 0 0.82889-0.58182 1.4346-1.5223 2.399l-1.0042 1.0361c-0.095641 0.087671-0.095641 0.10361-0.095641 0.30286h3.1482l0.23113-1.4266h-0.24707c-0.02391 0.1594-0.087671 0.55791-0.18331 0.70934-0.04782 0.063761-0.65355 0.063761-0.78107 0.063761h-1.4187l1.076-0.97235z"/><path id="kIk_f" d="m5.2603-2.0085h-0.26301c-0.035865 0.20324-0.13151 0.86077-0.25106 1.0521-0.083686 0.1076-0.76513 0.1076-1.1238 0.1076h-2.2117c0.32279-0.27497 1.0521-1.0401 1.3629-1.327 1.8172-1.6737 2.4867-2.2954 2.4867-3.479 0-1.3748-1.0879-2.2954-2.4747-2.2954s-2.1998 1.1836-2.1998 2.2117c0 0.60971 0.52603 0.60971 0.56189 0.60971 0.25106 0 0.56189-0.17933 0.56189-0.56189 0-0.33474-0.22715-0.56189-0.56189-0.56189-0.1076 0-0.13151 0-0.16737 0.011955 0.22715-0.81295 0.87273-1.3629 1.6498-1.3629 1.0162 0 1.6379 0.84882 1.6379 1.9487 0 1.0162-0.5858 1.9009-1.2672 2.666l-2.4149 2.7019v0.28692h4.3636l0.31083-2.0085z"/><path id="kIk_e" d="m4.3158-7.7828c0-0.22715 0-0.28692-0.16737-0.28692-0.095641 0-0.13151 0-0.22715 0.14346l-3.5985 5.5831v0.3467h3.1442v1.0879c0 0.44234-0.023911 0.56189-0.89664 0.56189h-0.2391v0.3467c0.27497-0.02391 1.2194-0.02391 1.5542-0.02391s1.2912 0 1.5661 0.02391v-0.3467h-0.2391c-0.86077 0-0.89664-0.11955-0.89664-0.56189v-1.0879h1.2075v-0.3467h-1.2075v-5.4396zm-0.78904 0.9325v4.5071h-2.9051l2.9051-4.5071z"/><path id="kIk_d" d="m8.0697-3.8735c0.16737 0 0.38257 0 0.38257-0.21519 0-0.22715-0.20324-0.22715-0.38257-0.22715h-7.0416c-0.16737 0-0.38256 0-0.38256 0.21519 0 0.22715 0.20324 0.22715 0.38256 0.22715h7.0416zm0 2.2237c0.16737 0 0.38257 0 0.38257-0.21519 0-0.22715-0.20324-0.22715-0.38257-0.22715h-7.0416c-0.16737 0-0.38256 0-0.38256 0.21519 0 0.22715 0.20324 0.22715 0.38256 0.22715h7.0416z"/><path id="kIk_c" d="m7.8785-2.7497c0.20324 0 0.41843 0 0.41843-0.2391s-0.21519-0.2391-0.41843-0.2391h-6.4677c-0.20324 0-0.41843 0-0.41843 0.2391s0.21519 0.2391 0.41843 0.2391h6.4677z"/><path id="kIk_j" d="m4.8897-3.742h3.3235c0.20324 0 0.41843 0 0.41843-0.2391s-0.21519-0.2391-0.41843-0.2391h-3.3235v-3.2996c0-0.19128 0-0.44234-0.2391-0.44234s-0.2391 0.21519-0.2391 0.40648v3.3355h-3.3355c-0.20324 0-0.41843 0-0.41843 0.2391s0.21519 0.2391 0.41843 0.2391h3.3355v3.2638h-3.3355c-0.20324 0-0.41843 0-0.41843 0.2391s0.21519 0.2391 0.41843 0.2391h7.1372c0.20324 0 0.41843 0 0.41843-0.2391s-0.21519-0.2391-0.41843-0.2391h-3.3235v-3.2638z"/><path id="kIk_k" d="m4.6506 10.222-2.1041-4.6506c-0.083686-0.19128-0.14346-0.19128-0.17933-0.19128-0.011955 0-0.071731 0-0.20324 0.095641l-1.1357 0.86077c-0.15542 0.11955-0.15542 0.15542-0.15542 0.19128 0 0.059776 0.035866 0.13151 0.11955 0.13151 0.071731 0 0.27497-0.16737 0.40648-0.26301 0.071731-0.059776 0.25106-0.19128 0.38256-0.28692l2.3552 5.1766c0.083686 0.19128 0.14346 0.19128 0.25106 0.19128 0.17933 0 0.21519-0.071731 0.29888-0.2391l5.4276-11.238c0.083686-0.16737 0.083686-0.21519 0.083686-0.2391 0-0.11955-0.095641-0.2391-0.2391-0.2391-0.095641 0-0.17933 0.059776-0.27497 0.25106l-5.0331 10.449z"/><path id="kIk_b" d="m3.5985-1.4227c-0.059776 0.20324-0.059776 0.22715-0.22715 0.4543-0.26301 0.33474-0.78904 0.84882-1.3509 0.84882-0.49016 0-0.76513-0.44234-0.76513-1.1477 0-0.65753 0.37061-1.9965 0.59776-2.4986 0.40648-0.83686 0.96837-1.2672 1.4346-1.2672 0.78904 0 0.94446 0.98032 0.94446 1.076 0 0.011956-0.035866 0.16737-0.047821 0.19128l-0.5858 2.3432zm0.76513-3.0605c-0.13151-0.31083-0.4543-0.78904-1.076-0.78904-1.3509 0-2.8095 1.7455-2.8095 3.5148 0 1.1836 0.6934 1.877 1.5064 1.877 0.65753 0 1.2194-0.51407 1.5542-0.90859 0.11955 0.70536 0.68144 0.90859 1.0401 0.90859s0.64558-0.21519 0.86077-0.64558c0.19128-0.40648 0.35866-1.1357 0.35866-1.1836 0-0.059776-0.047821-0.1076-0.11955-0.1076-0.1076 0-0.11955 0.059776-0.16737 0.2391-0.17933 0.70536-0.40648 1.4585-0.89664 1.4585-0.3467 0-0.37061-0.31083-0.37061-0.54994 0-0.27497 0.035865-0.40648 0.14346-0.87273 0.083686-0.29888 0.14346-0.56189 0.2391-0.90859 0.44234-1.7933 0.54994-2.2237 0.54994-2.2954 0-0.16737-0.13151-0.29888-0.31084-0.29888-0.38256 0-0.47821 0.41843-0.50212 0.56189z"/><path id="kIk_a" d="m2.7616-7.998c0.011955-0.047821 0.035865-0.11955 0.035865-0.17933 0-0.11955-0.11955-0.11955-0.14346-0.11955-0.011955 0-0.44234 0.035866-0.65753 0.059776-0.20324 0.011955-0.38256 0.035866-0.59776 0.047821-0.28692 0.02391-0.37061 0.035865-0.37061 0.25106 0 0.11955 0.11955 0.11955 0.2391 0.11955 0.60971 0 0.60971 0.1076 0.60971 0.22715 0 0.083686-0.095641 0.43039-0.14346 0.64558l-0.28692 1.1477c-0.11955 0.47821-0.801 3.192-0.84882 3.4072-0.059775 0.29888-0.059775 0.50212-0.059775 0.65754 0 1.2194 0.68144 1.8531 1.4585 1.8531 1.3868 0 2.8214-1.7813 2.8214-3.5148 0-1.0999-0.62167-1.877-1.5183-1.877-0.62167 0-1.1836 0.51407-1.4107 0.75318l0.87273-3.479zm-0.75318 7.8785c-0.38256 0-0.801-0.28692-0.801-1.2194 0-0.39452 0.035865-0.62167 0.25106-1.4585 0.035865-0.15542 0.22715-0.92055 0.27497-1.076 0.023911-0.095642 0.72927-1.1597 1.5422-1.1597 0.52603 0 0.76513 0.52603 0.76513 1.1477 0 0.57385-0.33474 1.9248-0.63362 2.5465-0.29888 0.64558-0.84882 1.2194-1.3988 1.2194z"/><path id="kIk_h" d="m4.6745-4.4951c-0.22715 0-0.33474 0-0.50212 0.14346-0.071731 0.059776-0.20324 0.2391-0.20324 0.43039 0 0.2391 0.17933 0.38256 0.40648 0.38256 0.28692 0 0.60971-0.2391 0.60971-0.71731 0-0.57385-0.54994-1.0162-1.3748-1.0162-1.5661 0-3.1323 1.7096-3.1323 3.4072 0 1.0401 0.64558 1.9846 1.865 1.9846 1.6259 0 2.654-1.2672 2.654-1.4227 0-0.071731-0.071731-0.13151-0.11955-0.13151-0.035866 0-0.047821 0.011955-0.15542 0.11955-0.76513 1.0162-1.9009 1.1955-2.3552 1.1955-0.82491 0-1.0879-0.71731-1.0879-1.3151 0-0.41843 0.20324-1.5781 0.63362-2.391 0.31083-0.56189 0.95641-1.2075 1.7096-1.2075 0.15542 0 0.81295 0.023911 1.0521 0.53798z"/><path id="kIk_i" d="m5.6668-4.8777c-0.38257 0.071731-0.52603 0.35866-0.52603 0.5858 0 0.28692 0.22715 0.38256 0.39452 0.38256 0.35866 0 0.60971-0.31083 0.60971-0.63362 0-0.50212-0.57385-0.72926-1.076-0.72926-0.72926 0-1.1357 0.71731-1.2433 0.94446-0.27497-0.89664-1.0162-0.94446-1.2314-0.94446-1.2194 0-1.865 1.5661-1.865 1.8291 0 0.04782 0.047821 0.1076 0.13151 0.1076 0.095641 0 0.11955-0.071731 0.14346-0.11955 0.40648-1.327 1.2075-1.5781 1.5542-1.5781 0.53798 0 0.64558 0.50212 0.64558 0.78904 0 0.26301-0.071731 0.53798-0.21519 1.1118l-0.40648 1.6379c-0.17933 0.71731-0.52603 1.3748-1.1597 1.3748-0.059776 0-0.35866 0-0.60971-0.15542 0.43039-0.083686 0.52603-0.44234 0.52603-0.5858 0-0.2391-0.17933-0.38256-0.40648-0.38256-0.28692 0-0.59776 0.25106-0.59776 0.63362 0 0.50212 0.56189 0.72927 1.076 0.72927 0.57385 0 0.98032-0.4543 1.2314-0.94446 0.19128 0.70536 0.78904 0.94446 1.2314 0.94446 1.2194 0 1.865-1.5661 1.865-1.8291 0-0.059776-0.047821-0.1076-0.11955-0.1076-0.1076 0-0.11955 0.059776-0.15542 0.15542-0.32279 1.0521-1.0162 1.5422-1.5542 1.5422-0.41843 0-0.64558-0.31083-0.64558-0.801 0-0.26301 0.047821-0.4543 0.2391-1.2433l0.41843-1.6259c0.17933-0.71731 0.5858-1.2433 1.1357-1.2433 0.02391 0 0.35866 0 0.60971 0.15542z"/></defs><g id="kIk_l" transform="scale(1.25)"><use x="141.773175" y="-8.200662" xlink:href="#kIk_i"/><use x="151.746092" y="-8.200662" xlink:href="#kIk_d"/><use x="165.367087" y="-16.288421" xlink:href="#kIk_c"/><use x="174.665584" y="-16.288421" xlink:href="#kIk_a"/><use x="182.299352" y="-16.288421" xlink:href="#kIk_j"/><use x="194.254513" y="-26.122652" xlink:href="#kIk_k"/><rect x="204.22" y="-26.601" width="41.357" height=".47819"/><use x="204.217183" y="-16.288421" xlink:href="#kIk_a"/><use x="209.194289" y="-19.742129" xlink:href="#kIk_g"/><use x="216.583267" y="-16.288421" xlink:href="#kIk_c"/><use x="228.538428" y="-16.288421" xlink:href="#kIk_e"/><use x="234.391418" y="-16.288421" xlink:href="#kIk_b"/><use x="240.536362" y="-16.288421" xlink:href="#kIk_h"/><rect x="165.37" y="-11.429" width="80.207" height=".47819"/><use x="199.471723" xlink:href="#kIk_f"/><use x="205.324713" xlink:href="#kIk_b"/></g></svg>
