<svg width="9.4855em" height="2.953em" style="vertical-align:-0.017566em" version="1.1" viewBox="186.02 -34.963 112.98 35.172" xmlns="http://www.w3.org/2000/svg" xmlns:xlink="http://www.w3.org/1999/xlink"><defs><path id="vjm_j" d="m4.6506 10.222-2.1041-4.6506c-0.083686-0.19128-0.14346-0.19128-0.17933-0.19128-0.011955 0-0.071731 0-0.20324 0.095641l-1.1357 0.86077c-0.15542 0.11955-0.15542 0.15542-0.15542 0.19128 0 0.059776 0.035866 0.13151 0.11955 0.13151 0.071731 0 0.27497-0.16737 0.40648-0.26301 0.071731-0.059776 0.25106-0.19128 0.38256-0.28692l2.3552 5.1766c0.083686 0.19128 0.14346 0.19128 0.25106 0.19128 0.17933 0 0.21519-0.071731 0.29888-0.2391l5.4276-11.238c0.083686-0.16737 0.083686-0.21519 0.083686-0.2391 0-0.11955-0.095641-0.2391-0.2391-0.2391-0.095641 0-0.17933 0.059776-0.27497 0.25106l-5.0331 10.449z"/><path id="vjm_d" d="m3.2159-1.1178h-0.22117c-0.011956 0.083686-0.071731 0.47821-0.1614 0.54396-0.041843 0.035865-0.52603 0.035865-0.60971 0.035865h-1.1178l0.76513-0.62167c0.20324-0.1614 0.73524-0.54396 0.92055-0.72329 0.17933-0.17933 0.42441-0.48418 0.42441-0.90859 0-0.7472-0.67547-1.1836-1.4765-1.1836-0.77111 0-1.3091 0.50809-1.3091 1.07 0 0.30486 0.25704 0.34072 0.32279 0.34072 0.14944 0 0.32279-0.1076 0.32279-0.32279 0-0.13151-0.077708-0.32279-0.34072-0.32279 0.13748-0.30486 0.50212-0.532 0.91457-0.532 0.62765 0 0.96239 0.46625 0.96239 0.95044 0 0.42441-0.28095 0.86077-0.69938 1.2433l-1.4167 1.2971c-0.059775 0.059776-0.065753 0.065754-0.065753 0.25106h2.6002l0.1853-1.1178z"/><path id="vjm_i" d="m3.993-3.1801c-0.35068 0.087672-0.36662 0.39851-0.36662 0.43039 0 0.17534 0.13549 0.29489 0.31083 0.29489s0.44633-0.13549 0.44633-0.47821c0-0.4543-0.50212-0.58182-0.79701-0.58182-0.3746 0-0.67746 0.26301-0.86077 0.57385-0.17534-0.42242-0.58979-0.57385-0.91656-0.57385-0.86874 0-1.3549 0.99626-1.3549 1.2194 0 0.071731 0.055791 0.10361 0.11955 0.10361 0.095641 0 0.11158-0.03985 0.13549-0.13549 0.18331-0.58182 0.66152-0.96438 1.076-0.96438 0.31083 0 0.46227 0.22316 0.46227 0.51009 0 0.1594-0.095642 0.52603-0.1594 0.78107-0.05579 0.23113-0.23113 0.94047-0.27098 1.0919-0.11158 0.43039-0.39851 0.76513-0.75716 0.76513-0.031881 0-0.2391 0-0.40648-0.11158 0.36662-0.087671 0.36662-0.42242 0.36662-0.43039 0-0.18331-0.14346-0.29489-0.3188-0.29489-0.21519 0-0.44633 0.18331-0.44633 0.48618 0 0.36662 0.39054 0.57385 0.79701 0.57385 0.42242 0 0.71731-0.3188 0.86077-0.57385 0.17534 0.39054 0.54197 0.57385 0.92453 0.57385 0.86874 0 1.3469-0.99626 1.3469-1.2194 0-0.079701-0.063761-0.10361-0.11955-0.10361-0.095641 0-0.11158 0.05579-0.13549 0.13549-0.1594 0.534-0.6137 0.96438-1.076 0.96438-0.26301 0-0.4543-0.17534-0.4543-0.51009 0-0.1594 0.04782-0.34272 0.1594-0.78904 0.055791-0.2391 0.23113-0.94047 0.27098-1.0919 0.11158-0.41444 0.39054-0.75716 0.74919-0.75716 0.039851 0 0.24707 0 0.41445 0.11158z"/><path id="vjm_e" d="m3.0964-4.5071h1.3509c-0.32279 1.339-0.52603 2.2117-0.52603 3.1681 0 0.16737 0 1.4585 0.49016 1.4585 0.25106 0 0.46625-0.22715 0.46625-0.43039 0-0.059776 0-0.083687-0.083687-0.26301-0.32279-0.82491-0.32279-1.8531-0.32279-1.9367 0-0.071731 0-0.92055 0.25106-1.9965h1.339c0.15542 0 0.54994 0 0.54994-0.38257 0-0.26301-0.22715-0.26301-0.44234-0.26301h-3.9333c-0.27497 0-0.68144 0-1.2314 0.5858-0.31083 0.3467-0.6934 0.98032-0.6934 1.0521s0.059776 0.095641 0.13151 0.095641c0.083686 0 0.095642-0.035866 0.15542-0.1076 0.62167-0.98032 1.2433-0.98032 1.5422-0.98032h0.68144c-0.26301 0.89664-0.56189 1.9367-1.5422 4.0289-0.095641 0.19128-0.095641 0.21519-0.095641 0.28692 0 0.25106 0.21519 0.31084 0.32279 0.31084 0.3467 0 0.44234-0.31084 0.5858-0.81295 0.19128-0.60971 0.19128-0.63362 0.31084-1.1118l0.6934-2.7019z"/><path id="vjm_h" d="m6.0134-7.998c0.011955-0.047821 0.035865-0.11955 0.035865-0.17933 0-0.11955-0.11955-0.11955-0.14346-0.11955-0.011955 0-0.59776 0.047821-0.65753 0.059776-0.20324 0.011955-0.38257 0.035866-0.59776 0.047821-0.29888 0.02391-0.38256 0.035865-0.38256 0.25106 0 0.11955 0.095641 0.11955 0.26301 0.11955 0.5858 0 0.59776 0.1076 0.59776 0.22715 0 0.071731-0.02391 0.16737-0.035865 0.20324l-0.72927 2.9051c-0.13151-0.31083-0.4543-0.78904-1.076-0.78904-1.3509 0-2.8095 1.7455-2.8095 3.5148 0 1.1836 0.6934 1.877 1.5064 1.877 0.65753 0 1.2194-0.51407 1.5542-0.90859 0.11955 0.70536 0.68144 0.90859 1.0401 0.90859s0.64558-0.21519 0.86077-0.64558c0.19128-0.40648 0.35866-1.1357 0.35866-1.1836 0-0.059776-0.047821-0.1076-0.11955-0.1076-0.1076 0-0.11955 0.059776-0.16737 0.2391-0.17933 0.70536-0.40648 1.4585-0.89664 1.4585-0.3467 0-0.37061-0.31083-0.37061-0.54994 0-0.047821 0-0.29888 0.083686-0.63362l1.6857-6.6949zm-2.4149 6.5753c-0.059776 0.20324-0.059776 0.22715-0.22715 0.4543-0.26301 0.33474-0.78904 0.84882-1.3509 0.84882-0.49016 0-0.76513-0.44234-0.76513-1.1477 0-0.65753 0.37061-1.9965 0.59776-2.4986 0.40648-0.83686 0.96837-1.2672 1.4346-1.2672 0.78904 0 0.94446 0.98032 0.94446 1.076 0 0.011956-0.035866 0.16737-0.047821 0.19128l-0.5858 2.3432z"/><path id="vjm_g" d="m2.14-2.7736c0.32279 0 1.1357-0.02391 1.7096-0.2391 0.90859-0.3467 0.99228-1.0401 0.99228-1.2553 0-0.52603-0.4543-1.0042-1.2433-1.0042-1.2553 0-3.0605 1.1357-3.0605 3.2638 0 1.2553 0.71731 2.128 1.8052 2.128 1.6259 0 2.654-1.2672 2.654-1.4227 0-0.071731-0.071731-0.13151-0.11955-0.13151-0.035866 0-0.047821 0.011955-0.15542 0.11955-0.76513 1.0162-1.9009 1.1955-2.3552 1.1955-0.68144 0-1.0401-0.53798-1.0401-1.4227 0-0.16737 0-0.46625 0.17933-1.2314h0.63362zm-0.57385-0.2391c0.51407-1.8411 1.6498-2.0204 2.0324-2.0204 0.52603 0 0.88468 0.31084 0.88468 0.76513 0 1.2553-1.9128 1.2553-2.4149 1.2553h-0.50212z"/><path id="vjm_f" d="m5.6668-4.8777c-0.38257 0.071731-0.52603 0.35866-0.52603 0.5858 0 0.28692 0.22715 0.38256 0.39452 0.38256 0.35866 0 0.60971-0.31083 0.60971-0.63362 0-0.50212-0.57385-0.72926-1.076-0.72926-0.72926 0-1.1357 0.71731-1.2433 0.94446-0.27497-0.89664-1.0162-0.94446-1.2314-0.94446-1.2194 0-1.865 1.5661-1.865 1.8291 0 0.04782 0.047821 0.1076 0.13151 0.1076 0.095641 0 0.11955-0.071731 0.14346-0.11955 0.40648-1.327 1.2075-1.5781 1.5542-1.5781 0.53798 0 0.64558 0.50212 0.64558 0.78904 0 0.26301-0.071731 0.53798-0.21519 1.1118l-0.40648 1.6379c-0.17933 0.71731-0.52603 1.3748-1.1597 1.3748-0.059776 0-0.35866 0-0.60971-0.15542 0.43039-0.083686 0.52603-0.44234 0.52603-0.5858 0-0.2391-0.17933-0.38256-0.40648-0.38256-0.28692 0-0.59776 0.25106-0.59776 0.63362 0 0.50212 0.56189 0.72927 1.076 0.72927 0.57385 0 0.98032-0.4543 1.2314-0.94446 0.19128 0.70536 0.78904 0.94446 1.2314 0.94446 1.2194 0 1.865-1.5661 1.865-1.8291 0-0.059776-0.047821-0.1076-0.11955-0.1076-0.1076 0-0.11955 0.059776-0.15542 0.15542-0.32279 1.0521-1.0162 1.5422-1.5542 1.5422-0.41843 0-0.64558-0.31083-0.64558-0.801 0-0.26301 0.047821-0.4543 0.2391-1.2433l0.41843-1.6259c0.17933-0.71731 0.5858-1.2433 1.1357-1.2433 0.02391 0 0.35866 0 0.60971 0.15542z"/><path id="vjm_c" d="m3.8974-2.5425c0-0.8528-0.087671-1.3709-0.35068-1.8809-0.35068-0.70137-0.99626-0.87671-1.4346-0.87671-1.0042 0-1.3709 0.74919-1.4824 0.97235-0.28692 0.58182-0.30286 1.3709-0.30286 1.7853 0 0.52603 0.02391 1.331 0.40648 1.9686 0.36662 0.58979 0.95641 0.74122 1.3788 0.74122 0.38256 0 1.068-0.11955 1.4665-0.90859 0.29489-0.57385 0.3188-1.2832 0.3188-1.8012zm-1.7853 2.4867c-0.27098 0-0.82092-0.12752-0.98829-0.96438-0.087671-0.4543-0.087671-1.2035-0.087671-1.6179 0-0.54994 0-1.1078 0.087671-1.5462 0.16737-0.81295 0.78904-0.89265 0.98829-0.89265 0.27098 0 0.82092 0.13549 0.98032 0.86077 0.095642 0.43836 0.095642 1.0361 0.095642 1.5781 0 0.47024 0 1.1875-0.095642 1.6339-0.16737 0.83686-0.71731 0.94844-0.98032 0.94844z"/><path id="vjm_b" d="m5.2603-2.0085h-0.26301c-0.035865 0.20324-0.13151 0.86077-0.25106 1.0521-0.083686 0.1076-0.76513 0.1076-1.1238 0.1076h-2.2117c0.32279-0.27497 1.0521-1.0401 1.3629-1.327 1.8172-1.6737 2.4867-2.2954 2.4867-3.479 0-1.3748-1.0879-2.2954-2.4747-2.2954s-2.1998 1.1836-2.1998 2.2117c0 0.60971 0.52603 0.60971 0.56189 0.60971 0.25106 0 0.56189-0.17933 0.56189-0.56189 0-0.33474-0.22715-0.56189-0.56189-0.56189-0.1076 0-0.13151 0-0.16737 0.011955 0.22715-0.81295 0.87273-1.3629 1.6498-1.3629 1.0162 0 1.6379 0.84882 1.6379 1.9487 0 1.0162-0.5858 1.9009-1.2672 2.666l-2.4149 2.7019v0.28692h4.3636l0.31083-2.0085z"/><path id="vjm_a" d="m8.0697-3.8735c0.16737 0 0.38257 0 0.38257-0.21519 0-0.22715-0.20324-0.22715-0.38257-0.22715h-7.0416c-0.16737 0-0.38256 0-0.38256 0.21519 0 0.22715 0.20324 0.22715 0.38256 0.22715h7.0416zm0 2.2237c0.16737 0 0.38257 0 0.38257-0.21519 0-0.22715-0.20324-0.22715-0.38257-0.22715h-7.0416c-0.16737 0-0.38256 0-0.38256 0.21519 0 0.22715 0.20324 0.22715 0.38256 0.22715h7.0416z"/><path id="vjm_l" d="m5.5711-1.8092c0.12752 0 0.30286 0 0.30286-0.18331s-0.17534-0.18331-0.30286-0.18331h-4.5669c-0.12752 0-0.30286 0-0.30286 0.18331s0.17534 0.18331 0.30286 0.18331h4.5669z"/><path id="vjm_k" d="m4.3039-2.1838c-0.47024-0.56588-0.534-0.62964-0.81295-0.83686-0.36662-0.27895-0.8528-0.49415-1.3788-0.49415-0.97235 0-1.6418 0.8528-1.6418 1.8012 0 0.9325 0.66152 1.7933 1.61 1.7933 0.65355 0 1.4187-0.34272 2.0802-1.331 0.47024 0.56588 0.534 0.62964 0.81295 0.83686 0.36662 0.27895 0.8528 0.49415 1.3788 0.49415 0.97235 0 1.6418-0.8528 1.6418-1.8012 0-0.9325-0.66152-1.7933-1.61-1.7933-0.65355 0-1.4187 0.34271-2.0802 1.331zm0.2391 0.29489c0.30286-0.50212 0.95641-1.323 1.8969-1.323 0.8528 0 1.331 0.7731 1.331 1.4904 0 0.7731-0.58979 1.3709-1.2912 1.3709s-1.1716-0.58182-1.9367-1.5382zm-0.62167 0.34272c-0.30286 0.50212-0.95641 1.323-1.8969 1.323-0.8528 0-1.331-0.7731-1.331-1.4904 0-0.7731 0.58979-1.3709 1.2912-1.3709s1.1716 0.58182 1.9367 1.5382z"/><path id="vjm_m" d="m1.2433 26.026c0.38257-0.02391 0.5858-0.28692 0.5858-0.5858 0-0.39452-0.29888-0.5858-0.57385-0.5858-0.28692 0-0.5858 0.17933-0.5858 0.59776 0 0.60971 0.59776 1.1118 1.327 1.1118 1.8172 0 2.4986-2.7975 3.3474-6.2645 0.92055-3.7778 1.6976-7.5915 2.3432-11.429 0.44234-2.5465 0.88468-4.9375 1.2912-6.4797 0.14346-0.5858 0.54994-2.128 1.0162-2.128 0.37061 0 0.66949 0.22715 0.71731 0.27497-0.39452 0.02391-0.59776 0.28692-0.59776 0.5858 0 0.39452 0.29888 0.5858 0.57385 0.5858 0.28692 0 0.5858-0.17933 0.5858-0.59776 0-0.64558-0.64558-1.1118-1.3031-1.1118-0.90859 0-1.5781 1.3031-2.2356 3.742-0.035866 0.13151-1.6618 6.133-2.9768 13.952-0.31083 1.8291-0.65753 3.8257-1.0521 5.4874-0.21519 0.87273-0.76513 3.1203-1.7335 3.1203-0.43039 0-0.71731-0.27497-0.72927-0.27497z"/></defs><g id="vjm_n" transform="scale(1.25)"><use x="148.148347" y="-27.065451" xlink:href="#vjm_m"/><use x="160.103545" y="-23.91061" xlink:href="#vjm_k"/><use x="154.790127" xlink:href="#vjm_c"/><use x="171.062541" y="-10.793007" xlink:href="#vjm_g"/><use x="176.487981" y="-15.729193" xlink:href="#vjm_l"/><use x="183.074488" y="-15.729193" xlink:href="#vjm_i"/><use x="187.841386" y="-18.541979" xlink:href="#vjm_d"/><use x="192.490563" y="-10.793007" xlink:href="#vjm_h"/><use x="198.573256" y="-10.793007" xlink:href="#vjm_f"/><use x="208.546172" y="-10.793007" xlink:href="#vjm_a"/><use x="222.167167" y="-27.4918" xlink:href="#vjm_j"/><rect x="232.13" y="-27.97" width="7.0693" height=".47819"/><use x="232.129837" y="-18.880766" xlink:href="#vjm_e"/><rect x="222.17" y="-14.021" width="17.032" height=".47819"/><use x="227.756649" y="-2.592345" xlink:href="#vjm_b"/></g></svg>
