<svg width="4.3829em" height=".89033em" style="vertical-align:-0.204765em" version="1.1" viewBox=".21519 -8.1654 52.203 10.604" xmlns="http://www.w3.org/2000/svg" xmlns:xlink="http://www.w3.org/1999/xlink"><defs><path id="LlH_a" d="m2.1998-4.5788c0-0.32279-0.27497-0.57385-0.57385-0.57385-0.3467 0-0.5858 0.27497-0.5858 0.57385 0 0.35866 0.29888 0.5858 0.57385 0.5858 0.32279 0 0.5858-0.25106 0.5858-0.5858zm0 3.993c0-0.32279-0.27497-0.57385-0.57385-0.57385-0.3467 0-0.5858 0.27497-0.5858 0.57385 0 0.35866 0.29888 0.5858 0.57385 0.5858 0.32279 0 0.5858-0.25106 0.5858-0.5858z"/><path id="LlH_e" d="m9.9706-2.7497c-0.65753 0.50212-0.98032 0.99228-1.076 1.1477-0.53798 0.82491-0.63362 1.5781-0.63362 1.59 0 0.14346 0.14346 0.14346 0.2391 0.14346 0.20324 0 0.21519-0.02391 0.26301-0.2391 0.27497-1.1716 0.98032-2.1758 2.3313-2.7258 0.14346-0.047821 0.17933-0.071731 0.17933-0.15542s-0.071731-0.11955-0.095642-0.13151c-0.52603-0.20324-1.9726-0.801-2.4269-2.8095-0.035865-0.14346-0.047821-0.17933-0.25106-0.17933-0.095642 0-0.2391 0-0.2391 0.14346 0 0.02391 0.1076 0.77709 0.60971 1.5781 0.2391 0.35866 0.5858 0.77709 1.0999 1.1597h-8.8827c-0.21519 0-0.43039 0-0.43039 0.2391s0.21519 0.2391 0.43039 0.2391h8.8827z"/><path id="LlH_c" d="m7.0296-6.8384 0.27497-0.27497c0.52603-0.53798 0.96837-0.66949 1.3868-0.70536 0.13151-0.011955 0.2391-0.02391 0.2391-0.22715 0-0.11955-0.11955-0.11955-0.14346-0.11955-0.14346 0-0.29888 0.023911-0.44234 0.023911h-0.49016c-0.3467 0-0.71731-0.023911-1.0521-0.023911-0.083687 0-0.21519 0-0.21519 0.22715 0 0.1076 0.11955 0.11955 0.15542 0.11955 0.35866 0.02391 0.35866 0.20324 0.35866 0.27497 0 0.13151-0.095641 0.31083-0.33474 0.5858l-2.8453 3.2638-1.3509-3.6344c-0.071731-0.16737-0.071731-0.19128-0.071731-0.21519 0-0.25106 0.49016-0.27497 0.63362-0.27497s0.27497 0 0.27497-0.21519c0-0.13151-0.1076-0.13151-0.17933-0.13151-0.20324 0-0.44234 0.023911-0.64558 0.023911h-1.327c-0.21519 0-0.44234-0.023911-0.64558-0.023911-0.083687 0-0.21519 0-0.21519 0.22715 0 0.11955 0.1076 0.11955 0.28692 0.11955 0.5858 0 0.6934 0.1076 0.801 0.38256l1.4824 3.9811c0.011955 0.035866 0.04782 0.16737 0.04782 0.20324s-0.5858 2.391-0.62167 2.5106c-0.095642 0.32279-0.21519 0.38256-0.98032 0.39452-0.20324 0-0.29888 0-0.29888 0.22715 0 0.11955 0.13151 0.11955 0.16737 0.11955 0.21519 0 0.46625-0.02391 0.6934-0.02391h1.4107c0.21519 0 0.46625 0.02391 0.68144 0.02391 0.083686 0 0.22715 0 0.22715-0.21519 0-0.13151-0.083686-0.13151-0.28692-0.13151-0.74122 0-0.74122-0.083686-0.74122-0.21519 0-0.083686 0.095641-0.46625 0.15542-0.70536l0.43039-1.7215c0.071731-0.25106 0.071731-0.27497 0.17933-0.39452l3.0007-3.455z"/><path id="LlH_b" d="m8.3686-7.7948c0.071731-0.083686 0.13151-0.15542 0.13151-0.27497 0-0.083687-0.011956-0.095642-0.28692-0.095642h-4.9375c-0.27497 0-0.28692 0.011955-0.35866 0.22715l-0.65753 2.1519c-0.035866 0.11955-0.035866 0.14346-0.035866 0.16737 0 0.047821 0.035866 0.11955 0.11955 0.11955 0.095641 0 0.11955-0.047821 0.16737-0.20324 0.44234-1.2912 1.0281-2.1161 2.9171-2.1161h1.9606l-6.5514 7.4122c-0.1076 0.13151-0.15542 0.17933-0.15542 0.31084 0 0.095641 0.059775 0.095641 0.28692 0.095641h5.1049c0.27497 0 0.28692-0.011955 0.35866-0.22715l0.83686-2.6421c0.011955-0.035866 0.035866-0.11955 0.035866-0.16737 0-0.059776-0.047821-0.11955-0.11955-0.11955-0.095641 0-0.1076 0.011955-0.20324 0.31083-0.50212 1.5422-1.0281 2.4747-3.1083 2.4747h-2.0682l6.5634-7.4242z"/><path id="LlH_d" d="m4.0408-1.5183c-0.047821 0.19128-0.071731 0.2391-0.22715 0.41843-0.49016 0.63362-0.99228 0.86077-1.3629 0.86077-0.39452 0-0.76513-0.31084-0.76513-1.1357 0-0.63362 0.35866-1.9726 0.62167-2.5106 0.3467-0.66949 0.88468-1.1477 1.3868-1.1477 0.78904 0 0.94446 0.98032 0.94446 1.0521l-0.035865 0.16737-0.56189 2.2954zm0.74122-2.9649c-0.15542-0.3467-0.49016-0.78904-1.0879-0.78904-1.3031 0-2.7856 1.6379-2.7856 3.4192 0 1.2433 0.75318 1.8531 1.5183 1.8531 0.63362 0 1.1955-0.50212 1.4107-0.74122l-0.26301 1.076c-0.16737 0.65753-0.2391 0.95641-0.66949 1.3748-0.49016 0.49016-0.94446 0.49016-1.2075 0.49016-0.35866 0-0.65753-0.02391-0.95641-0.11955 0.38257-0.1076 0.47821-0.44234 0.47821-0.57385 0-0.19128-0.14346-0.38256-0.40648-0.38256-0.28692 0-0.59776 0.2391-0.59776 0.63362 0 0.49016 0.49016 0.68144 1.5064 0.68144 1.5422 0 2.3432-0.99228 2.4986-1.6379l1.327-5.3559c0.035866-0.14346 0.035866-0.16737 0.035866-0.19128 0-0.16737-0.13151-0.29888-0.31084-0.29888-0.28692 0-0.4543 0.2391-0.49016 0.56189z"/></defs><g id="LlH_f"><use xlink:href="#LlH_d"/><use x="9.355086" xlink:href="#LlH_a"/><use x="15.927576" xlink:href="#LlH_c"/><use x="28.641568" xlink:href="#LlH_e"/><use x="43.9176" xlink:href="#LlH_b"/></g></svg>
