<svg width="4.4074em" height=".92245em" style="vertical-align:-0.215806em" version="1.1" viewBox=".32279 -8.4164 52.494 10.987" xmlns="http://www.w3.org/2000/svg" xmlns:xlink="http://www.w3.org/1999/xlink"><defs><path id="AKo_a" d="m2.1998-4.5788c0-0.32279-0.27497-0.57385-0.57385-0.57385-0.3467 0-0.5858 0.27497-0.5858 0.57385 0 0.35866 0.29888 0.5858 0.57385 0.5858 0.32279 0 0.5858-0.25106 0.5858-0.5858zm0 3.993c0-0.32279-0.27497-0.57385-0.57385-0.57385-0.3467 0-0.5858 0.27497-0.5858 0.57385 0 0.35866 0.29888 0.5858 0.57385 0.5858 0.32279 0 0.5858-0.25106 0.5858-0.5858z"/><path id="AKo_e" d="m8.6795-3.9093c0.50212 0.43039 1.1118 0.74122 1.5064 0.92055-0.43039 0.19128-1.0162 0.50212-1.5064 0.92055h-7.5915c-0.20324 0-0.43039 0-0.43039 0.2391s0.21519 0.2391 0.41843 0.2391h7.0655c-0.57385 0.54994-1.1955 1.602-1.1955 1.7574 0 0.13151 0.15542 0.13151 0.22715 0.13151 0.095641 0 0.17933 0 0.22715-0.095641 0.25106-0.4543 0.5858-1.0879 1.3629-1.7813 0.82491-0.72926 1.6259-1.0521 2.2476-1.2314 0.20324-0.071731 0.21519-0.083686 0.2391-0.1076 0.023911-0.011955 0.023911-0.047821 0.023911-0.071731s0-0.047821-0.011956-0.071731l-0.035865-0.02391c-0.02391-0.011956-0.035866-0.023911-0.26301-0.095642-1.6139-0.47821-2.8095-1.5661-3.479-2.8453-0.13151-0.2391-0.14346-0.25106-0.31083-0.25106-0.071731 0-0.22715 0-0.22715 0.13151 0 0.15542 0.60971 1.1955 1.1955 1.7574h-7.0655c-0.20324 0-0.41843 0-0.41843 0.2391s0.22715 0.2391 0.43039 0.2391h7.5915z"/><path id="AKo_d" d="m5.6787-3.3116c0.059776-0.2391 0.095641-0.38256 0.095641-0.70535 0-0.71731-0.41843-1.2553-1.327-1.2553-1.064 0-1.6259 0.75318-1.8411 1.0521-0.035866-0.68144-0.52603-1.0521-1.0521-1.0521-0.3467 0-0.62167 0.16737-0.84882 0.62167-0.21519 0.43039-0.38256 1.1597-0.38256 1.2075s0.04782 0.1076 0.13151 0.1076c0.095642 0 0.1076-0.011955 0.17933-0.28692 0.17933-0.70536 0.40648-1.4107 0.88468-1.4107 0.27497 0 0.37061 0.19128 0.37061 0.54994 0 0.26301-0.11955 0.72926-0.20324 1.0999l-0.33474 1.2912c-0.047821 0.22715-0.17933 0.76513-0.2391 0.98032-0.083687 0.31084-0.21519 0.87273-0.21519 0.9325 0 0.16737 0.13151 0.29888 0.31083 0.29888 0.14346 0 0.31083-0.071731 0.40648-0.25106 0.02391-0.059776 0.13151-0.47821 0.19128-0.71731l0.26301-1.076 0.39452-1.5781c0.02391-0.071731 0.32279-0.66949 0.76513-1.0521 0.31084-0.28692 0.71731-0.47821 1.1836-0.47821 0.47821 0 0.64558 0.35866 0.64558 0.83686 0 0.3467-0.047821 0.53798-0.1076 0.76513l-1.3868 5.4994c-0.011955 0.059776-0.035865 0.13151-0.035865 0.20324 0 0.17933 0.14346 0.29888 0.32279 0.29888 0.1076 0 0.35866-0.047821 0.4543-0.40648l1.3748-5.4755z"/><path id="AKo_c" d="m3.5507-3.8974h1.1477c0.90859 0 0.98032 0.20324 0.98032 0.54994 0 0.15542-0.02391 0.32279-0.083686 0.5858-0.023911 0.047821-0.035866 0.1076-0.035866 0.13151 0 0.083686 0.047821 0.13151 0.13151 0.13151 0.095641 0 0.1076-0.047821 0.15542-0.2391l0.6934-2.7856c0-0.04782-0.035866-0.11955-0.11955-0.11955-0.1076 0-0.11955 0.04782-0.16737 0.25106-0.25106 0.89664-0.49016 1.1477-1.5303 1.1477h-1.0879l0.77709-3.0964c0.1076-0.41843 0.13151-0.4543 0.62167-0.4543h1.602c1.4944 0 1.7096 0.44234 1.7096 1.2912 0 0.071731 0 0.33474-0.035865 0.64558-0.011955 0.04782-0.035866 0.20324-0.035866 0.25106 0 0.095641 0.059776 0.13151 0.13151 0.13151 0.083686 0 0.13151-0.047821 0.15542-0.26301l0.25106-2.0922c0-0.035866 0.02391-0.15542 0.02391-0.17933 0-0.13151-0.1076-0.13151-0.32279-0.13151h-5.6668c-0.22715 0-0.3467 0-0.3467 0.21519 0 0.13151 0.083686 0.13151 0.28692 0.13151 0.74122 0 0.74122 0.083687 0.74122 0.21519 0 0.059776-0.011956 0.1076-0.047821 0.2391l-1.6139 6.4558c-0.1076 0.41843-0.13151 0.53798-0.96837 0.53798-0.22715 0-0.3467 0-0.3467 0.21519 0 0.13151 0.1076 0.13151 0.17933 0.13151 0.22715 0 0.46625-0.02391 0.6934-0.02391h1.5542c0.26301 0 0.54994 0.02391 0.81295 0.02391 0.1076 0 0.25106 0 0.25106-0.21519 0-0.13151-0.071731-0.13151-0.33474-0.13151-0.94446 0-0.96837-0.083686-0.96837-0.26301 0-0.059775 0.023911-0.15542 0.047821-0.2391l0.76513-3.0486z"/><path id="AKo_b" d="m8.9186-8.3088c0-0.1076-0.083686-0.1076-0.1076-0.1076s-0.071731 0-0.16737 0.11955l-0.82491 0.99228c-0.059776-0.095641-0.29888-0.51407-0.76513-0.78904-0.51407-0.32279-1.0281-0.32279-1.2075-0.32279-2.5584 0-5.2483 2.6062-5.2483 5.4276 0 1.9726 1.3629 3.2399 3.1562 3.2399 0.86077 0 1.9487-0.28692 2.5465-1.0401 0.13151 0.4543 0.39452 0.77709 0.47821 0.77709 0.059776 0 0.071731-0.035866 0.083687-0.035866 0.011955-0.02391 0.1076-0.44234 0.16737-0.65753l0.19128-0.76513c0.095641-0.39452 0.14346-0.56189 0.22715-0.92055 0.11955-0.4543 0.14346-0.49016 0.801-0.50212 0.047821 0 0.19128 0 0.19128-0.22715 0-0.11955-0.11955-0.11955-0.15542-0.11955-0.20324 0-0.43039 0.023911-0.64558 0.023911h-0.64558c-0.50212 0-1.0281-0.023911-1.5183-0.023911-0.1076 0-0.25106 0-0.25106 0.21519 0 0.11955 0.095642 0.11955 0.095642 0.13151h0.29888c0.94446 0 0.94446 0.095642 0.94446 0.27497 0 0.011955-0.22715 1.2194-0.4543 1.5781-0.4543 0.66949-1.3988 0.94446-2.1041 0.94446-0.92055 0-2.4149-0.47821-2.4149-2.5465 0-0.801 0.28692-2.6301 1.4466-3.9811 0.75318-0.86077 1.865-1.4466 2.9171-1.4466 1.4107 0 1.9128 1.2075 1.9128 2.3073 0 0.19128-0.047821 0.4543-0.047821 0.62167 0 0.1076 0.11955 0.1076 0.15542 0.1076 0.13151 0 0.14346-0.011955 0.19128-0.22715l0.75318-3.0486z"/></defs><g id="AKo_f"><use xlink:href="#AKo_d"/><use x="9.525285" xlink:href="#AKo_a"/><use x="16.097775" xlink:href="#AKo_c"/><use x="28.62222" xlink:href="#AKo_e"/><use x="43.898252" xlink:href="#AKo_b"/></g></svg>
