<svg width="4.6113em" height="4.5144em" style="vertical-align:-0.000000em" version="1.1" viewBox="213.14 -53.97 54.923 53.769" xmlns="http://www.w3.org/2000/svg" xmlns:xlink="http://www.w3.org/1999/xlink"><defs><path id="Cjg_e" d="m2.5026-5.077c0-0.21519-0.01594-0.22316-0.23113-0.22316-0.32678 0.3188-0.74919 0.51009-1.5064 0.51009v0.26301c0.21519 0 0.64558 0 1.1078-0.21519v4.0887c0 0.29489-0.02391 0.39054-0.78107 0.39054h-0.27895v0.26301c0.32678-0.02391 1.0122-0.02391 1.3709-0.02391s1.0521 0 1.3788 0.02391v-0.26301h-0.27895c-0.75716 0-0.78107-0.095641-0.78107-0.39054v-4.4234z"/><path id="Cjg_d" d="m2.2476-1.6259c0.12752-0.11955 0.46227-0.38256 0.58979-0.49415 0.49415-0.4543 0.96438-0.89265 0.96438-1.6179 0-0.94844-0.79701-1.5621-1.7933-1.5621-0.95641 0-1.5861 0.72528-1.5861 1.4346 0 0.39054 0.31083 0.44633 0.42242 0.44633 0.16737 0 0.41445-0.11955 0.41445-0.42242 0-0.41445-0.39851-0.41445-0.49415-0.41445 0.23113-0.58182 0.76513-0.78107 1.1557-0.78107 0.74122 0 1.1238 0.62964 1.1238 1.2991 0 0.82889-0.58182 1.4346-1.5223 2.399l-1.0042 1.0361c-0.095641 0.087671-0.095641 0.10361-0.095641 0.30286h3.1482l0.23113-1.4266h-0.24707c-0.02391 0.1594-0.087671 0.55791-0.18331 0.70934-0.04782 0.063761-0.65355 0.063761-0.78107 0.063761h-1.4187l1.076-0.97235z"/><path id="Cjg_c" d="m2.0164-2.662c0.62964 0 1.0281 0.46227 1.0281 1.2991 0 0.99626-0.56588 1.2912-0.98829 1.2912-0.43836 0-1.0361-0.1594-1.3151-0.58182 0.28692 0 0.48618-0.18331 0.48618-0.44633 0-0.25504-0.18331-0.43836-0.43836-0.43836-0.21519 0-0.43836 0.13549-0.43836 0.4543 0 0.75716 0.81295 1.2513 1.7215 1.2513 1.06 0 1.8012-0.73325 1.8012-1.5303 0-0.66152-0.52603-1.2672-1.339-1.4426 0.62964-0.22316 1.0999-0.76513 1.0999-1.4027s-0.71731-1.0919-1.5462-1.0919c-0.8528 0-1.4984 0.46227-1.4984 1.068 0 0.2949 0.19925 0.42242 0.40648 0.42242 0.24707 0 0.40648-0.17534 0.40648-0.40648 0-0.29489-0.25504-0.40648-0.43039-0.41445 0.33474-0.43836 0.94844-0.46227 1.0919-0.46227 0.20722 0 0.81295 0.063761 0.81295 0.88468 0 0.55791-0.23113 0.89265-0.34271 1.0202-0.2391 0.24707-0.42242 0.26301-0.90859 0.29489-0.15143 0.00797-0.21519 0.015941-0.21519 0.11955 0 0.11158 0.071731 0.11158 0.20722 0.11158h0.3985z"/><path id="Cjg_j" d="m3.8974 21.041h0.82491v-20.682h3.1562v-0.82491h-3.9811v21.507z"/><path id="Cjg_i" d="m3.2399 21.041h0.82491v-21.507h-3.9811v0.82491h3.1562v20.682z"/><path id="Cjg_h" d="m3.8974 21.029h3.9811v-0.82491h-3.1562v-20.682h-0.82491v21.507z"/><path id="Cjg_g" d="m3.2399 20.204h-3.1562v0.82491h3.9811v-21.507h-0.82491v20.682z"/><path id="Cjg_b" d="m8.0697-3.8735c0.16737 0 0.38257 0 0.38257-0.21519 0-0.22715-0.20324-0.22715-0.38257-0.22715h-7.0416c-0.16737 0-0.38256 0-0.38256 0.21519 0 0.22715 0.20324 0.22715 0.38256 0.22715h7.0416zm0 2.2237c0.16737 0 0.38257 0 0.38257-0.21519 0-0.22715-0.20324-0.22715-0.38257-0.22715h-7.0416c-0.16737 0-0.38256 0-0.38256 0.21519 0 0.22715 0.20324 0.22715 0.38256 0.22715h7.0416z"/><path id="Cjg_a" d="m5.4635-4.4712c0-0.75318-0.38257-0.801-0.47821-0.801-0.28692 0-0.54994 0.28692-0.54994 0.52603 0 0.14346 0.083687 0.22715 0.13151 0.27497 0.11955 0.1076 0.43039 0.43039 0.43039 1.0521 0 0.50212-0.71731 3.2996-2.1519 3.2996-0.72926 0-0.87273-0.60971-0.87273-1.0521 0-0.59776 0.27497-1.4346 0.59776-2.2954 0.19128-0.49016 0.2391-0.60971 0.2391-0.84882 0-0.50212-0.35866-0.95641-0.94446-0.95641-1.0999 0-1.5422 1.7335-1.5422 1.8291 0 0.04782 0.04782 0.1076 0.13151 0.1076 0.1076 0 0.11955-0.047821 0.16737-0.21519 0.28692-1.0281 0.75318-1.4824 1.2075-1.4824 0.1076 0 0.31083 0 0.31083 0.39452 0 0.31083-0.13151 0.65753-0.31083 1.1118-0.57385 1.5303-0.57385 1.9009-0.57385 2.1878 0 0.26301 0.035865 0.75318 0.40648 1.0879 0.43039 0.37061 1.0281 0.37061 1.1357 0.37061 1.9846 0 2.666-3.9093 2.666-4.5908z"/><path id="Cjg_f" d="m6.396-7.1372c-0.14346 0.13151-0.5858 0.54994-0.5858 0.71731 0 0.11955 0.1076 0.22715 0.22715 0.22715 0.1076 0 0.15542-0.071731 0.2391-0.19128 0.28692-0.35866 0.60971-0.5858 0.88468-0.74122 0.11955-0.071731 0.20324-0.1076 0.20324-0.2391 0-0.1076-0.095642-0.16737-0.16737-0.22715-0.33474-0.22715-0.41843-0.54994-0.4543-0.6934-0.035866-0.095641-0.071731-0.2391-0.2391-0.2391-0.071731 0-0.21519 0.047821-0.21519 0.22715 0 0.1076 0.071731 0.39452 0.29888 0.71731h-4.0169c-0.20324 0-0.40648 0-0.40648 0.22715 0 0.21519 0.21519 0.21519 0.40648 0.21519h3.8257z"/></defs><g id="Cjg_k" transform="scale(1.25)"><use x="169.711634" y="-18.67992" xlink:href="#Cjg_f"/><use x="170.188317" y="-18.67992" xlink:href="#Cjg_a"/><use x="179.597353" y="-18.67992" xlink:href="#Cjg_b"/><use x="192.022834" y="-42.710031" xlink:href="#Cjg_j"/><use x="192.022834" y="-21.190525" xlink:href="#Cjg_h"/><use x="199.992962" y="-33.225411" xlink:href="#Cjg_a"/><use x="205.652232" y="-31.432148" xlink:href="#Cjg_e"/><use x="199.992962" y="-18.779598" xlink:href="#Cjg_a"/><use x="205.652232" y="-16.986335" xlink:href="#Cjg_d"/><use x="199.992962" y="-4.333785" xlink:href="#Cjg_a"/><use x="205.652232" y="-2.540522" xlink:href="#Cjg_c"/><use x="210.384535" y="-42.710031" xlink:href="#Cjg_i"/><use x="210.384535" y="-21.190525" xlink:href="#Cjg_g"/></g></svg>
