<svg width="11.332em" height="6.0464em" style="vertical-align:-0.000000em" version="1.1" viewBox="175.08 -75.027 134.97 72.016" xmlns="http://www.w3.org/2000/svg" xmlns:xlink="http://www.w3.org/1999/xlink"><defs><path id="vUY_d" d="m2.654 1.9925c0.063761 0 0.1594 0 0.1594-0.095641 0-0.031881-0.007971-0.039851-0.11158-0.14346-1.0919-1.0281-1.3629-2.5106-1.3629-3.746 0-2.2954 0.94844-3.3714 1.3549-3.738 0.11158-0.10361 0.11955-0.11158 0.11955-0.15143s-0.031881-0.095641-0.11158-0.095641c-0.12752 0-0.52603 0.40648-0.58979 0.47821-1.068 1.1158-1.2912 2.5504-1.2912 3.5068 0 1.7853 0.74919 3.2199 1.8331 3.9851z"/><path id="vUY_c" d="m2.4628-1.9925c0-0.75716-0.12752-1.6658-0.62167-2.6062-0.39054-0.73325-1.1158-1.3788-1.2593-1.3788-0.079701 0-0.10361 0.055791-0.10361 0.095641 0 0.031881 0 0.047821 0.095641 0.14346 1.1158 1.06 1.3709 2.5186 1.3709 3.746 0 2.2874-0.94844 3.3714-1.3549 3.738-0.10361 0.10361-0.11158 0.11158-0.11158 0.15143s0.02391 0.095641 0.10361 0.095641c0.12752 0 0.52603-0.40648 0.58979-0.47821 1.068-1.1158 1.2912-2.5504 1.2912-3.5068z"/><path id="vUY_n" d="m3.5686-2.1998c0-0.005978-0.029888-0.065753-0.029888-0.071731s0.005977-0.011955 0.12553-0.13151l0.97435-0.9325c0.14944-0.13748 0.35268-0.28095 0.41245-0.31681 0.23312-0.13748 0.44234-0.17933 0.65156-0.19128 0.083686-0.005977 0.1614-0.005977 0.1614-0.14944 0-0.035866-0.035866-0.089664-0.095641-0.089664-0.17335 0-0.4005 0.02391-0.5858 0.02391l-0.35268-0.005977c-0.11357 0-0.24508-0.017933-0.35866-0.017933-0.041843 0-0.13748 0-0.13748 0.14944 0 0.083686 0.083687 0.089663 0.1076 0.089663 0.077709 0.005978 0.19128 0.029888 0.19128 0.13748 0 0.083686-0.053799 0.13748-0.2391 0.32279l-0.48418 0.44832c-0.041843 0.041843-0.41245 0.4005-0.48418 0.46027l-0.63362-1.1597c-0.005978-0.011955-0.035866-0.065754-0.035866-0.077709 0-0.035865 0.12553-0.11955 0.31084-0.13151 0.04782 0 0.13151-0.005977 0.13151-0.14944 0-0.017933-0.005977-0.089664-0.10162-0.089664-0.12553 0-0.26899 0.017933-0.4005 0.017933 0 0-0.40648 0.005977-0.40648 0.005977-0.11955 0-0.23313-0.005977-0.35268-0.005977s-0.25106-0.017933-0.36463-0.017933c-0.065754 0-0.13151 0.029888-0.13151 0.14944 0 0.089663 0.071731 0.089663 0.19128 0.089663 0.35268 0 0.38854 0.059776 0.44234 0.1614l0.89664 1.6379c-0.13151 0.11357-0.42441 0.39452-0.63362 0.59776-0.99228 0.96239-1.2194 1.1836-1.7873 1.2075-0.083686 0.005977-0.1614 0.005977-0.1614 0.14944 0 0.041843 0.035865 0.089664 0.089664 0.089664 0.17335 0 0.4005-0.02391 0.5858-0.02391 0.1614 0 0.55592 0.02391 0.71731 0.02391 0.035866 0 0.13151 0 0.13151-0.14944 0-0.083686-0.077709-0.089663-0.1076-0.089663-0.083686-0.005978-0.19128-0.035866-0.19128-0.13748 0-0.029888 0.005977-0.059776 0.065753-0.14346 0.011955-0.005977 0.02391-0.035865 0.029888-0.041843l1.3689-1.2852 0.76513 1.3988c0.02391 0.047821 0.035865 0.065754 0.035865 0.077709 0 0.035865-0.11955 0.11955-0.31083 0.13151-0.041843 0-0.13748 0.005977-0.13748 0.14944 0 0.017933 0.011955 0.089664 0.1076 0.089664 0.12553 0 0.26899-0.017933 0.4005-0.017933l0.40648-0.005977c0.11955 0 0.23312 0.005977 0.35268 0.005977s0.25106 0.017933 0.36463 0.017933c0.071731 0 0.13151-0.035866 0.13151-0.14944 0-0.089663-0.095642-0.089663-0.17335-0.089663-0.37061 0-0.4005-0.053799-0.46027-0.1614l-0.99228-1.7993z"/><path id="vUY_m" d="m4.3278-3.3534 0.14944-0.13151c0.21519-0.17933 0.39452-0.32877 0.78904-0.35866 0.071731-0.005977 0.14944-0.011955 0.14944-0.14944 0-0.041843-0.041843-0.089664-0.089664-0.089664-0.16139 0-0.3467 0.02391-0.51407 0.02391-0.14346 0-0.50212-0.02391-0.64558-0.02391-0.071731 0-0.13151 0.035866-0.13151 0.14944 0 0.005977 0 0.083686 0.1076 0.089663 0.059776 0.005978 0.1853 0.011956 0.1853 0.095642 0 0.095641-0.13748 0.22715-0.31084 0.40648l-1.4047 1.4167-0.85479-1.7395c-0.011955-0.017933-0.029888-0.065753-0.029888-0.083686 0-0.095642 0.28692-0.095642 0.32279-0.095642 0.065754 0 0.1614 0 0.1614-0.14944 0-0.017933-0.011955-0.089664-0.1076-0.089664-0.12553 0-0.27497 0.017933-0.4005 0.017933 0 0-0.41843 0.005977-0.41843 0.005977-0.11955 0-0.23313-0.005977-0.35268-0.005977s-0.25106-0.017933-0.36463-0.017933c-0.035865 0-0.13151 0-0.13151 0.14944 0 0.089663 0.077708 0.089663 0.16737 0.089663 0.35866 0 0.4005 0.053799 0.4543 0.1614l1.0042 2.0443-0.26899 1.0939c-0.077708 0.29888-0.10162 0.29888-0.54994 0.30486-0.11955 0-0.13151 0-0.15542 0.02391s-0.04782 0.10162-0.04782 0.13151c0.005977 0.02391 0.011955 0.083686 0.10162 0.083686 0.17933 0 0.61569-0.02391 0.79502-0.02391 0.36463 0-0.02391 0 0.41245 0.005977 0.13151 0 0.27497 0.017933 0.4005 0.017933 0.035865 0 0.13748 0 0.13748-0.14944 0-0.089663-0.089664-0.089663-0.19726-0.089663s-0.25704 0-0.38257-0.041843c0.005978-0.10162 0.005978-0.11358 0.053799-0.31084 0.14346-0.5858 0.13748-0.532 0.25704-1.0401l1.7096-1.7215z"/><path id="vUY_i" d="m4.1524-2.1998c0.031881-0.11955 0.063761-0.25504 0.063761-0.43039 0-0.59776-0.41445-0.88468-0.98829-0.88468-0.64558 0-1.06 0.39054-1.2912 0.6934-0.055791-0.43836-0.40648-0.6934-0.81295-0.6934-0.28692 0-0.48618 0.18331-0.6137 0.43039-0.18331 0.35866-0.27098 0.76513-0.27098 0.78904 0 0.071731 0.055791 0.10361 0.11955 0.10361 0.10361 0 0.11158-0.03188 0.16737-0.2391 0.10361-0.40648 0.24707-0.86077 0.57385-0.86077 0.19925 0 0.25504 0.18331 0.25504 0.3746 0 0.14346-0.039851 0.29489-0.10361 0.55791-0.015941 0.063761-0.13549 0.534-0.16737 0.64558l-0.29489 1.1955c-0.03188 0.11955-0.079701 0.3188-0.079701 0.35068 0 0.18331 0.15143 0.24707 0.25504 0.24707 0.14346 0 0.26301-0.095641 0.3188-0.19128 0.02391-0.04782 0.087671-0.3188 0.12752-0.48618l0.18331-0.70934c0.023911-0.11955 0.10361-0.42242 0.12752-0.54197 0.11158-0.43039 0.11158-0.43836 0.29489-0.70137 0.26301-0.39054 0.63761-0.74122 1.1716-0.74122 0.28692 0 0.4543 0.16737 0.4543 0.54197 0 0.15143-0.063761 0.44633-0.063761 0.4543l-0.90062 3.5786c-0.031881 0.11955-0.031881 0.16737-0.031881 0.18331 0 0.19925 0.1594 0.24707 0.25504 0.24707 0.27895 0 0.34272-0.26301 0.36662-0.35866l0.88468-3.5547z"/><path id="vUY_l" d="m2.5186-2.5823h0.82889c0.65355 0 0.68543 0.12752 0.68543 0.35866 0 0.055791 0 0.13549-0.055791 0.34272-0.00797 0.03188-0.01594 0.095641-0.01594 0.11955 0 0.00797 0 0.11158 0.11955 0.11158 0.095642 0 0.11955-0.079701 0.14346-0.18331l0.42242-1.7056c0.00797-0.01594 0.031881-0.11955 0.031881-0.12752 0-0.03188-0.023911-0.11158-0.12752-0.11158-0.095641 0-0.11158 0.071731-0.13549 0.16737-0.1594 0.62167-0.34272 0.76513-1.0521 0.76513h-0.7731l0.50212-2.0085c0.071731-0.28692 0.079702-0.30286 0.40648-0.30286h1.1716c0.94844 0 1.2194 0.19925 1.2194 0.88468 0 0.16737-0.039851 0.3746-0.039851 0.52603 0 0.095642 0.055791 0.13549 0.11955 0.13549 0.11158 0 0.11955-0.071731 0.13549-0.20722l0.14346-1.3549c0.00797-0.03985 0.00797-0.095641 0.00797-0.13549 0-0.11158-0.095641-0.11158-0.2391-0.11158h-4.0887c-0.14346 0-0.24707 0-0.24707 0.14346 0 0.11955 0.095641 0.11955 0.23113 0.11955 0.055791 0 0.16737 0 0.30286 0.015941 0.16737 0.01594 0.19128 0.03188 0.19128 0.11158 0 0.039851-0.00797 0.071731-0.031881 0.1594l-1.06 4.2401c-0.071731 0.30286-0.087671 0.36662-0.67746 0.36662-0.15143 0-0.24707 0-0.24707 0.15143 0 0.031881 0.023911 0.11158 0.12752 0.11158 0.16737 0 0.35866-0.02391 0.534-0.02391h1.0999c0.15143 0.00797 0.43836 0.02391 0.58979 0.02391 0.05579 0 0.16737 0 0.16737-0.15143 0-0.11158-0.095641-0.11158-0.26301-0.11158s-0.23113 0-0.41445-0.01594c-0.21519-0.02391-0.2391-0.047821-0.2391-0.14346 0-0.00797 0-0.055791 0.03188-0.17534l0.49415-1.9846z"/><path id="vUY_k" d="m6.3522-5.3958c0.00797-0.03188 0.023911-0.079701 0.023911-0.11955 0-0.05579-0.047821-0.095641-0.10361-0.095641s-0.079701 0.02391-0.14346 0.095641l-0.55791 0.6137c-0.36662-0.51009-0.88468-0.70934-1.4266-0.70934-1.865 0-3.722 1.7215-3.722 3.5467 0 1.331 0.98829 2.2316 2.3432 2.2316 0.86077 0 1.4984-0.31083 1.7933-0.65355 0.095641 0.25504 0.28692 0.47821 0.36662 0.47821 0.031881 0 0.071731-0.01594 0.087671-0.047821 0.047821-0.13549 0.2391-0.94844 0.2949-1.1716 0.071731-0.3188 0.12752-0.54197 0.17534-0.60573 0.071731-0.095641 0.22316-0.10361 0.46227-0.10361 0.03985 0 0.1594 0 0.1594-0.14346 0-0.079701-0.055791-0.11955-0.11955-0.11955-0.055791 0-0.15143 0.02391-0.92453 0.02391-0.19925 0-0.47024 0-0.58979-0.00797s-0.43836-0.01594-0.55791-0.01594c-0.047821 0-0.16737 0-0.16737 0.15143 0 0.11158 0.087671 0.11158 0.29489 0.11158 0.16737 0 0.47024 0 0.66152 0.071731 0.00797 0.01594 0.01594 0.063761 0.01594 0.095641 0 0.039851-0.04782 0.21519-0.071731 0.3188-0.04782 0.20722-0.13549 0.54197-0.16737 0.62167-0.25504 0.534-1.0281 0.73325-1.5781 0.73325-0.78904 0-1.7136-0.41445-1.7136-1.7136 0-0.66152 0.27098-1.8092 0.97235-2.5743 0.76513-0.82889 1.6259-0.96438 2.0403-0.96438 0.97235 0 1.4187 0.76513 1.4187 1.5701 0 0.11158-0.03188 0.25504-0.03188 0.35068 0 0.10361 0.10361 0.10361 0.13549 0.10361 0.10361 0 0.11955-0.03188 0.15143-0.17534l0.47821-1.8969z"/><path id="vUY_j" d="m3.0526-3.1721h0.74122c0.1594 0 0.25504 0 0.25504-0.15143 0-0.11158-0.10361-0.11158-0.2391-0.11158h-0.70934c0.12752-0.71731 0.20722-1.1716 0.28692-1.5303 0.03188-0.13549 0.05579-0.22316 0.17534-0.3188 0.10361-0.087672 0.16737-0.10361 0.25504-0.10361 0.11955 0 0.24707 0.023911 0.35068 0.087671-0.039851 0.015941-0.087672 0.039851-0.12752 0.063761-0.13549 0.071731-0.23113 0.21519-0.23113 0.3746 0 0.18331 0.14346 0.29489 0.3188 0.29489 0.23113 0 0.44633-0.19925 0.44633-0.47821 0-0.3746-0.38256-0.56588-0.76513-0.56588-0.27098 0-0.7731 0.12752-1.0281 0.86077-0.071731 0.18331-0.071731 0.19925-0.28692 1.3151h-0.59776c-0.1594 0-0.25504 0-0.25504 0.15143 0 0.11158 0.10361 0.11158 0.2391 0.11158h0.56588l-0.57385 3.0924c-0.15143 0.80498-0.27098 1.4824-0.6934 1.4824-0.023911 0-0.19128 0-0.34272-0.095642 0.36662-0.087671 0.36662-0.42242 0.36662-0.43039 0-0.18331-0.14346-0.29489-0.3188-0.29489-0.21519 0-0.44633 0.18331-0.44633 0.48618 0 0.33474 0.34272 0.55791 0.74122 0.55791 0.48618 0 0.82092-0.51009 0.92453-0.70934 0.28692-0.52603 0.47024-1.5223 0.48618-1.602l0.46227-2.4867z"/><path id="vUY_b" d="m3.8854 2.9051c0-0.035866 0-0.059776-0.20324-0.26301-1.1955-1.2075-1.865-3.1801-1.865-5.6189 0-2.3193 0.56189-4.3158 1.9487-5.7265 0.11955-0.1076 0.11955-0.13151 0.11955-0.16737 0-0.071731-0.059776-0.095641-0.1076-0.095641-0.15542 0-1.1357 0.86077-1.7215 2.0324-0.60971 1.2075-0.88468 2.4867-0.88468 3.9572 0 1.064 0.16737 2.4867 0.78904 3.7659 0.70535 1.4346 1.6857 2.2117 1.8172 2.2117 0.047821 0 0.1076-0.02391 0.1076-0.095641z"/><path id="vUY_a" d="m3.3714-2.9768c0-0.90859-0.11955-2.391-0.78904-3.7778-0.70536-1.4346-1.6857-2.2117-1.8172-2.2117-0.047821 0-0.1076 0.02391-0.1076 0.095641 0 0.035866 0 0.059776 0.20324 0.26301 1.1955 1.2075 1.865 3.1801 1.865 5.6189 0 2.3193-0.56189 4.3158-1.9487 5.7265-0.11955 0.1076-0.11955 0.13151-0.11955 0.16737 0 0.071731 0.059776 0.095641 0.1076 0.095641 0.15542 0 1.1357-0.86077 1.7215-2.0324 0.60971-1.2194 0.88468-2.5106 0.88468-3.9452z"/><path id="vUY_h" d="m3.5507-3.8974h1.1477c0.90859 0 0.98032 0.20324 0.98032 0.54994 0 0.15542-0.02391 0.32279-0.083686 0.5858-0.023911 0.047821-0.035866 0.1076-0.035866 0.13151 0 0.083686 0.047821 0.13151 0.13151 0.13151 0.095641 0 0.1076-0.047821 0.15542-0.2391l0.6934-2.7856c0-0.04782-0.035866-0.11955-0.11955-0.11955-0.1076 0-0.11955 0.04782-0.16737 0.25106-0.25106 0.89664-0.49016 1.1477-1.5303 1.1477h-1.0879l0.77709-3.0964c0.1076-0.41843 0.13151-0.4543 0.62167-0.4543h1.602c1.4944 0 1.7096 0.44234 1.7096 1.2912 0 0.071731 0 0.33474-0.035865 0.64558-0.011955 0.04782-0.035866 0.20324-0.035866 0.25106 0 0.095641 0.059776 0.13151 0.13151 0.13151 0.083686 0 0.13151-0.047821 0.15542-0.26301l0.25106-2.0922c0-0.035866 0.02391-0.15542 0.02391-0.17933 0-0.13151-0.1076-0.13151-0.32279-0.13151h-5.6668c-0.22715 0-0.3467 0-0.3467 0.21519 0 0.13151 0.083686 0.13151 0.28692 0.13151 0.74122 0 0.74122 0.083687 0.74122 0.21519 0 0.059776-0.011956 0.1076-0.047821 0.2391l-1.6139 6.4558c-0.1076 0.41843-0.13151 0.53798-0.96837 0.53798-0.22715 0-0.3467 0-0.3467 0.21519 0 0.13151 0.1076 0.13151 0.17933 0.13151 0.22715 0 0.46625-0.02391 0.6934-0.02391h1.5542c0.26301 0 0.54994 0.02391 0.81295 0.02391 0.1076 0 0.25106 0 0.25106-0.21519 0-0.13151-0.071731-0.13151-0.33474-0.13151-0.94446 0-0.96837-0.083686-0.96837-0.26301 0-0.059775 0.023911-0.15542 0.047821-0.2391l0.76513-3.0486z"/><path id="vUY_g" d="m8.9186-8.3088c0-0.1076-0.083686-0.1076-0.1076-0.1076s-0.071731 0-0.16737 0.11955l-0.82491 0.99228c-0.059776-0.095641-0.29888-0.51407-0.76513-0.78904-0.51407-0.32279-1.0281-0.32279-1.2075-0.32279-2.5584 0-5.2483 2.6062-5.2483 5.4276 0 1.9726 1.3629 3.2399 3.1562 3.2399 0.86077 0 1.9487-0.28692 2.5465-1.0401 0.13151 0.4543 0.39452 0.77709 0.47821 0.77709 0.059776 0 0.071731-0.035866 0.083687-0.035866 0.011955-0.02391 0.1076-0.44234 0.16737-0.65753l0.19128-0.76513c0.095641-0.39452 0.14346-0.56189 0.22715-0.92055 0.11955-0.4543 0.14346-0.49016 0.801-0.50212 0.047821 0 0.19128 0 0.19128-0.22715 0-0.11955-0.11955-0.11955-0.15542-0.11955-0.20324 0-0.43039 0.023911-0.64558 0.023911h-0.64558c-0.50212 0-1.0281-0.023911-1.5183-0.023911-0.1076 0-0.25106 0-0.25106 0.21519 0 0.11955 0.095642 0.11955 0.095642 0.13151h0.29888c0.94446 0 0.94446 0.095642 0.94446 0.27497 0 0.011955-0.22715 1.2194-0.4543 1.5781-0.4543 0.66949-1.3988 0.94446-2.1041 0.94446-0.92055 0-2.4149-0.47821-2.4149-2.5465 0-0.801 0.28692-2.6301 1.4466-3.9811 0.75318-0.86077 1.865-1.4466 2.9171-1.4466 1.4107 0 1.9128 1.2075 1.9128 2.3073 0 0.19128-0.047821 0.4543-0.047821 0.62167 0 0.1076 0.11955 0.1076 0.15542 0.1076 0.13151 0 0.14346-0.011955 0.19128-0.22715l0.75318-3.0486z"/><path id="vUY_f" d="m5.6787-4.8538-1.1238-2.6182c0.15542-0.28692 0.51407-0.33474 0.65753-0.3467 0.071731 0 0.20324-0.011955 0.20324-0.21519 0-0.13151-0.1076-0.13151-0.17933-0.13151-0.20324 0-0.44234 0.023911-0.64558 0.023911h-0.6934c-0.72926 0-1.2553-0.023911-1.2672-0.023911-0.095641 0-0.21519 0-0.21519 0.22715 0 0.11955 0.1076 0.11955 0.26301 0.11955 0.6934 0 0.74122 0.11955 0.86077 0.40648l1.4227 3.3235-2.5943 2.7736c-0.43039 0.46625-0.94446 0.92055-1.8291 0.96837-0.14346 0.011955-0.2391 0.011955-0.2391 0.22715 0 0.035866 0.011955 0.11955 0.14346 0.11955 0.16737 0 0.3467-0.02391 0.51407-0.02391h0.56189c0.38257 0 0.801 0.02391 1.1716 0.02391 0.083686 0 0.22715 0 0.22715-0.21519 0-0.11955-0.083686-0.13151-0.15542-0.13151-0.2391-0.02391-0.39452-0.15542-0.39452-0.3467 0-0.20324 0.14346-0.3467 0.49016-0.70536l1.064-1.1597c0.26301-0.27497 0.89664-0.96837 1.1597-1.2314l1.2553 2.941c0.011955 0.02391 0.059776 0.14346 0.059776 0.15542 0 0.1076-0.26301 0.32279-0.64558 0.3467-0.071731 0-0.20324 0.011955-0.20324 0.22715 0 0.11955 0.11955 0.11955 0.17933 0.11955 0.20324 0 0.44234-0.02391 0.64558-0.02391h1.3151c0.21519 0 0.44234 0.02391 0.64558 0.02391 0.083686 0 0.21519 0 0.21519-0.22715 0-0.11955-0.11955-0.11955-0.22715-0.11955-0.71731-0.011955-0.74122-0.071731-0.94446-0.51407l-1.5781-3.7061 1.5183-1.6259c0.11955-0.11955 0.39452-0.41843 0.50212-0.53798 0.51407-0.53798 0.99228-1.0281 1.9606-1.0879 0.11955-0.011955 0.2391-0.011955 0.2391-0.21519 0-0.13151-0.1076-0.13151-0.15542-0.13151-0.16737 0-0.3467 0.023911-0.51407 0.023911h-0.54994c-0.38257 0-0.801-0.023911-1.1716-0.023911-0.083686 0-0.22715 0-0.22715 0.21519 0 0.11955 0.083686 0.13151 0.15542 0.13151 0.19128 0.02391 0.39452 0.11955 0.39452 0.3467l-0.011955 0.02391c-0.011956 0.083686-0.035866 0.20324-0.16737 0.3467l-2.0922 2.2476z"/><path id="vUY_e" d="m7.0296-6.8384 0.27497-0.27497c0.52603-0.53798 0.96837-0.66949 1.3868-0.70536 0.13151-0.011955 0.2391-0.02391 0.2391-0.22715 0-0.11955-0.11955-0.11955-0.14346-0.11955-0.14346 0-0.29888 0.023911-0.44234 0.023911h-0.49016c-0.3467 0-0.71731-0.023911-1.0521-0.023911-0.083687 0-0.21519 0-0.21519 0.22715 0 0.1076 0.11955 0.11955 0.15542 0.11955 0.35866 0.02391 0.35866 0.20324 0.35866 0.27497 0 0.13151-0.095641 0.31083-0.33474 0.5858l-2.8453 3.2638-1.3509-3.6344c-0.071731-0.16737-0.071731-0.19128-0.071731-0.21519 0-0.25106 0.49016-0.27497 0.63362-0.27497s0.27497 0 0.27497-0.21519c0-0.13151-0.1076-0.13151-0.17933-0.13151-0.20324 0-0.44234 0.023911-0.64558 0.023911h-1.327c-0.21519 0-0.44234-0.023911-0.64558-0.023911-0.083687 0-0.21519 0-0.21519 0.22715 0 0.11955 0.1076 0.11955 0.28692 0.11955 0.5858 0 0.6934 0.1076 0.801 0.38256l1.4824 3.9811c0.011955 0.035866 0.04782 0.16737 0.04782 0.20324s-0.5858 2.391-0.62167 2.5106c-0.095642 0.32279-0.21519 0.38256-0.98032 0.39452-0.20324 0-0.29888 0-0.29888 0.22715 0 0.11955 0.13151 0.11955 0.16737 0.11955 0.21519 0 0.46625-0.02391 0.6934-0.02391h1.4107c0.21519 0 0.46625 0.02391 0.68144 0.02391 0.083686 0 0.22715 0 0.22715-0.21519 0-0.13151-0.083686-0.13151-0.28692-0.13151-0.74122 0-0.74122-0.083686-0.74122-0.21519 0-0.083686 0.095641-0.46625 0.15542-0.70536l0.43039-1.7215c0.071731-0.25106 0.071731-0.27497 0.17933-0.39452l3.0007-3.455z"/></defs><g id="vUY_o" transform="scale(1.25)"><g transform="translate(-67.803 23.877)"><use x="213.876339" y="-73.03257" xlink:href="#vUY_h"/><use x="223.079954" y="-73.03257" xlink:href="#vUY_b"/><use x="227.63228" y="-73.03257" xlink:href="#vUY_f"/><use x="238.287388" y="-73.03257" xlink:href="#vUY_a"/></g><g transform="translate(-67.818 23.877)"><use x="281.243706" y="-73.03257" xlink:href="#vUY_g"/><use x="290.47733" y="-73.03257" xlink:href="#vUY_b"/><use x="295.029656" y="-73.03257" xlink:href="#vUY_f"/><use x="305.684764" y="-73.03257" xlink:href="#vUY_a"/></g><g transform="translate(-67.172 23.877)"><use x="213.876339" y="-31.256035" xlink:href="#vUY_h"/><use x="223.079954" y="-31.256035" xlink:href="#vUY_b"/><use x="227.63228" y="-31.256035" xlink:href="#vUY_e"/><use x="237.025442" y="-31.256035" xlink:href="#vUY_a"/></g><g transform="translate(-67.187 23.877)"><use x="281.243706" y="-31.256035" xlink:href="#vUY_g"/><use x="290.47733" y="-31.256035" xlink:href="#vUY_b"/><use x="295.029656" y="-31.256035" xlink:href="#vUY_e"/><use x="304.422818" y="-31.256035" xlink:href="#vUY_a"/></g><path d="m180.38-52.144h27.219" fill="none" stroke="#000" stroke-miterlimit="10" stroke-width=".47818"/><path d="m205.36-55.012c0.45313 1.7188 1.4648 2.5313 2.4844 2.8672-1.0195 0.33594-2.0312 1.1484-2.4844 2.8711" fill="none" stroke="#000" stroke-linecap="round" stroke-linejoin="round" stroke-miterlimit="10" stroke-width=".47818"/><g transform="translate(-5.613 -25.251)"><use x="194.247296" y="-31.256035" xlink:href="#vUY_i"/><use x="198.496696" y="-29.916606" xlink:href="#vUY_n"/></g><path d="m160.55-41.594v20.195" fill="none" stroke="#000" stroke-miterlimit="10" stroke-width=".47818"/><path d="m163.43-23.645c-1.7226 0.45312-2.5352 1.4648-2.8711 2.4844-0.33594-1.0195-1.1484-2.0313-2.8672-2.4844" fill="none" stroke="#000" stroke-linecap="round" stroke-linejoin="round" stroke-miterlimit="10" stroke-width=".47818"/><g transform="translate(-54.573 1.9925)"><use x="194.247296" y="-31.256035" xlink:href="#vUY_l"/><use x="200.782588" y="-31.256035" xlink:href="#vUY_d"/><use x="204.075841" y="-31.256035" xlink:href="#vUY_j"/><use x="209.022607" y="-31.256035" xlink:href="#vUY_c"/></g><path d="m227.92-41.594v20.195" fill="none" stroke="#000" stroke-miterlimit="10" stroke-width=".47818"/><path d="m230.79-23.645c-1.7226 0.45312-2.5352 1.4648-2.8711 2.4844-0.33203-1.0195-1.1445-2.0313-2.8672-2.4844" fill="none" stroke="#000" stroke-linecap="round" stroke-linejoin="round" stroke-miterlimit="10" stroke-width=".47818"/><g transform="translate(36.489 1.9925)"><use x="194.247296" y="-31.256035" xlink:href="#vUY_k"/><use x="200.845964" y="-31.256035" xlink:href="#vUY_d"/><use x="204.139217" y="-31.256035" xlink:href="#vUY_j"/><use x="209.085984" y="-31.256035" xlink:href="#vUY_c"/></g><path d="m179.75-10.367h28.48" fill="none" stroke="#000" stroke-miterlimit="10" stroke-width=".47818"/><path d="m205.98-13.238c0.45703 1.7226 1.4688 2.5352 2.4883 2.8711-1.0195 0.33594-2.0312 1.1484-2.4883 2.8672" fill="none" stroke="#000" stroke-linecap="round" stroke-linejoin="round" stroke-miterlimit="10" stroke-width=".47818"/><g transform="translate(-5.335 27.133)"><use x="194.247296" y="-31.256035" xlink:href="#vUY_i"/><use x="198.496696" y="-29.916606" xlink:href="#vUY_m"/></g></g></svg>
