<svg width="4.2684em" height=".92245em" style="vertical-align:-0.214802em" version="1.1" viewBox=".47821 -8.4284 50.839 10.987" xmlns="http://www.w3.org/2000/svg" xmlns:xlink="http://www.w3.org/1999/xlink"><defs><path id="EHR_b" d="m4.7701-2.7616h3.2996c0.16737 0 0.38257 0 0.38257-0.21519 0-0.22715-0.20324-0.22715-0.38257-0.22715h-3.2996v-3.2996c0-0.16737 0-0.38257-0.21519-0.38257-0.22715 0-0.22715 0.20324-0.22715 0.38257v3.2996h-3.2996c-0.16737 0-0.38256 0-0.38256 0.21519 0 0.22715 0.20324 0.22715 0.38256 0.22715h3.2996v3.2996c0 0.16737 0 0.38256 0.21519 0.38256 0.22715 0 0.22715-0.20324 0.22715-0.38256v-3.2996z"/><path id="EHR_a" d="m8.0697-3.8735c0.16737 0 0.38257 0 0.38257-0.21519 0-0.22715-0.20324-0.22715-0.38257-0.22715h-7.0416c-0.16737 0-0.38256 0-0.38256 0.21519 0 0.22715 0.20324 0.22715 0.38256 0.22715h7.0416zm0 2.2237c0.16737 0 0.38257 0 0.38257-0.21519 0-0.22715-0.20324-0.22715-0.38257-0.22715h-7.0416c-0.16737 0-0.38256 0-0.38256 0.21519 0 0.22715 0.20324 0.22715 0.38256 0.22715h7.0416z"/><path id="EHR_e" d="m5.5352-3.0247c0-1.1597-0.65753-2.2476-1.9248-2.2476-1.5661 0-3.1323 1.7096-3.1323 3.4072 0 1.0401 0.64558 1.9846 1.865 1.9846 0.74122 0 1.6259-0.28692 2.4747-1.0042 0.16737 0.66949 0.53798 1.0042 1.0521 1.0042 0.64558 0 0.96837-0.66949 0.96837-0.82491 0-0.1076-0.083686-0.1076-0.11955-0.1076-0.095641 0-0.1076 0.035865-0.14346 0.13151-0.1076 0.29888-0.38256 0.56189-0.66949 0.56189-0.37061 0-0.37061-0.76513-0.37061-1.4944 1.2194-1.4585 1.5064-2.9649 1.5064-2.9768 0-0.1076-0.095641-0.1076-0.13151-0.1076-0.1076 0-0.11955 0.035865-0.16737 0.25106-0.15542 0.52603-0.46625 1.4585-1.2075 2.4389v-1.0162zm-0.75318 1.8531c-1.0521 0.94446-1.9965 1.0521-2.4149 1.0521-0.84882 0-1.0879-0.75318-1.0879-1.3151 0-0.51407 0.26301-1.7335 0.63362-2.391 0.49016-0.83686 1.1597-1.2075 1.6976-1.2075 1.1597 0 1.1597 1.5183 1.1597 2.5225 0 0.29888-0.011955 0.60971-0.011955 0.90859 0 0.2391 0.011955 0.29888 0.02391 0.43039z"/><path id="EHR_d" d="m6.7666-6.9579c0-0.71731-0.60971-1.4705-1.6976-1.4705-1.5422 0-2.5225 1.8889-2.8334 3.1323l-1.8889 7.4959c-0.02391 0.095641 0.047821 0.11955 0.1076 0.11955 0.083687 0 0.14346-0.011956 0.15542-0.071731l0.83686-3.3474c0.11955 0.66949 0.77709 1.2194 1.4824 1.2194 1.7096 0 3.3235-1.339 3.3235-3.1203 0-0.4543-0.1076-0.90859-0.35866-1.2912-0.14346-0.22715-0.32279-0.39452-0.51407-0.53798 0.86077-0.4543 1.3868-1.1836 1.3868-2.128zm-2.0802 2.1161c-0.19128 0.071731-0.38256 0.095641-0.60971 0.095641-0.16737 0-0.32279 0.011955-0.53798-0.059776 0.11955-0.083686 0.29888-0.1076 0.54994-0.1076 0.21519 0 0.43039 0.02391 0.59776 0.071731zm1.4585-2.2237c0 0.65753-0.32279 1.6139-1.0999 2.0563-0.22715-0.083687-0.53798-0.14346-0.801-0.14346-0.25106 0-0.96837-0.023911-0.96837 0.35866 0 0.32279 0.65753 0.28692 0.86077 0.28692 0.31084 0 0.5858-0.071731 0.87273-0.15542 0.38257 0.31084 0.54994 0.71731 0.54994 1.3151 0 0.6934-0.19128 1.2553-0.41843 1.7694-0.39452 0.88468-1.327 1.4585-2.1519 1.4585-0.87273 0-1.327-0.6934-1.327-1.5064 0-0.1076 0-0.26301 0.047821-0.44234l0.77709-3.1442c0.39452-1.5661 1.3988-2.9768 2.5584-2.9768 0.86077 0 1.0999 0.59776 1.0999 1.1238z"/><path id="EHR_c" d="m4.5191-1.4585c-0.023911-0.5858-0.047821-1.5064-0.50212-2.5823-0.2391-0.59776-0.64558-1.2314-1.5183-1.2314-1.4705 0-2.2715 1.877-2.2715 2.1878 0 0.1076 0.083686 0.1076 0.11955 0.1076 0.1076 0 0.1076-0.02391 0.16737-0.17933 0.25106-0.74122 1.0162-1.327 1.8411-1.327 1.6618 0 1.9009 1.8531 1.9009 3.0366 0 0.75318-0.083686 1.0042-0.15542 1.2433-0.22715 0.74122-0.62167 2.2237-0.62167 2.5584 0 0.095641 0.035865 0.20324 0.13151 0.20324 0.17933 0 0.28692-0.39452 0.41843-0.87273 0.28692-1.0521 0.35866-1.5781 0.41843-2.0563 0.035865-0.28692 0.71731-2.2595 1.6618-4.1365 0.083686-0.19128 0.25106-0.51407 0.25106-0.54994 0-0.011955-0.011955-0.095641-0.11955-0.095641-0.023911 0-0.083686 0-0.1076 0.04782-0.02391 0.023911-0.44234 0.83686-0.801 1.6498-0.17933 0.40648-0.41843 0.94446-0.81295 1.9965z"/></defs><g id="EHR_f"><use xlink:href="#EHR_e"/><use x="10.178388" xlink:href="#EHR_b"/><use x="21.939703" xlink:href="#EHR_d"/><use x="32.531803" xlink:href="#EHR_a"/><use x="44.957284" xlink:href="#EHR_c"/></g></svg>
