<svg width="6.7896em" height="1.28em" style="vertical-align:-0.299458em" version="1.1" viewBox=".47821 -11.679 80.868 15.246" xmlns="http://www.w3.org/2000/svg" xmlns:xlink="http://www.w3.org/1999/xlink"><defs><path id="See_g" d="m2.5026-5.077c0-0.21519-0.01594-0.22316-0.23113-0.22316-0.32678 0.3188-0.74919 0.51009-1.5064 0.51009v0.26301c0.21519 0 0.64558 0 1.1078-0.21519v4.0887c0 0.29489-0.02391 0.39054-0.78107 0.39054h-0.27895v0.26301c0.32678-0.02391 1.0122-0.02391 1.3709-0.02391s1.0521 0 1.3788 0.02391v-0.26301h-0.27895c-0.75716 0-0.78107-0.095641-0.78107-0.39054v-4.4234z"/><path id="See_f" d="m5.8262-2.654c0.11955 0 0.27895 0 0.27895-0.18331s-0.19128-0.18331-0.31084-0.18331h-5.0132c-0.11955 0-0.31083 0-0.31083 0.18331s0.1594 0.18331 0.27895 0.18331h5.077zm-0.031881 1.6897c0.11955 0 0.31084 0 0.31084-0.18331s-0.1594-0.18331-0.27895-0.18331h-5.077c-0.11955 0-0.27895 0-0.27895 0.18331s0.19128 0.18331 0.31083 0.18331h5.0132z"/><path id="See_a" d="m2.3751-4.9734c0-0.17534-0.12752-0.30286-0.31083-0.30286-0.20722 0-0.43836 0.19128-0.43836 0.43039 0 0.17534 0.12752 0.30286 0.31083 0.30286 0.20722 0 0.43836-0.19128 0.43836-0.43039zm-1.1636 2.925-0.43039 1.0999c-0.039851 0.11955-0.079701 0.21519-0.079701 0.35068 0 0.39054 0.30286 0.67746 0.72528 0.67746 0.7731 0 1.0999-1.1158 1.0999-1.2194 0-0.079701-0.063761-0.10361-0.11955-0.10361-0.095641 0-0.11158 0.05579-0.13549 0.13549-0.18331 0.63761-0.51009 0.96438-0.82889 0.96438-0.095641 0-0.19128-0.039851-0.19128-0.25504 0-0.19128 0.05579-0.33474 0.1594-0.58182 0.079701-0.21519 0.1594-0.43039 0.24707-0.64558l0.24707-0.64558c0.071731-0.18331 0.16737-0.43039 0.16737-0.56588 0-0.39851-0.3188-0.67746-0.72528-0.67746-0.7731 0-1.1078 1.1158-1.1078 1.2194 0 0.071731 0.055791 0.10361 0.11955 0.10361 0.10361 0 0.11158-0.04782 0.13549-0.12752 0.22316-0.75716 0.58979-0.97235 0.82889-0.97235 0.11158 0 0.19128 0.03985 0.19128 0.26301 0 0.079702-0.00797 0.19128-0.087671 0.43039l-0.21519 0.54994z"/><path id="See_h" d="m1.594-1.3071c0.023911-0.11955 0.10361-0.42242 0.12752-0.54197 0.11158-0.43039 0.11158-0.43836 0.29489-0.70137 0.26301-0.39054 0.63761-0.74122 1.1716-0.74122 0.28692 0 0.4543 0.16737 0.4543 0.54197 0 0.43836-0.33474 1.3469-0.48618 1.7375-0.10361 0.26301-0.10361 0.31083-0.10361 0.41445 0 0.4543 0.3746 0.67746 0.71731 0.67746 0.78107 0 1.1078-1.1158 1.1078-1.2194 0-0.079701-0.063761-0.10361-0.11955-0.10361-0.095641 0-0.11158 0.05579-0.13549 0.13549-0.19128 0.65355-0.52603 0.96438-0.82889 0.96438-0.12752 0-0.19128-0.079701-0.19128-0.26301s0.063761-0.35866 0.14346-0.55791c0.11955-0.30286 0.47024-1.2194 0.47024-1.6658 0-0.59776-0.41445-0.88468-0.98829-0.88468-0.64558 0-1.06 0.39054-1.2912 0.6934-0.055791-0.43836-0.40648-0.6934-0.81295-0.6934-0.28692 0-0.48618 0.18331-0.6137 0.43039-0.19128 0.3746-0.27098 0.7731-0.27098 0.78904 0 0.071731 0.055791 0.10361 0.11955 0.10361 0.10361 0 0.11158-0.03188 0.16737-0.2391 0.095642-0.39054 0.2391-0.86077 0.57385-0.86077 0.20722 0 0.25504 0.19925 0.25504 0.3746 0 0.14346-0.039851 0.29489-0.10361 0.55791-0.015941 0.063761-0.13549 0.534-0.16737 0.64558l-0.29489 1.1955c-0.03188 0.11955-0.079701 0.3188-0.079701 0.35068 0 0.18331 0.15143 0.24707 0.25504 0.24707 0.14346 0 0.26301-0.095641 0.3188-0.19128 0.02391-0.04782 0.087671-0.3188 0.12752-0.48618l0.18331-0.70934z"/><path id="See_e" d="m8.0697-3.8735c0.16737 0 0.38257 0 0.38257-0.21519 0-0.22715-0.20324-0.22715-0.38257-0.22715h-7.0416c-0.16737 0-0.38256 0-0.38256 0.21519 0 0.22715 0.20324 0.22715 0.38256 0.22715h7.0416zm0 2.2237c0.16737 0 0.38257 0 0.38257-0.21519 0-0.22715-0.20324-0.22715-0.38257-0.22715h-7.0416c-0.16737 0-0.38256 0-0.38256 0.21519 0 0.22715 0.20324 0.22715 0.38256 0.22715h7.0416z"/><path id="See_i" d="m2.2954-2.9888c0-0.3467-0.28692-0.63362-0.63362-0.63362s-0.63362 0.28692-0.63362 0.63362 0.28692 0.63362 0.63362 0.63362 0.63362-0.28692 0.63362-0.63362z"/><path id="See_j" d="m5.0331 6.3841-4.2441 5.2483c-0.095641 0.11955-0.1076 0.14346-0.1076 0.19128 0 0.13151 0.1076 0.13151 0.32279 0.13151h9.9108l1.0281-2.9768h-0.29888c-0.29888 0.89664-1.0999 1.6259-2.1161 1.9726-0.19128 0.059776-1.0162 0.3467-2.7736 0.3467h-5.0809l4.1484-5.1288c0.083686-0.1076 0.1076-0.14346 0.1076-0.19128s-0.011955-0.059776-0.083686-0.16737l-3.8854-5.332h4.7342c1.3629 0 4.1126 0.083686 4.9494 2.3193h0.29888l-1.0281-2.7975h-9.9108c-0.32279 0-0.33474 0.011955-0.33474 0.38256l4.3636 6.0015z"/><path id="See_c" d="m3.5985-1.4227c-0.059776 0.20324-0.059776 0.22715-0.22715 0.4543-0.26301 0.33474-0.78904 0.84882-1.3509 0.84882-0.49016 0-0.76513-0.44234-0.76513-1.1477 0-0.65753 0.37061-1.9965 0.59776-2.4986 0.40648-0.83686 0.96837-1.2672 1.4346-1.2672 0.78904 0 0.94446 0.98032 0.94446 1.076 0 0.011956-0.035866 0.16737-0.047821 0.19128l-0.5858 2.3432zm0.76513-3.0605c-0.13151-0.31083-0.4543-0.78904-1.076-0.78904-1.3509 0-2.8095 1.7455-2.8095 3.5148 0 1.1836 0.6934 1.877 1.5064 1.877 0.65753 0 1.2194-0.51407 1.5542-0.90859 0.11955 0.70536 0.68144 0.90859 1.0401 0.90859s0.64558-0.21519 0.86077-0.64558c0.19128-0.40648 0.35866-1.1357 0.35866-1.1836 0-0.059776-0.047821-0.1076-0.11955-0.1076-0.1076 0-0.11955 0.059776-0.16737 0.2391-0.17933 0.70536-0.40648 1.4585-0.89664 1.4585-0.3467 0-0.37061-0.31083-0.37061-0.54994 0-0.27497 0.035865-0.40648 0.14346-0.87273 0.083686-0.29888 0.14346-0.56189 0.2391-0.90859 0.44234-1.7933 0.54994-2.2237 0.54994-2.2954 0-0.16737-0.13151-0.29888-0.31084-0.29888-0.38256 0-0.47821 0.41843-0.50212 0.56189z"/><path id="See_b" d="m2.7616-7.998c0.011955-0.047821 0.035865-0.11955 0.035865-0.17933 0-0.11955-0.11955-0.11955-0.14346-0.11955-0.011955 0-0.44234 0.035866-0.65753 0.059776-0.20324 0.011955-0.38256 0.035866-0.59776 0.047821-0.28692 0.02391-0.37061 0.035865-0.37061 0.25106 0 0.11955 0.11955 0.11955 0.2391 0.11955 0.60971 0 0.60971 0.1076 0.60971 0.22715 0 0.083686-0.095641 0.43039-0.14346 0.64558l-0.28692 1.1477c-0.11955 0.47821-0.801 3.192-0.84882 3.4072-0.059775 0.29888-0.059775 0.50212-0.059775 0.65754 0 1.2194 0.68144 1.8531 1.4585 1.8531 1.3868 0 2.8214-1.7813 2.8214-3.5148 0-1.0999-0.62167-1.877-1.5183-1.877-0.62167 0-1.1836 0.51407-1.4107 0.75318l0.87273-3.479zm-0.75318 7.8785c-0.38256 0-0.801-0.28692-0.801-1.2194 0-0.39452 0.035865-0.62167 0.25106-1.4585 0.035865-0.15542 0.22715-0.92055 0.27497-1.076 0.023911-0.095642 0.72927-1.1597 1.5422-1.1597 0.52603 0 0.76513 0.52603 0.76513 1.1477 0 0.57385-0.33474 1.9248-0.63362 2.5465-0.29888 0.64558-0.84882 1.2194-1.3988 1.2194z"/><path id="See_d" d="m6.396-7.1372c-0.14346 0.13151-0.5858 0.54994-0.5858 0.71731 0 0.11955 0.1076 0.22715 0.22715 0.22715 0.1076 0 0.15542-0.071731 0.2391-0.19128 0.28692-0.35866 0.60971-0.5858 0.88468-0.74122 0.11955-0.071731 0.20324-0.1076 0.20324-0.2391 0-0.1076-0.095642-0.16737-0.16737-0.22715-0.33474-0.22715-0.41843-0.54994-0.4543-0.6934-0.035866-0.095641-0.071731-0.2391-0.2391-0.2391-0.071731 0-0.21519 0.047821-0.21519 0.22715 0 0.1076 0.071731 0.39452 0.29888 0.71731h-4.0169c-0.20324 0-0.40648 0-0.40648 0.22715 0 0.21519 0.21519 0.21519 0.40648 0.21519h3.8257z"/></defs><g id="See_k"><use x="-.773482" xlink:href="#See_d"/><use xlink:href="#See_c"/><use x="8.801604" xlink:href="#See_i"/><use x="13.421745" y="-3.154811" xlink:href="#See_d"/><use x="14.779158" xlink:href="#See_b"/><use x="23.077081" xlink:href="#See_e"/><use x="35.502562" y="-8.966452" xlink:href="#See_j"/><use x="48.121941" y="-5.811611" xlink:href="#See_h"/><use x="48.121941" y="3.487" xlink:href="#See_a"/><use x="51.005081" y="3.487" xlink:href="#See_f"/><use x="57.591588" y="3.487" xlink:href="#See_g"/><use x="64.3164" xlink:href="#See_c"/><use x="70.461344" y="1.793263" xlink:href="#See_a"/><use x="73.842616" xlink:href="#See_b"/><use x="78.819721" y="1.793263" xlink:href="#See_a"/></g></svg>
