<svg width="2.642em" height="1.0038em" style="vertical-align:-0.250937em" version="1.1" viewBox="1.4227 -8.9664 31.468 11.955" xmlns="http://www.w3.org/2000/svg" xmlns:xlink="http://www.w3.org/1999/xlink"><defs><path id="Kxg_b" d="m3.4431-7.6633c0-0.27497 0-0.28692-0.2391-0.28692-0.28692 0.32279-0.88468 0.76513-2.1161 0.76513v0.3467c0.27497 0 0.87273 0 1.5303-0.31084v6.2286c0 0.43039-0.035866 0.57385-1.0879 0.57385h-0.37061v0.3467c0.32279-0.02391 1.4824-0.02391 1.877-0.02391s1.5422 0 1.865 0.02391v-0.3467h-0.37061c-1.0521 0-1.0879-0.14346-1.0879-0.57385v-6.7427z"/><path id="Kxg_c" d="m7.8785-5.8222c0.21519-0.095641 0.2391-0.17933 0.2391-0.25106 0-0.13151-0.095641-0.22715-0.22715-0.22715-0.02391 0-0.035866 0.011956-0.20324 0.083687l-6.4677 2.9768c-0.21519 0.095642-0.2391 0.17933-0.2391 0.25106 0 0.083686 0.011955 0.15542 0.2391 0.26301l6.4677 2.9768c0.15542 0.071731 0.17933 0.083686 0.20324 0.083686 0.13151 0 0.22715-0.095642 0.22715-0.22715 0-0.071731-0.02391-0.15542-0.2391-0.25106l-6.1569-2.8334 6.1569-2.8453z"/><path id="Kxg_d" d="m4.6506-4.8897c-0.37061 0.071731-0.56189 0.33474-0.56189 0.59776 0 0.28692 0.22715 0.38256 0.39452 0.38256 0.33474 0 0.60971-0.28692 0.60971-0.64558 0-0.38256-0.37061-0.71731-0.96837-0.71731-0.47821 0-1.0281 0.21519-1.5303 0.94446-0.083686-0.63362-0.56189-0.94446-1.0401-0.94446-0.46625 0-0.70536 0.35866-0.84882 0.62167-0.20324 0.43039-0.38256 1.1477-0.38256 1.2075 0 0.04782 0.04782 0.1076 0.13151 0.1076 0.095642 0 0.1076-0.011955 0.17933-0.28692 0.17933-0.71731 0.40648-1.4107 0.88468-1.4107 0.28692 0 0.37061 0.20324 0.37061 0.54994 0 0.26301-0.11955 0.72926-0.20324 1.0999l-0.33474 1.2912c-0.047821 0.22715-0.17933 0.76513-0.2391 0.98032-0.083687 0.31084-0.21519 0.87273-0.21519 0.9325 0 0.16737 0.13151 0.29888 0.31083 0.29888 0.13151 0 0.35866-0.083686 0.43039-0.32279 0.035866-0.095641 0.47821-1.9009 0.54994-2.1758 0.059776-0.26301 0.13151-0.51407 0.19128-0.77709 0.047821-0.16737 0.095642-0.35866 0.13151-0.51407 0.035866-0.1076 0.35866-0.6934 0.65754-0.95641 0.14346-0.13151 0.4543-0.40648 0.94446-0.40648 0.19128 0 0.38256 0.035866 0.53798 0.14346z"/><path id="Kxg_a" d="m1.9009-8.536c0-0.21519 0-0.43039-0.2391-0.43039s-0.2391 0.21519-0.2391 0.43039v11.094c0 0.21519 0 0.43039 0.2391 0.43039s0.2391-0.21519 0.2391-0.43039v-11.094z"/></defs><g id="Kxg_e"><use xlink:href="#Kxg_a"/><use x="3.32089" xlink:href="#Kxg_d"/><use x="8.921364" xlink:href="#Kxg_a"/><use x="15.563083" xlink:href="#Kxg_c"/><use x="27.988564" xlink:href="#Kxg_b"/></g></svg>
